<svg version="1.1" xmlns="http://www.w3.org/2000/svg" xmlns:xlink="http://www.w3.org/1999/xlink" width="133.83453" height="117" viewBox="0,0,133.83453,117"><g transform="translate(-171.87206,-129.83333)"><g data-paper-data="{&quot;isPaintingLayer&quot;:true}" fill-rule="nonzero" stroke-linecap="butt" stroke-linejoin="miter" stroke-miterlimit="10" stroke-dasharray="" stroke-dashoffset="0" style="mix-blend-mode: normal"><path d="M256.04409,192.70965c-8.77323,-0.01841 -46.33057,-0.09722 -52.90257,-0.11101c-1.91204,-0.00401 -2.29436,-1.18175 -1.06625,-2.28283c2.72604,-2.44407 13.38615,-12.00155 16.76507,-15.03097c0.6524,-0.58492 0.51764,-1.61119 -0.08362,-2.40947c-1.97379,-2.62058 -12.89411,-17.11939 -17.54302,-23.29171c-1.28928,-1.71176 -0.3432,-2.79028 1.62291,-2.7983c6.62077,-0.02702 43.77376,-0.17867 52.65641,-0.21492c1.22094,-0.00498 2.23996,0.44946 2.81547,1.24163c3.34692,4.60694 14.92329,20.54147 17.25116,23.74571c1.02814,1.4152 1.47368,3.38379 0.50553,4.28196c-4.05046,3.75766 -14.75138,13.68502 -16.85316,15.63486c-0.70139,0.65068 -1.994,1.23752 -3.16793,1.23506z" fill="#566565" stroke="#000000" stroke-width="5"/><path d="M200.21557,191.153l18.77223,-17.91895h58.38896l-21.21019,19.86931z" fill="#000000" stroke="none" stroke-width="0"/><path d="M223.87997,171.01697c-2.96826,-4.12773 -12.52918,-17.42338 -14.02274,-19.50037c-0.38475,-0.53505 -0.40138,-0.97682 0.15085,-0.97682c5.76192,0 38.86854,0 42.66417,0c0.69614,0 1.60228,0.53168 2.04736,1.14905c1.57752,2.18818 10.8688,15.07607 13.55805,18.80633c0.46176,0.6405 0.24828,1.01896 -0.61164,1.03317c-6.84782,0.11319 -37.75053,0.62398 -41.56782,0.68707c-0.75944,0.01255 -1.66476,-0.42876 -2.21823,-1.19842z" fill="#94949d" stroke="none" stroke-width="NaN"/><g><path d="M224.7877,192.04863c0,0 -3.43225,-27.81107 15.32353,-29.36883c14.2931,-1.18712 24.64876,22.8349 24.64876,22.8349l-7.30263,6.53393z" fill="#323245" stroke="none" stroke-width="0"/><path d="M225.51941,177.46837c1.55729,-6.99277 5.42379,-14.02712 14.59184,-14.78858c8.34439,-0.69304 13.61722,4.70765 18.00054,11.4027c1.2747,1.94697 1.67685,10.39618 -5.46531,11.2577c-5.51655,0.66543 -13.11686,-0.38041 -18.87567,-2.15714c-2.80497,-0.8654 -7.02017,1.46404 -8.49779,0.36514c-1.18946,-0.8846 0.0452,-5.17641 0.24639,-6.07982z" fill="#556565" stroke="none" stroke-width="0"/><path d="M227.34344,171.92216c2.20614,-4.78633 6.07382,-8.68641 12.76778,-9.24239c8.34439,-0.69304 10.92678,4.13113 14.92575,8.71226c0.56993,0.8705 -3.95776,0.98588 -9.72823,1.86531c-0.84312,0.12849 -2.09187,-0.01837 -2.09187,-0.01837c0,0 -2.54289,3.43104 -8.71621,2.86725c-4.70594,-0.35375 -7.44844,-3.55225 -7.15724,-4.18406z" fill="#a8b9b9" stroke="none" stroke-width="0"/><path d="M229.00705,168.75013c1.90816,-3.44092 5.25344,-6.24471 11.04326,-6.6444c7.21732,-0.49823 9.45091,2.96989 12.90975,6.26329c0.58902,0.74777 -6.48911,1.86241 -13.10275,1.89802c-5.76588,0.03105 -11.17874,-0.92458 -10.85026,-1.51691z" fill="#556565" stroke="none" stroke-width="0"/><path d="M233.01901,164.83863c2.15977,-1.8988 3.43564,-1.85514 7.09224,-2.15884c3.69046,-0.30651 6.78011,0.57892 9.45773,2.2411c3.37667,2.09614 -19.80531,2.77971 -16.54998,-0.08226z" fill="#acbbbb" stroke="none" stroke-width="0"/><path d="M224.78775,192.04863c0,0 -3.43225,-27.81107 15.32352,-29.36884c14.2931,-1.18712 24.64876,22.83491 24.64876,22.83491l-7.30263,6.53393z" fill="none" stroke="#000000" stroke-width="2"/><path d="M248.39422,183.54166c-3.26036,0.00235 -23.89053,-0.09167 -23.89053,-0.09167c0,0 1.74581,-1.48155 5.40114,-1.93583c4.30018,-0.53443 9.97085,-0.46505 13.83383,0.24071c2.83066,0.51715 5.01665,1.78653 4.65557,1.78679z" fill="#8a8f9a" stroke="none" stroke-width="0"/><path d="M225.00519,179.2485c0.21294,-1.03059 0.53527,-3.13244 1.12536,-4.60577c0.41667,-1.04035 1.18477,-1.71284 1.18477,-1.71284c0,0 3.29472,0.21731 5.43266,0.21731c5.52414,0 12.80419,0 14.77681,0c0.98963,0 1.97441,0.8587 2.01341,1.61929c0.06536,1.27453 0.11109,5.03668 0.13251,7.161c0.00906,0.89877 -0.74858,1.50491 -1.60243,1.50553c-3.26036,0.00235 -23.56457,0.01699 -23.56457,0.01699c0,0 0.05794,-2.05476 0.50148,-4.2015z" fill="none" stroke="#000000" stroke-width="1.5"/><path d="M242.24851,180.28106c0,0 1.86065,-0.14452 1.65623,-5.02387c-0.05507,-1.31445 -0.26591,-4.9016 -0.3921,-7.01191c-0.05723,-0.95692 0.08474,-0.982 0.35012,-0.046c0.59256,2.09001 1.60195,5.71487 1.93516,7.30841c0.75662,3.61855 3.00424,3.5165 3.00424,3.5165c0,0 -1.6299,1.60265 -1.85141,2.59189c-0.58283,2.60289 0.78725,5.32807 0.78725,5.32807c0,0 -1.96209,-4.09914 -2.6722,-5.04997c-0.68287,-0.91436 -2.81729,-1.61313 -2.81729,-1.61313z" fill="#ff0000" stroke="none" stroke-width="0"/></g><path d="M256.04411,192.70965c-8.77323,-0.01841 -46.33057,-0.09722 -52.90257,-0.11101c-1.91204,-0.00401 -2.29436,-1.18175 -1.06625,-2.28283c2.72604,-2.44407 13.38615,-12.00155 16.76507,-15.03097c0.6524,-0.58492 0.51764,-1.61119 -0.08362,-2.40947c-1.97379,-2.62058 -12.89411,-17.11939 -17.54302,-23.29171c-1.28928,-1.71176 -0.3432,-2.79028 1.62291,-2.7983c6.62077,-0.02702 43.77376,-0.17867 52.65641,-0.21492c1.22094,-0.00498 2.23996,0.44946 2.81547,1.24163c3.34692,4.60694 14.92329,20.54147 17.25116,23.74571c1.02814,1.4152 1.47368,3.38379 0.50553,4.28196c-4.05046,3.75766 -14.75138,13.68502 -16.85316,15.63486c-0.70139,0.65068 -1.994,1.23752 -3.16793,1.23506z" fill="none" stroke="#000000" stroke-width="5"/><path d="M256.52135,192.70965c-8.56957,-0.01798 -45.25504,-0.09496 -51.67446,-0.10843c-1.86766,-0.00392 -2.24111,-1.15432 -1.04151,-2.22984c2.66276,-2.38733 13.07541,-11.72295 16.37589,-14.68204c0.63726,-0.57135 0.50562,-1.57378 -0.08167,-2.35353c-1.92797,-2.55974 -12.59478,-16.72198 -17.13577,-22.75101c-1.25934,-1.67202 -0.33523,-2.7255 1.58524,-2.73334c6.46708,-0.0264 42.75758,-0.17452 51.43402,-0.20994c1.19259,-0.00485 2.18797,0.43903 2.75012,1.21281c3.26923,4.5 14.57686,20.06461 16.85068,23.19447c1.00427,1.38235 1.43947,3.30524 0.49379,4.18256c-3.95643,3.67043 -14.40893,13.36732 -16.46193,15.27191c-0.68511,0.63557 -1.9477,1.2088 -3.09439,1.20639z" fill="none" stroke="#ff0000" stroke-width="2"/><path d="M256.04411,192.70965c-8.77323,-0.01841 -46.33057,-0.09722 -52.90257,-0.11101c-1.91204,-0.00401 -2.29436,-1.18175 -1.06625,-2.28283c2.72604,-2.44407 13.38615,-12.00155 16.76507,-15.03097c0.6524,-0.58492 0.51764,-1.61119 -0.08362,-2.40947c-1.97379,-2.62058 -12.89411,-17.11939 -17.54302,-23.29171c-1.28928,-1.71176 -0.3432,-2.79028 1.62291,-2.7983c6.62077,-0.02702 43.77376,-0.17867 52.65641,-0.21492c1.22094,-0.00498 2.23996,0.44946 2.81547,1.24163c3.34692,4.60694 14.92329,20.54147 17.25116,23.74571c1.02814,1.4152 1.47368,3.38379 0.50553,4.28196c-4.05046,3.75766 -14.75138,13.68502 -16.85316,15.63486c-0.70139,0.65068 -1.994,1.23752 -3.16793,1.23506z" fill="none" stroke="#ffffff" stroke-width="2"/><path d="M171.87206,246.83333v-117h133.83453v117z" fill="none" stroke="none" stroke-width="NaN"/><text transform="translate(203.51563,214.25) scale(0.5,0.5)" font-size="40" xml:space="preserve" fill="#000000" fill-rule="nonzero" stroke="#ffffff" stroke-width="1" stroke-linecap="butt" stroke-linejoin="miter" stroke-miterlimit="10" stroke-dasharray="" stroke-dashoffset="0" font-family="&quot;Microsoft YaHei&quot;, &quot;微软雅黑&quot;, STXihei, &quot;华文细黑&quot;" font-weight="normal" text-anchor="start" style="mix-blend-mode: normal"><tspan x="0" dy="0">通风口</tspan></text></g></g></svg>