<svg version="1.1" xmlns="http://www.w3.org/2000/svg" xmlns:xlink="http://www.w3.org/1999/xlink" width="79.71622" height="21.05276" viewBox="0,0,79.71622,21.05276"><g transform="translate(-177.28379,-179.51348)"><g data-paper-data="{&quot;isPaintingLayer&quot;:true}" fill-rule="nonzero" stroke-linejoin="miter" stroke-miterlimit="10" stroke-dasharray="" stroke-dashoffset="0" style="mix-blend-mode: normal"><path d="M182.45948,193.2329c0,-2.67245 0,-13.26581 0,-13.26581l67.2,0.02427c0,0 0,10.60783 0,13.24155c0,3.17867 -8.15541,7.33333 -14.49411,7.33333c-7.23712,0 -24.70199,0 -37.55294,0c-8.61269,0 -15.15295,-4.15466 -15.15295,-7.33333z" fill="#000000" stroke="none" stroke-width="0" stroke-linecap="butt"/><path d="M223.00002,193.2329c0,-2.67245 0,-13.26581 0,-13.26581l34,0.02427c0,0 0,10.60783 0,13.24155c0,3.17867 -4.12625,7.33333 -7.33333,7.33333c-3.66164,0 -12.49803,0 -19,0c-4.35761,0 -7.66667,-4.15466 -7.66667,-7.33333z" fill="#000000" stroke="none" stroke-width="0" stroke-linecap="butt"/><g data-paper-data="{&quot;index&quot;:null}" fill="none" stroke="#ababab" stroke-width="2.5" stroke-linecap="round"><path d="M232.00002,187.12179l8,6.33333"/><path d="M240.00001,193.45513l8,-6.33333" data-paper-data="{&quot;index&quot;:null}"/></g><path d="M177.2838,193.2329c0,-2.67245 0,-13.26581 0,-13.26581l34,0.02427c0,0 0,10.60783 0,13.24155c0,3.17867 -4.12625,7.33333 -7.33333,7.33333c-3.66164,0 -12.49803,0 -19,0c-4.35761,0 -7.66667,-4.15466 -7.66667,-7.33333z" fill="#000000" stroke="none" stroke-width="0" stroke-linecap="butt"/><text transform="translate(190.25,194.91973) scale(0.3625,0.3625)" font-size="40" xml:space="preserve" fill="#ababab" fill-rule="nonzero" stroke="none" stroke-width="1" stroke-linecap="butt" stroke-linejoin="miter" stroke-miterlimit="10" stroke-dasharray="" stroke-dashoffset="0" font-family="&quot;Microsoft YaHei&quot;, &quot;微软雅黑&quot;, STXihei, &quot;华文细黑&quot;" font-weight="normal" text-anchor="start" style="mix-blend-mode: normal"><tspan x="0" dy="0">任务</tspan></text></g></g></svg>