<svg version="1.1" xmlns="http://www.w3.org/2000/svg" xmlns:xlink="http://www.w3.org/1999/xlink" width="263.5" height="135" viewBox="0,0,263.5,135"><g transform="translate(-60.5,-112.5)"><g data-paper-data="{&quot;isPaintingLayer&quot;:true}" fill-rule="nonzero" stroke-linecap="butt" stroke-linejoin="miter" stroke-miterlimit="10" stroke-dasharray="" stroke-dashoffset="0" style="mix-blend-mode: normal"><path d="M193.032,152.34467l97.66667,29.66666l-74.66666,-1z" data-paper-data="{&quot;index&quot;:null}" fill="#a8aebb" stroke="none" stroke-width="0"/><path d="M193.36534,209.678v-57l23.33333,28.66667z" fill="#b7c5c5" stroke="none" stroke-width="0"/><path d="M216.36535,181.01133l74.66666,-1l-97.66667,29.66667z" fill="#abbbbb" stroke="none" stroke-width="0"/><path d="M284.69868,177.01133l7.33333,3.73684l-96.00001,29.26316z" fill="#7d1d10" stroke="none" stroke-width="0"/><path d="M193.69867,149.34465l96.00001,29.26317l-7.33333,3.73684z" data-paper-data="{&quot;index&quot;:null}" fill="#7d1d10" stroke="none" stroke-width="0"/><path d="M191.07393,208.01133c0,-9.50748 0,-37.29658 0,-56.33334c0,-1.29873 0.9788,-2.04157 2.32543,-1.64017c8.071,2.40578 85.04403,25.34967 99.3815,29.62334c1.48044,0.44128 1.38144,0.95524 -0.26949,1.44735c-14.91302,4.44522 -90.15144,26.87206 -98.71463,29.42455c-1.55951,0.46486 -2.72282,-0.3997 -2.72282,-2.52173z" fill="none" stroke="#000000" stroke-width="5.5"/><path d="M191.07393,208.01133c0,-9.50748 0,-37.29658 0,-56.33334c0,-1.29873 0.9788,-2.04157 2.32543,-1.64017c8.071,2.40578 85.04403,25.34967 99.3815,29.62334c1.48044,0.44128 1.38144,0.95524 -0.2695,1.44735c-14.91302,4.44523 -90.15144,26.87206 -98.71462,29.42455c-1.55951,0.46486 -2.72282,-0.3997 -2.72282,-2.52173z" fill="none" stroke="#dfdfdf" stroke-width="3.5"/><path d="M240,247.5c-46.39192,0 -84,-30.22078 -84,-67.5c0,-37.27922 37.60808,-67.5 84,-67.5c46.39192,0 84,30.22078 84,67.5c0,37.27922 -37.60808,67.5 -84,67.5z" fill="none" stroke="none" stroke-width="NaN"/><path d="M60.5,201.47222v0v0z" fill="none" stroke="none" stroke-width="0"/><text transform="translate(213.77608,187.56396) scale(0.6556,0.6556)" font-size="40" xml:space="preserve" fill="#ffffff" fill-rule="nonzero" stroke="#000000" stroke-width="1" stroke-linecap="butt" stroke-linejoin="miter" stroke-miterlimit="10" stroke-dasharray="" stroke-dashoffset="0" font-family="&quot;Microsoft YaHei&quot;, &quot;微软雅黑&quot;, STXihei, &quot;华文细黑&quot;" font-weight="normal" text-anchor="start" style="mix-blend-mode: normal"><tspan x="0" dy="0">开始</tspan></text></g></g></svg>