<svg version="1.1" xmlns="http://www.w3.org/2000/svg" xmlns:xlink="http://www.w3.org/1999/xlink" width="403.60254" height="26.5" viewBox="0,0,403.60254,26.5"><g transform="translate(-15.4109,-272.11844)"><g data-paper-data="{&quot;isPaintingLayer&quot;:true}" fill="#ffffff" fill-rule="nonzero" stroke="none" stroke-width="1" stroke-linecap="butt" stroke-linejoin="miter" stroke-miterlimit="10" stroke-dasharray="" stroke-dashoffset="0" style="mix-blend-mode: normal"><path d="M324.68602,290.98096c-0.46162,-0.3314 -0.83188,-0.7359 -1.11077,-1.2135c-0.26928,-0.48735 -0.40392,-1.00394 -0.40392,-1.54978c0,-0.55558 0.06732,-1.02344 0.20196,-1.40357c0.13464,-0.38988 0.31256,-0.7359 0.53375,-1.03806c0.3943,-0.54584 0.94728,-1.0137 1.65894,-1.40358c0.02885,-0.0195 0.0529,-0.03411 0.07213,-0.04386c0.02885,-0.00975 0.04328,-0.02924 0.04328,-0.05848c0,-0.02924 -0.06732,-0.07797 -0.20196,-0.14621c-0.12502,-0.06823 -0.31256,-0.18519 -0.5626,-0.35089c-0.25004,-0.1657 -0.47604,-0.36552 -0.678,-0.59945c-0.46162,-0.53609 -0.69243,-1.17452 -0.69243,-1.9153c0,-1.26711 0.5049,-2.22233 1.51469,-2.86563c0.83669,-0.53609 1.83205,-0.80413 2.98611,-0.80413c1.25983,0 2.29367,0.29729 3.10151,0.89186c0.89439,0.6433 1.34158,1.52053 1.34158,2.6317c0,1.23787 -0.452,2.22233 -1.35601,2.95335c-0.25966,0.20469 -0.47124,0.34602 -0.63473,0.424c-0.16349,0.07798 -0.24524,0.12671 -0.24524,0.1462c0,0.0195 0.10578,0.06822 0.31736,0.14621c0.21157,0.07798 0.46644,0.21444 0.76456,0.40938c0.29813,0.19494 0.55779,0.42887 0.77898,0.70179c0.50008,0.60432 0.75013,1.24275 0.75013,1.91529c0,0.67255 -0.13945,1.26224 -0.41834,1.76909c-0.26928,0.50684 -0.63473,0.93572 -1.09635,1.28661c-0.93285,0.74077 -2.0292,1.11117 -3.28904,1.11117c-1.33677,0 -2.46197,-0.3314 -3.37559,-0.9942zM325.42174,287.83754c0,0.35089 0.07213,0.6628 0.21639,0.93572c0.15387,0.26317 0.35583,0.48248 0.60587,0.65792c0.48085,0.3314 1.10596,0.4971 1.87534,0.4971c1.10596,0 1.8561,-0.38988 2.2504,-1.16964c0.13464,-0.25342 0.20195,-0.5507 0.20195,-0.89186c0,-0.34115 -0.09617,-0.64818 -0.28851,-0.92109c-0.18272,-0.27292 -0.42796,-0.50685 -0.73571,-0.70179c-0.50008,-0.3314 -1.22136,-0.62869 -2.16384,-0.89186c-0.47123,0.10722 -0.8992,0.37526 -1.28388,0.80413c-0.45201,0.4971 -0.678,1.05755 -0.678,1.68136zM330.23991,281.44835c0,-0.57508 -0.21639,-1.03318 -0.64916,-1.37433c-0.40392,-0.31191 -0.91362,-0.46786 -1.52912,-0.46786c-0.98094,0 -1.65894,0.3509 -2.034,1.05268c-0.12502,0.22418 -0.18754,0.4776 -0.18754,0.76027c0,0.28267 0.06252,0.53609 0.18754,0.76027c0.13464,0.22418 0.32218,0.43375 0.5626,0.62869c0.44238,0.37039 1.05787,0.68716 1.84647,0.95033c1.20213,-0.51659 1.80321,-1.28661 1.80321,-2.31005z"/><path d="M364.75525,291.65351c0.15387,-0.23393 0.29813,-0.35089 0.43277,-0.35089c0.14426,0 0.31256,0.06336 0.5049,0.19007c0.19234,0.12671 0.38468,0.23393 0.57702,0.32166c0.20196,0.08772 0.40391,0.16082 0.60587,0.2193c0.44238,0.11696 0.89438,0.17545 1.35601,0.17545c0.46162,0 0.89921,-0.10722 1.31274,-0.32166c0.42315,-0.21443 0.76936,-0.50684 1.03864,-0.87723c0.50008,-0.69204 0.78379,-1.657 0.85111,-2.89487c-0.56741,0.42887 -1.35601,0.71641 -2.3658,0.86262c-0.28851,0.03899 -0.64915,0.05848 -1.08192,0.05848c-0.43277,0 -0.91362,-0.10722 -1.44257,-0.32165c-0.52894,-0.21443 -0.98575,-0.52146 -1.37043,-0.92109c-0.8463,-0.86749 -1.26945,-2.0079 -1.26945,-3.42122c0,-1.34509 0.48085,-2.44651 1.44256,-3.30424c0.92324,-0.848 2.07248,-1.27199 3.44773,-1.27199c2.56776,0 4.12091,1.37921 4.65947,4.13762c0.17311,0.85774 0.25966,1.68624 0.25966,2.4855c0,0.78951 -0.03847,1.47667 -0.11541,2.0615c-0.06732,0.57508 -0.18753,1.1404 -0.36064,1.69599c-0.16349,0.55558 -0.38468,1.08192 -0.66358,1.57902c-0.2789,0.50684 -0.62992,0.95033 -1.05307,1.33047c-0.92324,0.81875 -2.09653,1.22813 -3.51985,1.22813c-0.904,0 -1.78878,-0.21931 -2.65431,-0.65793c-0.76936,-0.38013 -1.15405,-0.72615 -1.15405,-1.03806c0,-0.10722 0.03846,-0.20957 0.1154,-0.30704zM371.37661,286.22928c0,-2.91436 -0.904,-4.37155 -2.71202,-4.37155c-0.73089,0 -1.32716,0.22905 -1.78878,0.68716c-0.47123,0.48735 -0.70686,1.10629 -0.70686,1.85681c0,1.23787 0.48566,2.05176 1.45699,2.44164c0.32698,0.12671 0.70686,0.19007 1.13963,0.19007c1.08672,0 1.95707,-0.26804 2.61104,-0.80413z"/><path d="M247.73051,291.97516c-0.79822,0 -1.51469,-0.15108 -2.14941,-0.45324c-0.62511,-0.30216 -1.15405,-0.74077 -1.58683,-1.31585c-0.85592,-1.1404 -1.28388,-2.76328 -1.28388,-4.86865c0,-1.38408 0.10099,-2.46113 0.30295,-3.23114c0.20196,-0.77002 0.43276,-1.40845 0.69243,-1.9153c0.26928,-0.51659 0.6203,-0.96983 1.05307,-1.35971c0.92323,-0.82849 2.17827,-1.24275 3.76509,-1.24275c0.77898,0 1.55797,0.16083 2.33695,0.48248c0.48086,0.18519 0.79822,0.37526 0.95209,0.5702c0.16349,0.18519 0.24524,0.35089 0.24524,0.4971c0,0.14621 -0.06252,0.31678 -0.18754,0.51172l-0.21639,0.32165c-0.23081,0.35089 -0.43758,0.53121 -0.6203,0.54096c-0.18272,0.00975 -0.3895,-0.07798 -0.6203,-0.26317c-0.48086,-0.38013 -1.21657,-0.5702 -2.20712,-0.5702c-1.12519,0 -1.96669,0.48735 -2.52447,1.46206c-0.46162,0.80901 -0.70686,1.90068 -0.73571,3.27501c0.5674,-0.75052 1.42813,-1.21839 2.58218,-1.40357c0.29812,-0.04874 0.65396,-0.07311 1.06749,-0.07311c0.42315,0 0.89439,0.0926 1.41372,0.27779c0.51932,0.18519 0.9617,0.45324 1.32716,0.80413c0.79822,0.75052 1.19732,1.77396 1.19732,3.07032c0,1.33535 -0.40873,2.466 -1.22617,3.39197c-0.88477,0.9942 -2.07729,1.4913 -3.57755,1.4913zM250.28382,287.32582c0,-1.54003 -0.85112,-2.31005 -2.55333,-2.31005c-0.51932,0 -0.99056,0.10722 -1.41372,0.32166c-0.69243,0.35089 -1.12519,0.67255 -1.29831,0.96496v0.02924c0,1.18914 0.27409,2.09562 0.82226,2.71943c0.49047,0.57508 1.15405,0.86262 1.99074,0.86262c0.69243,0 1.26464,-0.22419 1.71664,-0.67255c0.49047,-0.4776 0.73571,-1.11604 0.73571,-1.91529z"/><path d="M205.23778,285.92224c0.63472,-0.44836 1.43775,-0.67254 2.40907,-0.67254c1.15405,0 2.11576,0.37039 2.88513,1.11116c0.82707,0.79926 1.2406,1.87631 1.2406,3.23114c0,1.42307 -0.48086,2.56348 -1.44257,3.42122c-0.94247,0.848 -2.20231,1.27199 -3.7795,1.27199c-1.20213,0 -2.26482,-0.25342 -3.18806,-0.76027c-0.38468,-0.20469 -0.76936,-0.51172 -1.15405,-0.9211c-0.19234,-0.20469 -0.17793,-0.46786 0.04328,-0.78951l0.40392,-0.57021c0.15387,-0.24367 0.30775,-0.36551 0.46162,-0.36551c0.15387,0 0.26447,0.03411 0.33179,0.10234c0.06732,0.05848 0.14907,0.12184 0.24524,0.19007c0.78859,0.67255 1.7984,1.00882 3.02938,1.00882c0.7309,0 1.34158,-0.21443 1.83205,-0.6433c0.52894,-0.45812 0.79342,-1.10142 0.79342,-1.92991c0,-0.74077 -0.24524,-1.34509 -0.73571,-1.81295c-0.452,-0.43862 -0.96652,-0.65792 -1.54354,-0.65792c-0.80783,0 -1.47622,0.22418 -2.00516,0.67254c-0.24042,0.20469 -0.5097,0.30703 -0.80783,0.30703c-0.07694,0 -0.15387,-0.00487 -0.23081,-0.01462c-0.06732,-0.0195 -0.16349,-0.03411 -0.28851,-0.04386c-0.12502,-0.0195 -0.23563,-0.03899 -0.3318,-0.05849c-0.09617,-0.02924 -0.17311,-0.06823 -0.23081,-0.11696c-0.09617,-0.07798 -0.14426,-0.2388 -0.14426,-0.48247v-6.28685c0,-0.38988 0.04809,-0.6433 0.14426,-0.76027c0.15387,-0.19494 0.40873,-0.29241 0.76456,-0.29241h6.31842c0.2212,0 0.38468,0.02925 0.49047,0.08773c0.1154,0.05848 0.1731,0.19494 0.1731,0.40938v0.95033c0,0.23393 -0.02405,0.38501 -0.07213,0.45324c-0.07694,0.12671 -0.25485,0.19007 -0.53375,0.19007h-5.07782z"/><path d="M175.38553,288.84636c0.38468,0 0.57702,0.17545 0.57702,0.52634v0.52634c0,0.18519 -0.04809,0.32165 -0.14426,0.40938c-0.08656,0.08772 -0.24042,0.15595 -0.46161,0.20469l-1.39928,0.27779v2.64632c0,0.18519 -0.0529,0.3314 -0.15869,0.43862c-0.10579,0.11696 -0.24043,0.17545 -0.40392,0.17545h-1.13962c-0.18272,0 -0.32218,-0.06336 -0.41834,-0.19007c-0.09617,-0.12671 -0.14426,-0.28754 -0.14426,-0.48248v-2.57322h-4.77487c-0.42315,0 -0.76456,-0.11697 -1.02422,-0.3509c-0.25004,-0.23393 -0.37506,-0.53609 -0.37506,-0.90648c0,-0.26317 0.08656,-0.6238 0.25966,-1.08192l0.63472,-1.76909c0.87515,-2.4855 1.50026,-4.63959 1.87533,-6.46229c0.10579,-0.46786 0.36064,-0.70179 0.76456,-0.70179c0.25004,0 0.62511,0.07798 1.1252,0.23393c0.3943,0.13646 0.54818,0.43862 0.46162,0.90648c-0.13464,0.77002 -0.3943,1.72035 -0.77898,2.85101c-0.89439,2.57322 -1.55316,4.34718 -1.97631,5.32189h3.80836v-3.65514c0,-0.22418 0.07694,-0.39475 0.23081,-0.51172c0.15387,-0.11696 0.33179,-0.17545 0.53375,-0.17545h0.80783c0.25004,0 0.42796,0.0731 0.53375,0.21931c0.10579,0.13646 0.15869,0.28753 0.15869,0.45324v3.66976z"/><path d="M284.29427,282.23787c-0.63472,0 -0.95209,-0.27779 -0.95209,-0.83337v-0.71641c0,-0.20469 0.03366,-0.36552 0.10099,-0.48248c0.07694,-0.11696 0.24042,-0.17544 0.49047,-0.17544h7.25609c0.24042,0 0.42796,0.0926 0.5626,0.27779c0.14426,0.17545 0.21639,0.38501 0.21639,0.62869c0,0.23393 -0.07694,0.60431 -0.23081,1.11116c-0.79822,2.38803 -1.26464,3.76723 -1.39928,4.13762l-0.30294,0.87724c-0.9617,2.59271 -1.83687,4.44465 -2.62547,5.55581c-0.79822,1.11117 -1.47622,1.66674 -2.03401,1.66674c-0.25004,0 -0.46162,-0.10722 -0.63472,-0.32166l-0.43277,-0.4971c-0.12502,-0.13646 -0.18754,-0.28266 -0.18754,-0.43861c0,-0.24367 0.13464,-0.46785 0.40392,-0.67255c0.2789,-0.19494 0.55779,-0.45811 0.83668,-0.78951c0.28851,-0.3314 0.57703,-0.72615 0.86554,-1.18426c0.56741,-0.92597 1.11077,-2.12973 1.63009,-3.61128l0.76456,-2.16384c0.2789,-0.79926 0.50971,-1.58877 0.69243,-2.36853z"/><path d=""/><path d="M408.2375,285.86377c0,-0.89673 0.11541,-1.72035 0.34622,-2.47087c0.24042,-0.75052 0.58664,-1.38896 1.03865,-1.9153c0.9617,-1.12091 2.29367,-1.68137 3.99589,-1.68137c1.70222,0 3.02938,0.56046 3.98147,1.68137c0.94248,1.08192 1.41371,2.55372 1.41371,4.41541c0,1.81295 -0.50008,3.27988 -1.50026,4.40079c-0.99055,1.12091 -2.3081,1.68137 -3.95262,1.68137c-1.61566,0 -2.91397,-0.57508 -3.89491,-1.72523c-0.95209,-1.11117 -1.42814,-2.57322 -1.42814,-4.38617zM412.21897,289.60663c0.37506,0.25342 0.83668,0.38013 1.38486,0.38013c0.55778,0 1.02422,-0.11209 1.39929,-0.33628c0.37506,-0.23393 0.678,-0.54096 0.90881,-0.92109c0.43277,-0.71154 0.64916,-1.65213 0.64916,-2.82177c0,-1.89093 -0.52894,-3.16291 -1.58682,-3.81597c-0.37506,-0.22418 -0.83668,-0.33628 -1.38485,-0.33628c-0.53856,0 -0.99537,0.11697 -1.37044,0.3509c-0.36545,0.22418 -0.65877,0.52634 -0.87996,0.90648c-0.43277,0.71154 -0.64916,1.67162 -0.64916,2.88025c0,1.79345 0.5097,3.03133 1.52911,3.71362z"/><path d="M402.38267,282.55951c-0.40392,0.25342 -0.81745,0.424 -1.2406,0.51172c-0.42315,0.07798 -0.70686,0.11696 -0.85112,0.11696c-0.13464,0 -0.24042,-0.01462 -0.31736,-0.04386c-0.06732,-0.03899 -0.12983,-0.08285 -0.18753,-0.13158c-0.0577,-0.08772 -0.1202,-0.24368 -0.18754,-0.46786c-0.0577,-0.22418 -0.08655,-0.41425 -0.08655,-0.5702c0,-0.1657 0.0529,-0.29728 0.15868,-0.39475c0.10579,-0.10722 0.29813,-0.19007 0.57703,-0.24855c0.8367,-0.17545 1.40891,-0.34602 1.71666,-0.51172c0.30775,-0.17545 0.53375,-0.31678 0.678,-0.42399c0.14426,-0.10722 0.2789,-0.19981 0.40392,-0.27779c0.25966,-0.15595 0.52413,-0.23392 0.79341,-0.23392c0.26928,0 0.48566,0.08284 0.64915,0.24854c0.16349,0.1657 0.24523,0.4045 0.24523,0.71641v10.26364c0,0.1657 -0.0529,0.31191 -0.15868,0.43862c-0.09617,0.11696 -0.21639,0.17544 -0.36065,0.17544h-1.34158c-0.14426,0 -0.26447,-0.05848 -0.36064,-0.17544c-0.08655,-0.12671 -0.12984,-0.27292 -0.12984,-0.43862z"/><text transform="translate(15.6609,293.36844) scale(0.5,0.5)" font-size="40" xml:space="preserve" fill="#ffffff" fill-rule="nonzero" stroke="none" stroke-width="1" stroke-linecap="butt" stroke-linejoin="miter" stroke-miterlimit="10" stroke-dasharray="" stroke-dashoffset="0" font-family="&quot;Microsoft YaHei&quot;, &quot;微软雅黑&quot;, STXihei, &quot;华文细黑&quot;" font-weight="normal" text-anchor="start" style="mix-blend-mode: normal"><tspan x="0" dy="0">最大玩家限制</tspan></text></g></g></svg>