<svg version="1.1" xmlns="http://www.w3.org/2000/svg" xmlns:xlink="http://www.w3.org/1999/xlink" width="73.27781" height="89.73714" viewBox="0,0,73.27781,89.73714"><g transform="translate(-204.16389,-133.76286)"><g data-paper-data="{&quot;isPaintingLayer&quot;:true}" fill-rule="nonzero" stroke-linecap="butt" stroke-linejoin="miter" stroke-miterlimit="10" stroke-dasharray="" stroke-dashoffset="0" style="mix-blend-mode: normal"><path d="" fill="#000000" stroke="none" stroke-width="1"/><path d="" fill="#000000" stroke="none" stroke-width="1"/><path d="" fill="#000000" stroke="none" stroke-width="1"/><path d="" fill="#000000" stroke="none" stroke-width="1"/><path d="" fill="#000000" stroke="none" stroke-width="1"/><path d="M256.4911,160.59168c0,0 -8.0265,1.06448 -12.02312,-0.23522c-5.17594,-1.68321 -17.06097,-8.37292 -17.06097,-8.37292c0,0 1.1016,-1.84767 6.1668,-4.81629c2.17868,-1.27688 5.67449,-2.43436 8.44139,-3.9107c4.57389,-2.4405 8.26727,-5.0855 8.91549,-5.6679c1.00044,-0.89887 1.55523,-0.28229 1.58502,0.36192c0.03333,0.721 0.25524,1.54902 0.25524,1.54902c0,0 6.71031,-1.31261 12.47664,-1.84964c2.22957,-0.20764 4.31802,-0.29933 5.82288,-0.15437c0.93302,0.08989 2.75764,0.20436 0.39776,1.86858c-1.8757,1.32277 -3.65863,0.42847 -9.7167,4.79292c-1.64197,1.18294 -1.35584,2.3229 -2.79838,3.678c-0.23935,0.22485 2.63902,-2.1433 5.32634,-4.13226c3.2392,-2.39742 -1.38284,2.95487 -4.83039,8.39803c-1.65901,2.61936 -2.958,8.49082 -2.958,8.49082z" fill="#c92200" stroke="#000000" stroke-width="7.5"/><path d="M255.94385,160.59758c0,0 -7.87209,1.04918 -11.7918,-0.23183c-5.07634,-1.65902 -15.33389,-8.24333 -15.33389,-8.24333c0,0 1.3671,-3.16214 10.31938,-7.04751c5.65532,-2.45447 9.43842,-5.42103 11.35289,-7.14966c0.98119,-0.88596 1.52532,-0.27825 1.55451,0.35672c0.03269,0.71063 0.25034,1.52676 0.25034,1.52676c0,0 12.65439,-2.48763 17.94744,-1.9752c0.91508,0.08859 -9.29593,8.07837 -6.66032,6.118c3.17687,-2.36294 -1.35623,2.9124 -4.73745,8.2773c-1.6271,2.58169 -2.9011,8.36875 -2.9011,8.36875z" fill="#c92200" stroke="#000000" stroke-width="7.5"/><path d="M265.41436,188.4742c-1.4177,-4.80797 -7.64272,-25.91933 -7.64272,-25.91933c0,0 1.52138,-7.12869 4.95676,-12.24941c2.72058,-4.05523 6.34501,-6.08283 8.45704,-6.98347c1.0543,-0.4496 1.48661,0.0299 1.12516,1.09246c-0.37538,1.10351 -2.45863,4.48253 -2.50323,11.42985c-0.03118,4.85847 0.60835,9.88633 1.21156,16.03465c0.16473,1.67907 0.41865,-2.97474 1.17782,-6.29069c0.23227,-1.01449 1.01228,-2.32061 1.35284,-2.86348c0.34921,-0.55666 0.20605,0.48874 0.149,1.4284c-0.09163,1.50917 0.64089,4.55188 0.58067,11.6939c0.03556,6.77439 -2.37341,11.11867 -4.51082,13.63607c-1.69443,1.99565 -3.80753,0.8446 -4.35409,-1.00893z" fill="#c92200" stroke="#000000" stroke-width="7.5"/><path d="M213.98679,188.74666c0,0 -7.32213,-7.30682 -5.88632,-27.48379c0.73443,-10.32072 9.88704,-15.10245 11.14349,-16.12115c0.94334,-0.76481 1.22776,0.06147 0.6261,1.29332c-1.00762,2.06299 -2.4511,5.01838 -2.96442,6.06936c-0.36231,0.74181 -0.053,0.60759 1.12099,-0.79113c2.3699,-2.82354 6.54643,-7.28459 10.16623,-8.48843c6.95422,-2.31281 17.07449,-3.61252 17.07449,-3.61252z" fill="#c92200" stroke="#000000" stroke-width="7.5"/><path d="M213.98678,188.74666c0,0 -3.35656,-11.54682 -4.15286,-14.28623c-0.32152,-1.10607 -0.76279,-3.09958 -0.83491,-4.3601c-0.19405,-3.39135 -0.28938,-10.32896 1.65002,-15.3465c1.07913,-2.79188 5.99591,-7.50491 8.59493,-9.6121c0.94334,-0.76481 1.22776,0.06147 0.6261,1.29332c-1.00762,2.06299 -2.4511,5.01838 -2.96443,6.06936c-0.36232,0.74181 -0.053,0.60759 1.121,-0.79114c2.3699,-2.82354 6.54643,-7.28458 10.16623,-8.48843c6.95422,-2.31281 17.07449,-3.61253 17.07449,-3.61253z" fill="#c92200" stroke="#000000" stroke-width="2.5"/><path d="M213.98679,188.74666c0,0 -7.32213,-7.30682 -5.88632,-27.48379c0.73443,-10.32072 9.88704,-15.10245 11.14349,-16.12115c0.94334,-0.76481 1.22776,0.06147 0.6261,1.29332c-1.00762,2.06299 -2.4511,5.01838 -2.96442,6.06936c-0.36231,0.74181 -0.053,0.60759 1.12099,-0.79113c2.3699,-2.82354 6.54643,-7.28459 10.16623,-8.48843c6.95422,-2.31281 17.07449,-3.61252 17.07449,-3.61252z" fill="#c92200" stroke="#ffffff" stroke-width="4"/><path d="M213.98679,188.74666c0,0 -7.32213,-7.30682 -5.88632,-27.48379c0.73443,-10.32072 9.88704,-15.10245 11.14349,-16.12115c0.94334,-0.76481 1.22776,0.06147 0.6261,1.29332c-1.00762,2.06299 -2.4511,5.01838 -2.96442,6.06936c-0.36231,0.74181 -0.053,0.60759 1.12099,-0.79113c2.3699,-2.82354 6.54643,-7.28459 10.16623,-8.48843c6.95422,-2.31281 17.07449,-3.61252 17.07449,-3.61252z" fill="#c92200" stroke="none" stroke-width="0"/><path d="M256.49111,160.59168c0,0 -8.0265,1.06448 -12.02312,-0.23522c-5.17594,-1.68321 -17.06096,-8.37292 -17.06096,-8.37292c0,0 1.1016,-1.84767 6.1668,-4.81629c2.17868,-1.27688 5.67449,-2.43436 8.44139,-3.9107c4.57389,-2.4405 8.26727,-5.0855 8.91549,-5.6679c1.00044,-0.89887 1.55521,-0.28229 1.58501,0.36192c0.03333,0.721 0.25525,1.54902 0.25525,1.54902c0,0 6.7103,-1.31261 12.47664,-1.84964c2.22957,-0.20764 4.31802,-0.29933 5.82288,-0.15437c0.93302,0.08989 2.75764,0.20436 0.39776,1.86858c-1.8757,1.32277 -3.65863,0.42847 -9.7167,4.79292c-1.64197,1.18294 -1.35584,2.3229 -2.79838,3.678c-0.23935,0.22485 2.63902,-2.1433 5.32634,-4.13226c3.2392,-2.39742 -1.38283,2.95487 -4.83038,8.39803c-1.65901,2.61936 -2.958,8.49082 -2.958,8.49082z" fill="#c92200" stroke="#ffffff" stroke-width="3.5"/><path d="M255.94388,160.59754c0,0 -7.87209,1.04918 -11.7918,-0.23183c-5.07634,-1.65902 -15.33389,-8.24333 -15.33389,-8.24333c0,0 1.3671,-3.16214 10.31937,-7.04752c5.65532,-2.45447 9.43842,-5.42103 11.35288,-7.14966c0.98119,-0.88596 1.52532,-0.27823 1.55451,0.35672c0.03269,0.71063 0.25034,1.52675 0.25034,1.52675c0,0 12.65439,-2.48763 17.94744,-1.9752c0.91508,0.08859 2.70458,0.20142 0.39011,1.84172c-1.83962,1.30375 -3.58825,0.42231 -9.52975,4.72401c-1.61038,1.16593 -1.32976,2.28951 -2.74454,3.62512c-0.23476,0.22162 2.58826,-2.11249 5.22387,-4.07285c3.17687,-2.36294 5.77127,-2.10231 5.77127,-2.10231c0,0 -7.12751,5.01471 -10.50872,10.37961c-1.6271,2.58169 -2.90109,8.36875 -2.90109,8.36875z" fill="#c92200" stroke="none" stroke-width="0"/><path d="M262.7284,150.30546c2.02221,-3.01426 4.13534,-5.72515 6.16401,-6.86876c0.70062,-0.39494 1.75088,0.11649 2.29303,-0.11471c1.0543,-0.4496 1.74318,-0.0984 1.38173,0.96417c-0.37538,1.10351 -2.58691,4.61083 -2.63151,11.55814c-0.03118,4.85847 0.48005,9.88631 1.08326,16.03464c0.16473,1.67907 0.41866,-2.97474 1.17783,-6.29069c0.23227,-1.01449 1.14055,-3.60348 1.48112,-4.14636c0.28198,-0.4495 1.0794,-0.0217 1.00821,1.53248c-0.01698,0.37055 -0.22012,2.47477 -0.17241,3.43113c0.10634,2.13237 0.32028,5.53724 0.27872,10.46786c0.03858,7.35044 -2.98872,11.79292 -5.38489,14.1549c-1.56289,1.5406 -3.42229,0.2221 -3.95222,-1.62925c-1.40377,-4.90433 -7.68364,-26.84414 -7.68364,-26.84414c0,0 1.52138,-7.12868 4.95676,-12.2494z" fill="#c92200" stroke="#ffffff" stroke-width="3.5"/><path d="M266.55022,192.32635l-8.77858,-29.77148c0,0 1.52138,-7.12869 4.95676,-12.24941c2.72058,-4.05523 6.34501,-6.08283 8.45704,-6.98347c1.0543,-0.4496 1.48661,0.0299 1.12516,1.09246c-0.37538,1.10351 -2.45863,4.48253 -2.50323,11.42985c-0.03118,4.85847 0.60835,9.88633 1.21156,16.03465c0.16473,1.67907 0.41865,-2.97474 1.17782,-6.29069c0.23227,-1.01449 1.01226,-2.32061 1.35283,-2.86348c0.34921,-0.55666 0.20605,0.48874 0.149,1.4284c-0.09163,1.50917 0.64089,4.55188 0.58067,11.6939c0.06375,12.14475 -7.72902,16.47929 -7.72902,16.47929z" fill="#c92200" stroke="none" stroke-width="0"/><g stroke="#000000" stroke-width="5"><path d="M243.50256,163.51835c0,0 4.42479,-4.00997 5.83543,-5.28836c0.8025,-0.72726 2.15574,-1.11072 2.99474,-0.4725c4.88171,3.71353 15.24779,21.58015 16.16319,28.65778c1.66161,12.84715 -6.64891,19.58495 -6.64891,19.58495z" fill="#373948"/><path d="M208.32736,211.45896c0,0 0.73153,-7.68634 -0.41402,-18.68152c-1.3623,-13.07547 -4.25075,-31.35492 9.19561,-36.4586c35.91333,-13.6312 50.03455,54.32323 50.03455,54.32323z" fill="#36394c"/><path d="M218.05964,211.45896c0,0 0.51906,-6.80428 -0.29376,-16.53766c-0.62813,-7.52192 -10.03698,-19.06274 -7.77462,-27.39877c1.66129,-6.12132 5.45638,-8.43611 8.50501,-10.08502c3.6969,-1.99955 9.9057,-1.98767 11.8568,-1.71685c22.42763,3.1129 29.43842,55.01518 29.43842,55.01518z" fill="#505b5f"/><path d="M213.25366,183.25627c-0.86773,-2.46811 -1.65875,-4.97295 -1.65875,-5.9025c0,-1.20307 1.65771,-2.8303 3.87711,-2.92909c2.67793,-0.11921 6.17359,-0.42422 8.56161,-1.18985c2.90488,-0.93133 7.94639,-3.66282 11.20513,-5.51199c1.83832,-1.04316 3.65801,-0.34945 4.35645,1.50412c0.8927,2.36906 2.03004,5.38741 2.5792,6.84483c0.60948,1.61747 0.52686,4.59234 -0.95238,5.51384c-3.22728,2.01049 -8.94227,5.28734 -12.6382,5.7864c-4.01879,0.54265 -6.80553,0.92428 -8.73792,1.1926c-4.36354,0.60589 -5.53813,-2.31006 -6.59226,-5.30836z" fill="#9a9ea9"/><path d="M213.25366,183.25627c-0.86774,-2.46811 -1.65874,-4.97295 -1.65874,-5.9025c0,-1.20307 1.65773,-2.8303 3.87712,-2.92909c2.67793,-0.11921 6.17358,-0.42422 8.56162,-1.18985c2.90488,-0.93133 7.94639,-3.66284 11.20513,-5.51199c1.83834,-1.04316 3.65798,-0.34944 4.35644,1.50414c0.8927,2.36906 2.03004,5.38741 2.5792,6.84483c0.60948,1.61747 0.52686,4.59234 -0.95238,5.51385c-3.22728,2.01049 -8.94227,5.28733 -12.63819,5.78639c-4.0188,0.54265 -6.80553,0.92428 -8.73793,1.19259c-4.36354,0.60589 -5.53813,-2.31006 -6.59226,-5.30836z" fill="#9a9ea9"/></g><g><path d="M243.50257,163.51835c0,0 4.42479,-4.00997 5.83543,-5.28836c0.8025,-0.72726 2.15574,-1.11072 2.99473,-0.4725c4.88171,3.71353 15.24779,21.58015 16.16319,28.65778c1.66161,12.84715 -6.64891,19.58495 -6.64891,19.58495z" fill="#373948" stroke="none" stroke-width="0"/><path d="M208.32737,211.45896c0,0 0.73154,-7.68634 -0.41402,-18.68152c-1.3623,-13.07547 -4.25075,-31.35492 9.19561,-36.4586c35.91333,-13.6312 50.03455,54.32323 50.03455,54.32323z" fill="#36394c" stroke="none" stroke-width="0"/><path d="M218.05965,211.45894c0,0 0.51906,-6.80428 -0.29376,-16.53766c-0.62813,-7.52192 -10.03698,-19.06274 -7.77462,-27.39877c1.66129,-6.12132 5.45638,-8.43612 8.50501,-10.08503c3.6969,-1.99955 9.9057,-1.98767 11.8568,-1.71685c22.42763,3.1129 29.43842,55.01518 29.43842,55.01518z" fill="#505b5f" stroke="none" stroke-width="0"/><path d="M213.25368,183.25626c-0.86773,-2.46811 -1.65875,-4.97295 -1.65875,-5.9025c0,-1.20307 1.65773,-2.8303 3.87712,-2.92909c2.67793,-0.11921 6.17359,-0.42422 8.56161,-1.18985c2.90488,-0.93133 7.94639,-3.66282 11.20513,-5.51199c1.83832,-1.04316 3.65801,-0.34945 4.35645,1.50412c0.8927,2.36906 2.03004,5.38741 2.5792,6.84483c0.60948,1.61747 0.52686,4.59234 -0.95238,5.51385c-3.22728,2.01049 -8.94227,5.28733 -12.6382,5.78639c-4.01879,0.54265 -6.80553,0.92428 -8.73792,1.1926c-4.36354,0.60589 -5.53813,-2.31006 -6.59226,-5.30836z" fill="#9a9ea9" stroke="#35394b" stroke-width="5"/><path d="M213.25368,183.25626c-0.86774,-2.46811 -1.65874,-4.97295 -1.65874,-5.9025c0,-1.20307 1.65773,-2.8303 3.87712,-2.92909c2.67793,-0.11921 6.17358,-0.42422 8.56161,-1.18985c2.90488,-0.93133 7.94638,-3.66284 11.20513,-5.51199c1.83834,-1.04316 3.65799,-0.34944 4.35644,1.50414c0.8927,2.36906 2.03004,5.38741 2.57922,6.84483c0.60948,1.61747 0.52686,4.59234 -0.95238,5.51384c-3.22728,2.01049 -8.94227,5.28734 -12.63819,5.7864c-4.0188,0.54265 -6.80553,0.92428 -8.73793,1.19259c-4.36354,0.60589 -5.53813,-2.31006 -6.59226,-5.30835z" fill="#9a9ea9" stroke="none" stroke-width="0"/></g><text transform="translate(214.51563,218.25) scale(0.5,0.5)" font-size="40" xml:space="preserve" fill="#000000" fill-rule="nonzero" stroke="#ffffff" stroke-width="1" stroke-linecap="butt" stroke-linejoin="miter" stroke-miterlimit="10" stroke-dasharray="" stroke-dashoffset="0" font-family="&quot;Microsoft YaHei&quot;, &quot;微软雅黑&quot;, STXihei, &quot;华文细黑&quot;" font-weight="normal" text-anchor="start" style="mix-blend-mode: normal"><tspan x="0" dy="0">破坏</tspan></text></g></g></svg>