<svg version="1.1" xmlns="http://www.w3.org/2000/svg" xmlns:xlink="http://www.w3.org/1999/xlink" width="174.96948" height="109.31526" viewBox="0,0,174.96948,109.31526"><g transform="translate(-152.51526,-90)"><g data-paper-data="{&quot;isPaintingLayer&quot;:true}" fill-rule="nonzero" stroke-linejoin="miter" stroke-miterlimit="10" stroke-dasharray="" stroke-dashoffset="0" style="mix-blend-mode: normal"><path d="M157.76526,191.29184c0,-6.09093 0,-20.31716 0,-23.11191c0,-0.91205 1.06396,-2.24516 2.60525,-2.24516c4.86981,0 31.84321,0 62.41757,0c39.3813,0 84.73687,0 96.5271,0c1.89192,0 2.91956,1.30927 2.91956,2.64136c0,3.14265 0,16.21313 0,22.3195c0,1.93416 -1.18202,3.16963 -3.34454,3.16963c-22.17519,0 -147.45029,0 -158.51969,0c-1.54129,0 -2.60525,-1.06771 -2.60525,-2.77343z" fill="#000000" stroke="#000000" stroke-width="10.5" stroke-linecap="butt"/><path d="M157.76527,191.29184c0,-6.09093 0,-20.31716 0,-23.11191c0,-0.91205 1.06396,-2.24516 2.60525,-2.24516c11.14236,0 138.0009,0 158.94466,0c1.89192,0 2.91956,1.30927 2.91956,2.64136c0,3.14265 0,16.21313 0,22.3195c0,1.93416 -1.18202,3.16963 -3.34454,3.16963c-22.17519,0 -147.45029,0 -158.51969,0c-1.54129,0 -2.60525,-1.06771 -2.60525,-2.77343z" fill="#000000" stroke="#00f000" stroke-width="5.5" stroke-linecap="butt"/><path d="M157.76527,191.29184c0,-6.09093 0,-20.31716 0,-23.11191c0,-0.91205 1.06396,-2.24516 2.60525,-2.24516c11.14236,0 138.0009,0 158.94466,0c1.89192,0 2.91956,1.30927 2.91956,2.64136c0,3.14265 0,16.21313 0,22.3195c0,1.93416 -1.18202,3.16963 -3.34454,3.16963c-22.17519,0 -147.45029,0 -158.51969,0c-1.54129,0 -2.60525,-1.06771 -2.60525,-2.77343z" fill="#000000" stroke="none" stroke-width="0" stroke-linecap="butt"/><g fill="none" stroke="#00f000" stroke-width="2.5" stroke-linecap="round"><path d="M176.12889,174.37596v11.16629"/><path d="M170.54575,179.9591h11.16629"/></g><text transform="translate(193.26562,186.25) scale(0.5,0.5)" font-size="40" xml:space="preserve" fill="#f0f0f0" fill-rule="nonzero" stroke="#00ff21" stroke-width="1" stroke-linecap="butt" stroke-linejoin="miter" stroke-miterlimit="10" stroke-dasharray="" stroke-dashoffset="0" font-family="&quot;Microsoft YaHei&quot;, &quot;微软雅黑&quot;, STXihei, &quot;华文细黑&quot;" font-weight="normal" text-anchor="start" style="mix-blend-mode: normal"><tspan x="0" dy="0">创建房间</tspan></text><text transform="translate(165.26563,111.25) scale(0.5,0.5)" font-size="40" xml:space="preserve" fill="#f3f3f3" fill-rule="nonzero" stroke="none" stroke-width="1" stroke-linecap="butt" stroke-linejoin="miter" stroke-miterlimit="10" stroke-dasharray="" stroke-dashoffset="0" font-family="&quot;Microsoft YaHei&quot;, &quot;微软雅黑&quot;, STXihei, &quot;华文细黑&quot;" font-weight="normal" text-anchor="start" style="mix-blend-mode: normal"><tspan x="0" dy="0">没有找到游戏。</tspan></text></g></g></svg>