<svg version="1.1" xmlns="http://www.w3.org/2000/svg" xmlns:xlink="http://www.w3.org/1999/xlink" width="402" height="86" viewBox="0,0,402,86"><g transform="translate(-39.05471,-182.01397)"><g data-paper-data="{&quot;isPaintingLayer&quot;:true}" fill-rule="nonzero" stroke-linecap="butt" stroke-linejoin="miter" stroke-miterlimit="10" stroke-dasharray="" stroke-dashoffset="0" style="mix-blend-mode: normal"><path d="M46.55471,253.51397c0,-15.37321 0,-51.27953 0,-58.33333c0,-2.30199 2.50351,-5.66667 6.13021,-5.66667c11.45875,0 74.92771,0 146.86979,0c92.66502,0 199.38757,0 227.13021,0c4.45172,0 6.86979,3.30453 6.86979,6.66667c0,7.9319 0,40.92113 0,56.33333c0,4.88172 -2.78134,8 -7.86979,8c-52.17866,0 -346.95349,0 -373,0c-3.6267,0 -6.13021,-2.69486 -6.13021,-7z" fill="#000000" stroke="#000000" stroke-width="15"/><path d="M46.55471,253.51397c0,-15.37321 0,-51.27953 0,-58.33333c0,-2.30199 2.50351,-5.66667 6.13021,-5.66667c26.21819,0 324.71888,0 374,0c4.45172,0 6.86979,3.30453 6.86979,6.66667c0,7.9319 0,40.92113 0,56.33333c0,4.88172 -2.78134,8 -7.86979,8c-52.17866,0 -346.95349,0 -373,0c-3.6267,0 -6.13021,-2.69486 -6.13021,-7z" fill="#000000" stroke="#00f000" stroke-width="7"/><path d="M46.55471,253.51397c0,-15.37321 0,-51.27953 0,-58.33333c0,-2.30199 2.50351,-5.66667 6.13021,-5.66667c26.21819,0 324.71888,0 374,0c4.45172,0 6.86979,3.30453 6.86979,6.66667c0,7.9319 0,40.92113 0,56.33333c0,4.88172 -2.78134,8 -7.86979,8c-52.17866,0 -346.95349,0 -373,0c-3.6267,0 -6.13021,-2.69486 -6.13021,-7z" fill="#000000" stroke="none" stroke-width="0"/><text transform="translate(152.25983,239.66667) scale(1.10672,1.10672)" font-size="40" xml:space="preserve" fill="#00f000" fill-rule="nonzero" stroke="none" stroke-width="1" stroke-linecap="butt" stroke-linejoin="miter" stroke-miterlimit="10" stroke-dasharray="" stroke-dashoffset="0" font-family="&quot;Microsoft YaHei&quot;, &quot;微软雅黑&quot;, STXihei, &quot;华文细黑&quot;" font-weight="normal" text-anchor="start" style="mix-blend-mode: normal"><tspan x="0" dy="0">联机游戏</tspan></text></g></g></svg>