<svg version="1.1" xmlns="http://www.w3.org/2000/svg" xmlns:xlink="http://www.w3.org/1999/xlink" width="347.76824" height="359.5"><defs><linearGradient x1="372.68778" y1="305.68968" x2="372.68778" y2="315.97539" gradientUnits="userSpaceOnUse" id="color-1"><stop offset="0" stop-color="#801a00"/><stop offset="1" stop-color="#701800"/></linearGradient><linearGradient x1="372.68778" y1="283.43968" x2="372.68778" y2="293.72539" gradientUnits="userSpaceOnUse" id="color-2"><stop offset="0" stop-color="#801a00"/><stop offset="1" stop-color="#701800"/></linearGradient></defs><g transform="translate(-117.75,-0.25)"><g data-paper-data="{&quot;isPaintingLayer&quot;:true}" fill="none" fill-rule="nonzero" stroke="none" stroke-width="none" stroke-linecap="none" stroke-linejoin="miter" stroke-miterlimit="10" stroke-dasharray="" stroke-dashoffset="0" font-family="none" font-weight="none" font-size="none" text-anchor="none" style="mix-blend-mode: normal"><g><path d="M358.75921,315.97539v-10.28571h27.85714v10.28571z" fill="url(#color-1)" stroke="#420806" stroke-width="3" stroke-linecap="butt"/><path d="M360.04492,306.97539l19.42857,0.03175" fill="none" stroke="#aa3300" stroke-width="4.5" stroke-linecap="round"/><path d="M359.31476,315.43571v-2.44444h27v2.44444z" fill="#aa3300" stroke="none" stroke-width="0" stroke-linecap="butt"/><path d="M358.75921,315.97539v-10.28571h27.85715v10.28571z" fill="none" stroke="#420806" stroke-width="3" stroke-linecap="butt"/></g><g><path d="M358.75921,293.72539v-10.28571h27.85714v10.28571z" fill="url(#color-2)" stroke="#420806" stroke-width="3" stroke-linecap="butt"/><path d="M379.47349,284.75714l-19.42857,-0.03175" fill="none" stroke="#aa3300" stroke-width="4.5" stroke-linecap="round"/><path d="M359.31476,293.18571v-2.44444h27v2.44444z" fill="#aa3300" stroke="none" stroke-width="0" stroke-linecap="butt"/><path d="M358.75921,293.72539v-10.28571h27.85715v10.28571z" fill="none" stroke="#420806" stroke-width="3" stroke-linecap="butt"/></g><path d="M164.28708,322.26975v-37h185.5v37z" fill="#3e3e3e" stroke="none" stroke-width="0" stroke-linecap="butt"/><path d="M120,357.5v-355h240v355zM145.32346,17.7491c-9.92278,1.24035 -8.68243,11.16313 -8.68243,11.16313c0.9963,7.80213 3.38411,15.36286 5.00755,23.05898c0.80503,3.81634 -0.08477,7.80035 -0.08477,11.70067c0,10.33334 0,20.66666 0,31c0,1.15895 -0.02133,8.77208 0.08477,9.29933c1.02083,5.07304 3.08121,9.90749 4,15c0.86367,4.787 -0.10937,10.77184 -0.08477,15.70067c0.01644,3.29298 0.83777,6.53763 1.03407,9.8248c0.3214,5.38216 -0.03407,10.78345 -0.03407,16.1752c0,1.44976 -0.03073,8.85589 0.12912,9.60182c0.66262,3.09207 2.59796,5.86338 3,9c1.0911,8.5126 -0.91499,17.38302 -0.11382,25.95119c0.56203,6.01071 1.49082,11.98459 2,18c0.2133,2.51996 0.16486,5.06186 0.07259,7.6077c-0.64239,-0.10432 -1.33694,-0.16071 -2.08789,-0.16071c-10,0 -10,10 -10,10c0,2.33334 0,5.66666 0,8c0,4.46957 0.57719,9.562 0.04866,14.01463c-1.02769,8.65795 -2.01346,18.39137 -0.97375,27.20721c1.10395,9.36054 2.97301,18.2352 5.26008,27.34485c1.61461,6.4312 3.54675,12.0774 7.16028,17.69614c0.4255,0.68615 0.93172,1.317 1.50539,1.87928c0.09428,9.85791 9.99932,9.85791 9.99932,9.85791c6.66805,-0.02666 12.58808,1.42178 19.17519,1.96593c12.25946,1.01272 24.73539,-0.85755 37,0c3.27668,0.22911 6.5929,0.57803 9.73237,1.5439c3.32766,1.02377 0.08475,-11.36694 3.53728,-10.91808c5.07497,0.65979 13.43597,0.07493 18.55517,0.07493c20.33333,0 40.33333,3 60.66667,3c6.79251,0 14.88079,5.74025 20.33722,0.12783c1.38463,-1.42421 9.57625,-3.53779 9.92119,-6.57266c0.23423,-2.06083 0.42338,-4.17722 0.07493,-6.22183c-0.06811,-0.39965 -1.47251,0.00264 -1.18325,-0.28142c0.52961,-0.52011 1.65723,-0.07664 2.13032,-0.64864c0.8751,-1.05808 0.84238,-2.64166 1.55944,-3.81262c0.49236,-0.80403 1.57551,-1.15816 2,-2c1.06,-2.10221 1.57625,-4.437 2.36437,-6.65549c0,-2.02759 0.7632,-3.98629 1,-6c0.53983,-4.59059 0.12913,-9.94681 0.12913,-14.60182c0,-3.57506 0.61064,-8.66364 -0.07493,-12.22183c-0.50574,-2.62487 -1.13614,-5.26297 -2.22308,-7.70515c-0.47312,-1.06304 -1.77399,-1.56898 -2.35359,-2.57792c-0.69351,-1.20724 -0.77213,-2.69104 -1.38995,-3.93872c-0.98064,-1.98041 -2.2557,-3.80089 -3.38354,-5.70133l-4.72861,-4.76395c-0.11502,-4.66511 -1.18016,-8.01973 -1.17964,-12.75776c0.00203,-18.68627 1.03114,-42.88158 0.33097,-61.55057c-0.50267,-13.40295 0.24312,-22.04727 0.66267,-35.42631c0.31644,-10.09112 -3.04587,-20.02136 -1.74818,-30.03369c1.41637,-10.92807 2.08547,-21.41833 2.08787,-32.32277c-0.04948,-7.27841 1.39227,-14.49133 2.22657,-21.72194c1.19207,-10.33129 1.7617,-20.88583 1.77343,-31.27806v-3c0,-3.47296 -1.20615,-5.73978 -2.78066,-7.21934c-1.47956,-1.57452 -3.74637,-2.78066 -7.21934,-2.78066c-14.94924,0 -29.77787,-1.5561 -44.70627,-1.99569c-0.18071,-0.00532 -21.73475,-0.00431 -24.29373,-0.00431c-15,0 -30,0 -45,0c-5,0 -10,0 -15,0c-1.46669,0 -2.95513,0.39138 -4.39818,0.12912c-5.73459,-1.04215 -11.159,-3.37307 -16.76747,-4.95944c-6.95609,-0.65138 -12.16277,-1.52051 -18.83435,-1.16968c-2.61764,0.13765 -5.37416,-0.16366 -7.82683,0.76121c-2.08927,0.78784 -3.49616,2.77848 -5.24424,4.16773l-0.01653,0.05119c-0.66781,-0.02806 -1.38424,0.00104 -2.15276,0.0971z" fill="#3e3e3e" stroke="#000000" stroke-width="4.5" stroke-linecap="butt"/><path d="M168.22707,324.67376c0.0306,-0.00342 0.06123,-0.00698 0.0919,-0.01072c12.30501,-0.12176 24.27133,-1.45464 36.69183,-1.00647c3.0165,0.10884 5.98886,0.78992 9,1c10.13779,0.70727 20.74515,0.42891 30.90947,0.00895c9.81238,-0.40542 20.13944,-1.94196 30.02217,-1.01297c12.4001,1.16563 24.57104,3.9316 37,5c3.15134,0.27089 6.5272,0.16118 9.83297,0.07889c0.01793,1.58513 0.02851,3.17025 -0.13667,4.71859c-0.00738,0.06916 -0.01889,0.13798 -0.03381,0.20649c-2.01363,-0.00554 -4.02744,0.01535 -6.04111,0.01535c-3.33333,0 -6.66667,0 -10,0c-17,0 -34,0 -51,0c-4.48471,0 -9.29216,0.38223 -13.77817,0.07493c-2.07917,-0.14243 -4.55573,-2.12097 -6.12939,-2.58475c-0.68706,-0.20249 -13.19367,-2.37811 -14.26764,-2.4561c-12.26056,-0.89035 -24.76009,1.03147 -37,0c-4.85092,-0.40879 -9.44811,-1.20037 -14.17489,-1.66644c-0.2279,-0.83741 -0.56189,-1.6311 -0.98665,-2.36575z" fill="#3e3e3e" stroke="#000000" stroke-width="4.5" stroke-linecap="butt"/><path d="M138.80469,353.58855v-55.66667h214.5v55.66667z" fill="#3e3e3e" stroke="none" stroke-width="0" stroke-linecap="butt"/><path d="M179.80469,58.40686v-49.98498h166v49.98498z" fill="#3e3e3e" stroke="none" stroke-width="0" stroke-linecap="butt"/><path d="M135.80469,335.40686v-241h38v241z" fill="#3e3e3e" stroke="none" stroke-width="0" stroke-linecap="butt"/><path d="M152.38981,8.948c2.70641,-2.31978 5.2897,0.00639 8.09481,-0.47404c2.28877,-0.392 3.5676,-0.81109 6.12063,-0.93842c2.4893,-0.12416 6.21407,-1.53466 7.45064,0.62935l0.52129,0.91225c10.39643,-1.14799 29.52438,-2.93855 29.52438,2.38183c0,2.99434 -6.2636,-1.12085 -7.34375,1.67188c-0.24103,0.62317 -1.66637,0.65891 -1.51703,1.31016c1.52145,1.31548 2.77567,2.93169 3.67027,4.75625c1.15427,1.40585 2.00345,3.10865 1.49327,5.62953c0.02028,0.31923 0.03057,0.64117 0.03057,0.96552c0,3.01125 -0.88731,5.81525 -2.41474,8.16481c1.19971,1.46359 2.40088,2.90263 3.82896,3.85718c3.56919,2.38569 5.4639,3.4553 7.11094,6.30094c4.8349,2.49009 8.1415,7.53077 8.1415,13.34374c0,8.28427 -6.71573,15 -15,15c-4.87779,0 -9.21179,-2.32826 -11.9513,-5.93408c-2.9605,-1.50675 -7.65332,-4.97003 -9.72057,-6.40967c-1.58575,-1.10431 -2.84417,-4.87704 -4.49104,-5.30792c-4.05019,-1.05967 -9.39833,-5.00401 -12.77975,-5.34833c-2.90102,-0.29541 -9.3237,-1.10248 -11.9743,-3.26989c-0.84279,0.9879 -1.81154,1.86506 -2.88142,2.60663c0.08687,0.65318 0.13172,1.31964 0.13172,1.99658c0,1.94706 -0.37097,3.80748 -1.0461,5.51443c0.46671,0.57107 0.89216,1.17719 1.2718,1.8138c1.08338,0.83679 1.87765,0.00688 2.9989,0.25605c1.49,0.33111 5.00392,2.75878 5.85515,3.48345c5.58121,4.75131 6.31545,13.0904 7.79966,20.04498c3.95538,2.59286 6.61123,7.00462 6.77883,12.04654c3.64813,2.73623 6.00842,7.09619 6.00842,12.00742l0.00001,-0.00002c0,8.28427 -6.71573,15 -15,15c-7.56557,0 -13.82296,-5.60103 -14.85173,-12.88268c-0.79264,-0.04132 -1.61942,-0.13477 -2.48161,-0.28399c-2.95048,-0.51066 -6.40569,-0.38659 -8.67187,-2.34375c-4.25368,-3.67364 -8.67598,-9.67384 -10.07786,-15.28138c-0.75742,-3.02967 -0.82533,-6.8451 -1.8629,-9.71981c-1.33313,-3.69362 3.08999,0.55035 2.29801,-3.40959l2.64796,-7.5788c0.29681,-2.01972 -5.64606,-5.77339 -5.11065,-7.30234c-2.21811,-2.61495 0.11065,-5.33339 0.11065,-9.03099c0,-4.8785 -4.33773,-11.54638 -0.73102,-14.28582c-0.81593,-1.84989 -1.26899,-3.89579 -1.26899,-6.04751c0,-4.52945 2.00759,-8.59001 5.1815,-11.34038c0.18088,-1.15453 0.49346,-2.26539 0.92188,-3.31671c-0.36091,-0.31398 -0.72505,-0.64826 -1.09296,-1.00436c-4.12438,-3.99208 8.06158,2.71798 9.23984,-1.88008c2.09207,-8.16411 7.31778,-6.31443 13.26483,-4.14922c0.41245,-0.77397 1.01356,-1.50244 1.77316,-2.15353z" fill="#3e3e3e" stroke="none" stroke-width="0.5" stroke-linecap="butt"/><path d="M174.60157,272.14063c8.28427,0 15,6.71573 15,15c0,5.6674 -3.14307,10.60071 -7.78118,13.1519c-2.74283,3.55681 -7.04658,5.8481 -11.88549,5.8481c-8.28427,0 -15,-6.71573 -15,-15c0,-5.6674 3.14306,-10.60071 7.78118,-13.1519c2.74283,-3.55681 7.04658,-5.8481 11.88549,-5.8481z" fill="#3e3e3e" stroke="none" stroke-width="0.5" stroke-linecap="butt"/><path d="M316.60157,305.47396c0,-8.28427 6.71573,-15 15,-15c8.28427,0 15,6.71573 15,15c0,8.28427 -6.71573,15 -15,15c-8.28427,0 -15,-6.71573 -15,-15z" fill="#3e3e3e" stroke="none" stroke-width="0.5" stroke-linecap="butt"/><path d="M345.89323,282.97396c6.12867,10.51006 4.17442,36.83333 -13.125,36.83333c-4.7389,0 -8.07046,-1.51334 -10.38892,-3.94311c-4.5447,-2.57739 -7.61108,-7.45904 -7.61108,-13.05689c0,-3.22324 1.01664,-6.20902 2.74676,-8.65419c0.06665,-1.27443 0.15662,-2.50922 0.25324,-3.67914c0,-2.70136 0.71408,-5.23593 1.96378,-7.42525c1.2082,-2.6053 2.99843,-4.86183 5.47108,-5.53012c2.22096,-1.2997 4.80605,-2.04463 7.56514,-2.04463c2.99972,0 5.79378,0.88053 8.13781,2.39723c1.844,0.92501 3.38748,2.35943 4.98719,5.10277z" fill="#3e3e3e" stroke="none" stroke-width="0.5" stroke-linecap="butt"/><path d="M334.26823,308.47396v-55.66667h20v55.66667z" fill="#3e3e3e" stroke="none" stroke-width="0" stroke-linecap="butt"/><path d="M357.9349,101.80729c0,8.28427 -6.71573,15 -15,15c-5.55966,0 -10.41287,-3.02469 -13.00383,-7.51829c-1.16734,-0.42213 -2.20304,-0.94681 -3.04809,-1.5705c-12.01617,-8.86848 -18.82809,-22.01938 -24.22455,-35.64957c-0.9811,-2.47803 -4.11872,-6.03617 -4.31103,-8.66435c-0.69606,-1.72954 -1.07916,-3.61868 -1.07916,-5.59729c0,-3.42917 1.1507,-6.58958 3.08704,-9.11616c3.03854,-4.20939 8.07625,-7.00052 14.00928,-6.08211c2.01655,0.31215 4.68419,1.56586 6.28894,2.62039c0.28638,0.18819 0.53955,0.4263 0.77102,0.69577c1.49125,1.15085 2.75985,2.57617 3.73011,4.2003c2.09348,0.3563 3.63656,-2.31963 5.6875,-2.87033c0.96877,-0.26012 7.41928,-0.35946 9.06416,0.33333c1.65242,0.69598 3.45177,1.05212 5.03384,1.89589c3.03168,1.61689 5.0501,6.18646 5.74437,9.1375c2.06113,8.76098 5.24634,17.10454 5.58375,26.18542c0.11406,3.06987 0.00442,6.22489 -0.44095,9.32825c1.33859,2.24467 2.10761,4.8684 2.10761,7.67175z" fill="#3e3e3e" stroke="none" stroke-width="0.5" stroke-linecap="butt"/><path d="M198.9349,67.79227c2.76142,0 5,2.23858 5,5c0,1.9628 -1.13099,3.66145 -2.77683,4.4798c0.09915,0.52668 0.19697,1.07236 0.29421,1.64086c0.58175,3.40123 1.31187,8.87934 -4.51738,8.87934c-7.38268,0 -3.19653,-4.46737 -5.34635,-7.10322c-4.16343,-5.10469 -7.38662,-9.81077 -10.48056,-15.78995c-0.93582,-1.80851 -0.78734,-6.34082 1.38675,-6.93375c1.54323,-0.42088 3.56421,-0.24581 4.90257,-0.33811c0.91693,-1.12011 2.31045,-1.83497 3.87093,-1.83497c1.09547,0 2.10866,0.3523 2.93245,0.94977c0.19444,0.11007 0.37597,0.24034 0.53967,0.39851c1.83146,1.76959 1.64257,4.47213 2.4528,6.61984c0.55186,1.46284 1.03538,2.78082 1.46727,4.03928c0.09087,-0.00492 0.18238,-0.00741 0.27448,-0.00741z" fill="#3e3e3e" stroke="none" stroke-width="0.5" stroke-linecap="butt"/><path d="M232.24408,72.80485c0.98356,-0.26511 2.24208,-0.33853 4.02415,-0.34592c7.98086,-0.03306 20.73957,-0.03115 28.72049,-0.03115c1.74999,0 3.01504,1.21746 4.64645,1.36449c4.96182,0.44716 5.98641,-0.29674 10.29973,-1c0.90697,-0.14788 3.38634,0.17801 3.83333,0.625c1.99555,1.99555 2.52921,3.56154 2.22469,4.95102c1.559,0.88052 2.60864,2.09353 2.60864,3.75732c0,6.2988 -6.86354,5.12926 -10.66369,4.62262c-13.312,-1.7748 -26.04953,1.45962 -39.30949,0.63409c-3.42574,-0.21328 -6.92249,-0.94061 -10.36015,-1.2567c-0.17013,-0.01564 -0.3538,-0.02252 -0.5425,-0.02909c-2.50625,-0.27041 -4.4575,-2.39279 -4.4575,-4.97091c0,-1.62714 0.77725,-3.07275 1.98072,-3.98581c0.15393,-0.14902 0.32556,-0.28022 0.51928,-0.38919c1.01446,-0.57065 2.02006,-0.8586 3.01937,-0.96003c1.09949,-1.73465 1.95951,-2.58221 3.45648,-2.98572z" fill="#3e3e3e" stroke="none" stroke-width="0.5" stroke-linecap="butt"/><g fill="none"><path d="M221.15235,85.67847l8,-12.5h54l6.5,12.5z" stroke="#e02503" stroke-width="7" stroke-linecap="butt"/><path d="M173.88411,268.27848l0.5,-154.1l5,-9l-21,-44.5l-13.25911,-5.57031l4.66667,-10.66667l24.33333,9l21.66667,34.33333l21,-29.33333l79.33333,0.33333l17.75,35l21,21.33333l-1.28163,158.04322l-19.70926,12.37709h-119.1z" stroke="#e02503" stroke-width="7" stroke-linecap="round"/><path d="M173.88411,268.27848l0.5,-154.1l5,-9l-21,-44.5l-13.25911,-5.57031l4.66667,-10.66667l24.33333,9l21.66667,34.33333l21,-29.33333l79.33333,0.33333l17.75,35l21,21.33333l-1.28163,158.04322l-19.70926,12.37709h-119.1z" stroke="#ffffff" stroke-width="3" stroke-linecap="round"/><path d="M221.15234,85.67847l8,-12.5h54l6.5,12.5z" stroke="#ffffff" stroke-width="3" stroke-linecap="butt"/></g><g stroke-linecap="butt"><path d="M384.10157,337.17396c0,-11.71315 0,-67.93786 0,-75c0,-1.42978 1.20011,-2.53334 2.73333,-2.53334c6.98845,0 58.75511,0 73.2,0c2.36828,0 3.73334,1.39598 3.73334,3.13333c0,7.63416 0,62.19284 0,74.2c0,1.49768 -1.2976,2.33333 -2.93333,2.33333c-7.36188,0 -61.18448,0 -74,0c-1.74821,0 -2.73333,-0.7613 -2.73333,-2.13333z" fill="#596064" stroke="#000000" stroke-width="3.5"/><g stroke="none" stroke-width="0"><path d="M391.92524,304.45044c0,6.88671 -0.18704,16.7579 -0.2057,22.03665c-0.00977,2.76403 -1.01628,4.54238 -1.7944,5.25824c-1.58988,1.46269 -7.25758,6.67696 -7.25758,6.67696v-41.14378c2.995,-0.31468 5.81747,-8.86561 8.93356,-9.149c0.04426,3.0303 0.32412,14.03909 0.32412,16.32092z" fill="#272727"/><path d="M382.66756,261.82345c0,0 5.33583,5.54925 6.96409,7.24265c0.87953,0.91469 1.9903,3.40424 1.94754,5.46261c-0.05543,2.66818 -0.11283,6.62563 -0.08421,10.73138c0.01555,2.23035 0.04307,4.5783 0.07693,6.9694c-2.9564,-0.08474 -5.98699,-0.13179 -8.90435,0.04499z" fill="#272727"/><path d="M455.35502,328.06914c0,-3.03161 -0.21644,-18.09273 -0.3279,-33.46102c3.14493,0.24818 6.2704,0.57445 9.32387,0.99234v42.66082c0,0 -6.09833,-5.61045 -7.61464,-7.00546c-0.64583,-0.59416 -1.38134,-2.0907 -1.38134,-3.18668z" data-paper-data="{&quot;index&quot;:null}" fill="#272727"/><path d="M455.20475,275.38644c0.08062,-2.75563 0.80682,-5.05101 1.40203,-5.67001c1.48046,-1.53967 7.74422,-8.054 7.74422,-8.054v30.73923c-3.14538,-0.26277 -6.27228,-0.47376 -9.38847,-0.6386c0.00299,-6.78328 0.13272,-12.63417 0.24222,-16.37664z" data-paper-data="{&quot;index&quot;:null}" fill="#272727"/><path d="M462.45459,340.18458l-78.33695,-0.14808c0,0 5.76349,-5.31178 7.52868,-6.93863c0.95756,-0.88251 2.86494,-2.04059 4.02602,-2.03826c3.05367,0.00609 8.73055,0.01926 16.3569,0.03449c4.45917,0.00891 10.00664,-0.24319 14.78512,-0.23387c11.31677,0.02206 21.3356,0.30417 24.07476,0.30964c1.39856,0.0028 3.4717,0.93457 4.23426,1.69584c1.58656,1.58388 7.33125,7.31887 7.33125,7.31887z" fill="#787880"/><path d="M451.14101,269.08914c-1.83999,0.06101 -4.82292,0.13118 -8.36165,0.10708c-7.02321,-0.04784 -16.33725,-0.36549 -24.73156,-0.38226c-10.89398,-0.02176 -18.53701,0.08887 -21.45981,0.08303c-1.64092,-0.00329 -4.11634,-1.12661 -4.95282,-1.9905c-1.57407,-1.62561 -6.80406,-7.02696 -6.80406,-7.02696l76.94531,0.14808c0,0 -5.70622,5.92413 -7.19483,7.46958c-0.66989,0.69548 -2.18102,1.55016 -3.44059,1.59193z" data-paper-data="{&quot;index&quot;:null}" fill="#79797f"/><path d="M382.66756,270.63061c0,0 5.33583,5.54924 6.96409,7.24265c0.87953,0.91469 1.9903,3.40424 1.94754,5.46262c-0.05543,2.66818 -0.11283,6.62563 -0.08421,10.73137c0.01555,2.23035 0.04306,4.57829 0.07692,6.96939c-2.9564,-0.08475 -5.98697,-0.1318 -8.90434,0.045z" fill="#272727"/><path d="M455.20475,284.19359c0.08062,-2.75563 0.80682,-5.05101 1.40203,-5.67001c1.48046,-1.53967 7.74422,-8.054 7.74422,-8.054v30.73923c-3.14538,-0.26277 -6.27228,-0.47376 -9.38847,-0.6386c0.00299,-6.78328 0.13272,-12.63417 0.24222,-16.37664z" data-paper-data="{&quot;index&quot;:null}" fill="#272727"/></g><path d="M384.10156,337.17396c0,-11.71315 0,-67.93786 0,-75c0,-1.42977 1.20011,-2.53333 2.73333,-2.53333c6.98846,0 58.7551,0 73.2,0c2.36828,0 3.73333,1.39598 3.73333,3.13333c0,7.63417 0,62.19285 0,74.2c0,1.49768 -1.2976,2.33333 -2.93333,2.33333c-7.36188,0 -61.18449,0 -74,0c-1.74821,0 -2.73333,-0.7613 -2.73333,-2.13333z" fill="none" stroke="#000000" stroke-width="3.5"/><path d="M398.8751,321.07025c0,-11.43484 0,-36.26805 0,-41.46844c0,-2.01671 2.22228,-3.90291 4.5,-3.90291c5.5107,0 29.40633,0 40,0c3.21428,0 4.75,2.36122 4.75,5.12257c0,6.09016 0,30.24548 0,40.49272c0,2.85847 -3.08553,4.63471 -6,4.63471c-6.09771,0 -28.95614,0 -38.75,0c-2.77408,0 -4.5,-1.03238 -4.5,-4.87865z" fill="#9c9c9c" stroke="#000000" stroke-width="2.5"/><path d="M406.58377,315.53215c0.07933,-2.08857 0.675,-3.94401 1.36441,-7.79206c0.36967,-2.0634 0.92139,-12.69417 0.36237,-14.79373c-1.04764,-3.93466 -2.56907,-7.32846 -1.20748,-8.73938c2.28956,-2.37251 8.06265,0.567 14.5055,0.78273c5.48974,0.18381 11.53423,-2.56883 15.58352,-1.8987c3.68162,0.60928 4.63087,3.26949 4.5742,6.41178c-0.06739,3.73721 -1.64118,7.67786 -1.64118,12.49295c0,4.82265 1.75,10.51853 1.75,12.75c0,3.12478 -1.9765,4.97182 -4.92956,4.7089c-2.64592,-0.23557 -7.07583,-1.7089 -10.57044,-1.7089c-5.45974,0 -10.19113,2.25 -12.75,2.25c-2.83377,0 -7.13615,-1.96733 -7.04133,-4.46359z" fill="#cbcbcb" stroke="none" stroke-width="0"/></g><path d="M224.85156,267.80729h-50.66666" fill="none" stroke="#ffffff" stroke-width="3" stroke-linecap="round"/><g fill="none" stroke="#ffffff" stroke-width="3" stroke-linecap="round"><path d="M175.1849,191.80729h50.66666"/><path d="M174.51823,231.47396h24.66667"/></g><g fill="none" stroke="#ffffff" stroke-width="3" stroke-linecap="round"><path d="M175.1849,115.80729h50.66666"/><path d="M174.51823,155.47395h24.66667"/></g><text transform="translate(185,337.44094) scale(0.975,0.975)" font-size="40" xml:space="preserve" data-paper-data="{&quot;origPos&quot;:null}" fill="#b4b4b4" fill-rule="nonzero" stroke="none" stroke-width="1" stroke-linecap="butt" stroke-linejoin="miter" stroke-miterlimit="10" stroke-dasharray="" stroke-dashoffset="0" font-family="&quot;Microsoft YaHei&quot;, &quot;微软雅黑&quot;, STXihei, &quot;华文细黑&quot;" font-weight="normal" text-anchor="start" style="mix-blend-mode: normal"><tspan x="0" dy="0">补给站</tspan></text></g></g></svg>