<svg version="1.1" xmlns="http://www.w3.org/2000/svg" xmlns:xlink="http://www.w3.org/1999/xlink" width="101" height="81.19497" viewBox="0,0,101,81.19497"><g transform="translate(-191.26562,-141.30503)"><g data-paper-data="{&quot;isPaintingLayer&quot;:true}" fill-rule="nonzero" stroke-linecap="butt" stroke-linejoin="miter" stroke-miterlimit="10" stroke-dasharray="" stroke-dashoffset="0" style="mix-blend-mode: normal"><path d="M202.98666,186.33837c0,-7.57725 0,-30.71945 0,-34.6c0,-1.08182 0.85945,-2 2,-2c6.01197,0 56.8805,0 67.9,0c1.34828,0 2.1,0.91818 2.1,2c0,3.95155 0,27.8759 0,35c0,1.26475 -1.09904,2 -2.5,2c-6.61508,0 -57.12091,0 -67.6,0c-1.22228,0 -1.9,-0.89158 -1.9,-2.4z" fill="#5d6465" stroke="#000000" stroke-width="13"/><path d="M217.28665,170.13837v-20h9v20z" fill="#e7efef" stroke="#000000" stroke-width="13"/><path d="M224.28665,164.53837v-7.4h22.6v7.4z" fill="#e7efef" stroke="#000000" stroke-width="13"/><path d="M203.68665,171.13837v-2.6h70.8v2.6z" fill="#a5aeb5" stroke="#000000" stroke-width="13"/><path d="M273.88665,175.93837v5.6h-40.8v-5.6z" fill="#e7efef" stroke="#000000" stroke-width="13"/><path d="M250.78665,188.73837v-9.8h9.4v9.8z" fill="#e7efef" stroke="#000000" stroke-width="13"/><path d="M203.68666,176.73837v-6.6h70.8v6.6z" fill="#5c6365" stroke="#000000" stroke-width="13"/><path d="M202.98666,186.33837c0,-7.57725 0,-30.71945 0,-34.6c0,-1.08182 0.85945,-2 2,-2c6.01197,0 56.88051,0 67.9,0c1.34828,0 2.1,0.91818 2.1,2c0,3.95155 0,27.8759 0,35c0,1.26475 -1.09904,2 -2.5,2c-6.61508,0 -57.12091,0 -67.6,0c-1.22227,0 -1.9,-0.89158 -1.9,-2.4z" fill="none" stroke="#000000" stroke-width="13"/><path d="M260.71999,160.90503c0,7.23493 -5.73076,13.1 -12.8,13.1c-7.06924,0 -12.8,-5.86507 -12.8,-13.1c0,-7.23493 5.73076,-13.1 12.8,-13.1c7.06924,0 12.8,5.86507 12.8,13.1z" fill="#a5b2b5" stroke="#000000" stroke-width="13"/><path d="M255.32,160.83003c0,4.22412 -3.3459,7.64844 -7.47328,7.64844c-4.12738,0 -7.47328,-3.42432 -7.47328,-7.64844c0,-4.22412 3.3459,-7.64844 7.47328,-7.64844c4.12738,0 7.47328,3.42432 7.47328,7.64844z" fill="#5a6163" stroke="#000000" stroke-width="13"/><path d="M214.04582,186.69259c9.26151,-9.00663 34.11602,-32.28924 42.13693,-30.85405c9.29388,1.66297 10.01156,7.40518 9.60301,10.87017c-0.1583,1.34262 -1.28662,2.90631 -2.48149,3.92816c-2.34772,2.00777 -22.01129,17.26013 -28.12783,22.22748c-1.16787,0.94845 -1.36136,0.47084 -2.30205,-0.78343c-0.60107,-0.80143 -1.62501,-1.52846 -3.36685,-1.75879c-1.73633,-0.22959 -7.98397,-0.03842 -12.88851,-0.00839c-3.2985,0.0202 -4.77795,-1.47708 -2.57321,-3.62114z" fill="#acb2b6" stroke="#000000" stroke-width="13"/><path d="M214.04581,186.69258c9.26152,-9.00663 34.11601,-32.28924 42.13692,-30.85405c9.29388,1.66297 10.01156,7.40518 9.60302,10.87017c-0.1583,1.34262 -1.28663,2.90631 -2.48149,3.92816c-2.34772,2.00777 -22.01129,17.26013 -28.12782,22.22748c-1.16788,0.94845 -1.36136,0.47084 -2.30205,-0.78343c-0.60107,-0.80143 -1.62501,-1.52846 -3.36685,-1.75878c-1.73633,-0.22959 -7.98397,-0.03842 -12.88851,-0.00839c-3.2985,0.0202 -4.77795,-1.47708 -2.57321,-3.62114z" fill="none" stroke="#000000" stroke-width="13"/><path d="M228.7878,176.02685c0.08962,-1.0634 0.02643,-2.7382 -0.61534,-5.12336c-1.10587,-3.61472 -3.38593,-9.37355 -4.45079,-12.01237c-0.3521,-0.87253 0.08845,-0.33109 1.04351,1.12472c1.65346,2.52037 4.19192,6.18853 5.72397,7.42461c1.75948,1.41958 4.72918,1.77074 6.29314,1.85527c0.6322,0.03417 0.91351,0.57021 0.77457,1.39835c-0.26823,1.5988 -0.6026,4.25129 -0.25874,6.06686c0.49371,2.60676 2.28526,7.86887 3.50437,11.30148c0.67949,1.91321 0.23368,1.2793 -1.02202,-1.05561c-1.36292,-2.53431 -2.92229,-5.32151 -4.19398,-6.62001c-1.58711,-1.62058 -4.64356,-2.31427 -6.2605,-2.48502c-0.71085,-0.07506 -0.62257,-0.87386 -0.53821,-1.87493z" fill="#0dcd73" stroke="#000000" stroke-width="13"/><path d="M202.98666,186.33837c0,-7.57725 0,-30.71945 0,-34.6c0,-1.08182 0.85945,-2 2,-2c6.01197,0 56.8805,0 67.9,0c1.34828,0 2.1,0.91818 2.1,2c0,3.95155 0,27.8759 0,35c0,1.26475 -1.09904,2 -2.5,2c-6.61508,0 -57.12091,0 -67.6,0c-1.22228,0 -1.9,-0.89158 -1.9,-2.4z" fill="#5d6465" stroke="#ffffff" stroke-width="8.5"/><path d="M217.28665,170.13837v-20h9v20z" fill="#e7efef" stroke="#ffffff" stroke-width="8.5"/><path d="M224.28665,164.53837v-7.4h22.6v7.4z" fill="#e7efef" stroke="#ffffff" stroke-width="8.5"/><path d="M203.68665,171.13837v-2.6h70.8v2.6z" fill="#a5aeb5" stroke="#ffffff" stroke-width="8.5"/><path d="M233.68666,176.73836v8h-30v-8z" fill="#e7efef" stroke="#ffffff" stroke-width="8.5"/><path d="M273.88665,175.93837v5.6h-40.8v-5.6z" fill="#e7efef" stroke="#ffffff" stroke-width="8.5"/><path d="M250.78665,188.73837v-9.8h9.4v9.8z" fill="#e7efef" stroke="#ffffff" stroke-width="8.5"/><path d="M203.68666,176.73837v-6.6h70.8v6.6z" fill="#5c6365" stroke="#ffffff" stroke-width="8.5"/><path d="M202.98666,186.33837c0,-7.57725 0,-30.71945 0,-34.6c0,-1.08182 0.85945,-2 2,-2c6.01197,0 56.88051,0 67.9,0c1.34828,0 2.1,0.91818 2.1,2c0,3.95155 0,27.8759 0,35c0,1.26475 -1.09904,2 -2.5,2c-6.61508,0 -57.12091,0 -67.6,0c-1.22227,0 -1.9,-0.89158 -1.9,-2.4z" fill="none" stroke="#00f000" stroke-width="8.5"/><path d="M260.71999,160.90503c0,7.23493 -5.73076,13.1 -12.8,13.1c-7.06924,0 -12.8,-5.86507 -12.8,-13.1c0,-7.23493 5.73076,-13.1 12.8,-13.1c7.06924,0 12.8,5.86507 12.8,13.1z" fill="#a5b2b5" stroke="#00f000" stroke-width="8.5"/><path d="M255.32,160.83003c0,4.22412 -3.3459,7.64844 -7.47328,7.64844c-4.12738,0 -7.47328,-3.42432 -7.47328,-7.64844c0,-4.22412 3.3459,-7.64844 7.47328,-7.64844c4.12738,0 7.47328,3.42432 7.47328,7.64844z" fill="#5a6163" stroke="#ffffff" stroke-width="8.5"/><path d="M214.04582,186.69259c9.26151,-9.00663 34.11602,-32.28924 42.13693,-30.85405c9.29388,1.66297 10.01156,7.40518 9.60301,10.87017c-0.1583,1.34262 -1.28662,2.90631 -2.48149,3.92816c-2.34772,2.00777 -22.01129,17.26013 -28.12783,22.22748c-1.16787,0.94845 -1.36136,0.47084 -2.30205,-0.78343c-0.60107,-0.80143 -1.62501,-1.52846 -3.36685,-1.75879c-1.73633,-0.22959 -7.98397,-0.03842 -12.88851,-0.00839c-3.2985,0.0202 -4.77795,-1.47708 -2.57321,-3.62114z" fill="#acb2b6" stroke="#ffffff" stroke-width="8.5"/><path d="M214.04581,186.69258c9.26152,-9.00663 34.11601,-32.28924 42.13692,-30.85405c9.29388,1.66297 10.01156,7.40518 9.60302,10.87017c-0.1583,1.34262 -1.28663,2.90631 -2.48149,3.92816c-2.34772,2.00777 -22.01129,17.26013 -28.12782,22.22748c-1.16788,0.94845 -1.36136,0.47084 -2.30205,-0.78343c-0.60107,-0.80143 -1.62501,-1.52846 -3.36685,-1.75878c-1.73633,-0.22959 -7.98397,-0.03842 -12.88851,-0.00839c-3.2985,0.0202 -4.77795,-1.47708 -2.57321,-3.62114z" fill="none" stroke="#00f000" stroke-width="8.5"/><path d="M228.7878,176.02685c0.08962,-1.0634 0.02643,-2.7382 -0.61534,-5.12336c-1.10587,-3.61472 -3.38593,-9.37355 -4.45079,-12.01237c-0.3521,-0.87253 0.08845,-0.33109 1.04351,1.12472c1.65346,2.52037 4.19192,6.18853 5.72397,7.42461c1.75948,1.41958 4.72918,1.77074 6.29314,1.85527c0.6322,0.03417 0.91351,0.57021 0.77457,1.39835c-0.26823,1.5988 -0.6026,4.25129 -0.25874,6.06686c0.49371,2.60676 2.28526,7.86887 3.50437,11.30148c0.67949,1.91321 0.23368,1.2793 -1.02202,-1.05561c-1.36292,-2.53431 -2.92229,-5.32151 -4.19398,-6.62001c-1.58711,-1.62058 -4.64356,-2.31427 -6.2605,-2.48502c-0.71085,-0.07506 -0.62257,-0.87386 -0.53821,-1.87493z" fill="#0dcd73" stroke="#00f000" stroke-width="8.5"/><path d="M202.98666,186.33837c0,-7.57725 0,-30.71945 0,-34.6c0,-1.08182 0.85945,-2 2,-2c6.01197,0 56.8805,0 67.9,0c1.34828,0 2.1,0.91818 2.1,2c0,3.95155 0,27.8759 0,35c0,1.26475 -1.09904,2 -2.5,2c-6.61508,0 -57.12091,0 -67.6,0c-1.22228,0 -1.9,-0.89158 -1.9,-2.4z" fill="#5d6465" stroke="#373a3e" stroke-width="2.5"/><path d="M217.28665,170.13837v-20h9v20z" fill="#e7efef" stroke="none" stroke-width="0"/><path d="M224.28665,164.53837v-7.4h22.6v7.4z" fill="#e7efef" stroke="none" stroke-width="0"/><path d="M203.68665,171.13837v-2.6h70.8v2.6z" fill="#a5aeb5" stroke="none" stroke-width="0"/><path d="M233.68666,176.73836v8h-30v-8z" fill="#e7efef" stroke="none" stroke-width="0"/><path d="M273.88665,175.93837v5.6h-40.8v-5.6z" fill="#e7efef" stroke="none" stroke-width="0"/><path d="M250.78665,188.73837v-9.8h9.4v9.8z" fill="#e7efef" stroke="none" stroke-width="0"/><path d="M203.68666,176.73837v-6.6h70.8v6.6z" fill="#5c6365" stroke="none" stroke-width="0"/><path d="M202.98666,186.33837c0,-7.57725 0,-30.71945 0,-34.6c0,-1.08182 0.85945,-2 2,-2c6.01197,0 56.88051,0 67.9,0c1.34828,0 2.1,0.91818 2.1,2c0,3.95155 0,27.8759 0,35c0,1.26475 -1.09904,2 -2.5,2c-6.61508,0 -57.12091,0 -67.6,0c-1.22227,0 -1.9,-0.89158 -1.9,-2.4z" fill="none" stroke="#282b2d" stroke-width="4"/><g><path d="M260.71998,160.90503c0,7.23493 -5.73076,13.1 -12.8,13.1c-7.06924,0 -12.8,-5.86507 -12.8,-13.1c0,-7.23493 5.73076,-13.1 12.8,-13.1c7.06924,0 12.8,5.86507 12.8,13.1z" fill="#a5b2b5" stroke="#393c39" stroke-width="2.5"/><path d="M255.31999,160.83003c0,4.22412 -3.3459,7.64844 -7.47328,7.64844c-4.12738,0 -7.47328,-3.42432 -7.47328,-7.64844c0,-4.22412 3.3459,-7.64844 7.47328,-7.64844c4.12738,0 7.47328,3.42432 7.47328,7.64844z" fill="#5a6163" stroke="none" stroke-width="0"/><path d="M214.04581,186.69259c9.26151,-9.00663 34.11602,-32.28924 42.13693,-30.85405c9.29388,1.66297 10.01156,7.40518 9.60301,10.87017c-0.1583,1.34262 -1.28662,2.90631 -2.48149,3.92816c-2.34772,2.00777 -22.01129,17.26013 -28.12783,22.22748c-1.16787,0.94845 -1.36136,0.47084 -2.30205,-0.78343c-0.60107,-0.80143 -1.62501,-1.52846 -3.36685,-1.75879c-1.73633,-0.22959 -7.98397,-0.03842 -12.88851,-0.00839c-3.2985,0.0202 -4.77795,-1.47708 -2.57321,-3.62114z" fill="#acb2b6" stroke="#393839" stroke-width="2.5"/><path d="M220.67698,189.99791c0,0 24.19185,-19.5763 30.87171,-24.98171c3.20981,-2.59741 2.58562,-1.59852 -0.8141,1.52211c-6.09855,5.59793 -25.55761,23.4596 -25.55761,23.4596z" fill="#5a6163" stroke="none" stroke-width="0"/><path d="M214.04581,186.69258c9.26151,-9.00663 34.11601,-32.28924 42.13692,-30.85405c9.29388,1.66297 10.01156,7.40518 9.60302,10.87017c-0.1583,1.34262 -1.28662,2.90631 -2.48149,3.92816c-2.34772,2.00777 -22.01129,17.26013 -28.12783,22.22748c-1.16787,0.94845 -1.36136,0.47084 -2.30205,-0.78343c-0.60107,-0.80143 -1.62501,-1.52846 -3.36685,-1.75879c-1.73633,-0.22959 -7.98397,-0.03842 -12.88851,-0.00839c-3.2985,0.0202 -4.77795,-1.47708 -2.57321,-3.62114z" fill="none" stroke="#393839" stroke-width="2.5"/><path d="M228.78779,176.02685c0.08961,-1.0634 0.02643,-2.7382 -0.61534,-5.12336c-1.10588,-3.61472 -3.38593,-9.37355 -4.45079,-12.01237c-0.3521,-0.87253 0.08845,-0.3311 1.04352,1.12472c1.65346,2.52037 4.19192,6.18853 5.72397,7.42462c1.75948,1.41958 4.72919,1.77074 6.29315,1.85527c0.6322,0.03417 0.91351,0.57021 0.77457,1.39835c-0.26823,1.5988 -0.6026,4.25129 -0.25874,6.06687c0.4937,2.60676 2.28526,7.86887 3.50437,11.30148c0.67949,1.91321 0.23368,1.27929 -1.02202,-1.05562c-1.36293,-2.53431 -2.92229,-5.3215 -4.19397,-6.62001c-1.58711,-1.62058 -4.64357,-2.31427 -6.2605,-2.48502c-0.71085,-0.07506 -0.62257,-0.87386 -0.53821,-1.87493z" fill="#0dcd73" stroke="#1e5940" stroke-width="1.5"/></g><text transform="translate(191.51563,217.25) scale(0.5,0.5)" font-size="40" xml:space="preserve" fill="#000000" fill-rule="nonzero" stroke="#03d000" stroke-width="1" stroke-linecap="butt" stroke-linejoin="miter" stroke-miterlimit="10" stroke-dasharray="" stroke-dashoffset="0" font-family="&quot;Microsoft YaHei&quot;, &quot;微软雅黑&quot;, STXihei, &quot;华文细黑&quot;" font-weight="normal" text-anchor="start" style="mix-blend-mode: normal"><tspan x="0" dy="0">保安摄像头</tspan></text></g></g></svg>