<svg version="1.1" xmlns="http://www.w3.org/2000/svg" xmlns:xlink="http://www.w3.org/1999/xlink" width="258.00003" height="272.13737" viewBox="0,0,258.00003,272.13737"><g transform="translate(-111.00002,-43.93134)"><g data-paper-data="{&quot;isPaintingLayer&quot;:true}" fill-rule="nonzero" stroke-linecap="butt" stroke-linejoin="miter" stroke-miterlimit="10" stroke-dasharray="" stroke-dashoffset="0" style="mix-blend-mode: normal"><path d="M356.55855,51.43136c3.19507,0 4.9415,1.95799 4.9415,5.02326c0,7.15676 0,20.34958 0,28.75105c-1.01966,0.09595 -2.04104,0.16662 -3.06522,0.1959c-1.89874,0.05428 -3.76522,-0.50577 -5.64746,-0.76138c-5.27473,-0.71631 -13.99037,-2.10093 -19.88651,-2.37214c-6.53447,-0.30058 -13.08296,0.046 -19.62414,-0.0052c-11.15877,-0.08733 -22.79179,-0.47174 -33.93765,-1.21534c-1.10249,-0.07355 -2.14839,-0.59625 -3.25247,-0.63996c-12.60514,-0.49897 -25.21451,0.74763 -37.7989,1.22775c-3.71698,0.14181 -7.09454,-0.47274 -10.84695,-0.62173c-6.76696,-0.26868 -13.62451,-0.0078 -20.40581,-0.0078c-3.16417,0.03475 -6.22666,-0.6231 -9.4186,-0.62791c-4.6276,-0.00697 -9.28398,0.6327 -13.88235,0.1133c-1.12,-0.12651 -2.03089,-1.05253 -3.13953,-1.25581c-0.79713,-0.14617 -7.04915,-0.1133 -8.0944,-0.1133c-5.74871,0 -11.56021,0.32921 -17.29686,0.00645c-8.84229,-0.4975 -17.87263,-2.27228 -26.75262,-1.2204c-3.38259,0.40069 -6.63059,1.55065 -9.95051,2.32474c0,-8.34284 0,-18.65933 0,-24.40615c0,-2.70323 1.57197,-4.39535 3.8492,-4.39535c0,0 201.44593,0.00002 234.20928,0.00002z" data-paper-data="{&quot;index&quot;:null}" fill="#000000" stroke="#000000" stroke-width="15"/><path d="M122.34923,51.14508c16.35479,0 201.44597,0 234.20931,0c3.19507,0 4.94149,2.54965 4.94149,6.54117c0,9.31937 0,73.10459 0,84.0448c-1.01966,0.12494 -2.04104,-46.38886 -3.06522,-46.35074c-1.89874,0.07068 -3.76522,-0.6586 -5.64746,-0.99145c-5.27473,-0.93276 -13.99037,-2.73577 -19.88651,-3.08895c-6.53447,-0.39141 -13.08297,0.0599 -19.62414,-0.00677c-11.15877,-0.11372 -22.79179,-0.61429 -33.93765,-1.58259c-1.10249,-0.09578 -2.14839,-0.77644 -3.25248,-0.83334c-12.60514,-0.64973 -25.21451,0.97355 -37.79891,1.59876c-3.71698,0.18467 -7.09454,-0.6156 -10.84695,-0.80962c-6.76696,-0.34988 -13.62451,-0.01014 -20.40581,-0.01014c-3.16417,0.04524 -6.22666,-0.81139 -9.4186,-0.81764c-4.6276,-0.00908 -9.28399,0.82387 -13.88235,0.14752c-1.12,-0.16474 -2.03089,-1.37058 -3.13953,-1.6353c-0.79713,-0.19033 -7.04915,-0.14752 -8.09439,-0.14752c-5.74871,0 -11.5602,0.4287 -17.29686,0.0084c-8.84229,-0.64782 -17.87264,-2.95891 -26.75262,-1.58918c-3.38259,0.52177 -6.63059,50.26034 -9.95052,51.26834c0,-10.86386 0,-72.53887 0,-80.02225c0,-3.52008 1.57197,-5.72352 3.8492,-5.72352z" data-paper-data="{&quot;index&quot;:null}" fill="#000000" stroke="#ffffff" stroke-width="7"/><path d="M118.50003,297.8719c0,-13.98576 0,-104.80114 0,-125.10472c1.36311,0.77349 2.7141,67.40982 4.06726,68.30219c1.94252,1.28105 3.88951,2.48929 5.88325,3.06404c8.87999,2.55993 17.91034,-1.75929 26.75262,-2.97001c5.73666,-0.78549 11.54815,0.0157 17.29686,0.0157c1.04525,0 7.29726,0.07999 8.0944,-0.27571c1.10864,-0.49474 2.01953,-2.74835 3.13953,-3.05621c4.59836,-1.26404 9.25475,0.29267 13.88235,0.27571c3.19195,-0.01168 6.25444,-1.61268 9.4186,-1.52811c6.78129,0 13.63885,0.63492 20.4058,-0.01896c3.75241,-0.36259 7.12997,-1.85822 10.84695,-1.51307c12.5844,1.16847 25.19376,4.20224 37.7989,2.98792c1.10408,-0.10635 2.14998,-1.37842 3.25248,-1.55744c11.14586,-1.80966 22.77888,-2.74516 33.93766,-2.95769c6.54118,-0.12458 13.08968,0.71885 19.62415,-0.01263c5.89614,-0.66006 14.61178,-4.02972 19.88651,-5.77296c1.88224,-0.62207 3.74872,-5.04124 5.64746,-4.90916c1.02418,0.07126 2.04555,-48.65619 3.06522,-48.42268c0,20.44628 0,104.50869 0,121.92573c0,7.4598 -1.74642,12.22487 -4.9415,12.22487c-32.76335,0 -217.85452,0 -234.20931,0c-2.27723,0 -3.8492,-4.11803 -3.8492,-10.69676z" fill="#000000" stroke="#000000" stroke-width="15"/><path d="M122.34922,74.43135c16.35479,0 201.44597,0 234.20931,0c3.19507,0 4.94149,6.74372 4.94149,17.30113c0,24.64933 0,70.08806 0,99.02442c-1.01966,0.33048 -2.04104,0.57387 -3.06522,0.67472c-1.89874,0.18695 -3.76522,-1.74198 -5.64746,-2.62234c-5.27473,-2.46711 -13.99037,-7.236 -19.88651,-8.17013c-6.53447,-1.03525 -13.08297,0.15844 -19.62414,-0.0179c-11.15877,-0.30078 -22.79179,-1.62477 -33.93765,-4.18587c-1.10249,-0.25333 -2.14839,-2.05363 -3.25248,-2.20415c-12.60514,-1.71852 -25.21451,2.57498 -37.79891,4.22866c-3.71698,0.48845 -7.09454,-1.62824 -10.84695,-2.14139c-6.76696,-0.92542 -13.62451,-0.02683 -20.40581,-0.02683c-3.16417,0.11965 -6.22666,-2.14608 -9.4186,-2.16261c-4.6276,-0.02401 -9.28399,2.17911 -13.88235,0.39019c-1.12,-0.43572 -2.03089,-3.62512 -3.13953,-4.3253c-0.79713,-0.5034 -7.04915,-0.39019 -8.09439,-0.39019c-5.74871,0 -11.5602,1.1339 -17.29686,0.02221c-8.84229,-1.71346 -17.87264,-7.82619 -26.75262,-4.2033c-3.38259,1.38006 -6.63059,5.34076 -9.95052,8.00687c0,-28.73442 0,-64.26645 0,-84.05967c0,-9.31047 1.57197,-15.13847 3.8492,-15.13847z" data-paper-data="{&quot;index&quot;:null}" fill="#000000" stroke="#000000" stroke-width="15"/><path d="M356.55855,51.4314c3.19507,0 4.9415,6.0251 4.9415,15.45751c0,22.02269 0,172.75417 0,198.60706c-1.01966,0.29525 -2.04104,-109.62197 -3.06522,-109.53187c-1.89874,0.16703 -3.76522,-1.55635 -5.64746,-2.34291c-5.27473,-2.20422 -13.99037,-6.46496 -19.88651,-7.29952c-6.53447,-0.92494 -13.08296,0.14155 -19.62414,-0.016c-11.15877,-0.26873 -22.79179,-1.45163 -33.93765,-3.73983c-1.10249,-0.22633 -2.14839,-1.83477 -3.25247,-1.96927c-12.60514,-1.53543 -25.21451,2.3006 -37.7989,3.77801c-3.71698,0.43637 -7.09454,-1.45471 -10.84695,-1.91318c-6.76696,-0.82678 -13.62451,-0.024 -20.40581,-0.024c-3.16417,0.10693 -6.22666,-1.91739 -9.4186,-1.93219c-4.6276,-0.02145 -9.28398,1.94693 -13.88235,0.34864c-1.12,-0.3893 -2.03089,-3.23883 -3.13953,-3.86436c-0.79713,-0.44979 -7.04915,-0.34865 -8.0944,-0.34865c-5.74871,0 -11.56021,1.01305 -17.29686,0.01985c-8.84229,-1.5309 -17.87263,-6.99223 -26.75262,-3.7554c-3.38259,1.233 -6.63059,118.77069 -9.95051,121.15271c0,-25.67248 0,-171.4173 0,-189.10134c0,-8.31835 1.57197,-13.52532 3.8492,-13.52532c0,0 201.44593,0.00006 234.20928,0.00006z" data-paper-data="{&quot;index&quot;:null}" fill="#000000" stroke="#ffffff" stroke-width="7"/><path d="M122.34922,213.02595c16.35479,0 201.44597,0 234.20931,0c3.19507,0 4.94149,1.95799 4.94149,5.02326c0,7.15676 0,49.2333 0,57.63477c-1.01966,0.09595 -2.04104,0.79453 -3.06522,0.82381c-1.89874,0.05428 -49.97367,9.88098 -56.5601,9.76986c-2.34923,-0.03963 -180.05476,-10.68941 -183.37468,-9.91532c0,-8.34284 0,-53.19421 0,-58.94103c0,-2.70323 1.57197,-4.39535 3.8492,-4.39535z" data-paper-data="{&quot;index&quot;:null}" fill="#000000" stroke="none" stroke-width="0"/><path d="M118.50003,304.17332c0,-5.74682 0,-43.06331 0,-51.40615c1.36311,0.31783 2.7141,27.69903 4.06726,28.06571c1.94252,0.52639 3.88951,1.02286 5.88325,1.25903c8.87999,1.05189 17.91034,-0.7229 26.75262,-1.22039c5.73666,-0.32276 11.54815,0.00645 17.29686,0.00645c1.04525,0 7.29726,0.03287 8.0944,-0.11329c1.10864,-0.20329 2.01953,-1.12931 3.13953,-1.25581c4.59836,-0.5194 9.25475,0.12026 13.88235,0.11329c3.19195,-0.0048 6.25444,-0.66266 9.4186,-0.62791c6.78129,0 13.63885,0.26089 20.4058,-0.00779c3.75241,-0.14899 7.12997,-0.76355 10.84695,-0.62173c12.5844,0.48013 25.19376,1.72672 37.7989,1.22775c1.10408,-0.0437 2.14998,-0.5664 3.25248,-0.63996c11.14586,-0.7436 22.77888,-1.128 33.93766,-1.21533c6.54118,-0.05119 13.08968,0.29538 19.62415,-0.00519c5.89614,-0.27122 14.61178,-1.65583 19.88651,-2.37214c1.88224,-0.25561 3.74872,-2.07147 5.64746,-2.0172c1.02418,0.02928 2.04555,-19.99307 3.06522,-19.89712c0,8.40148 0,42.94314 0,50.09989c0,3.06527 -1.74642,5.02326 -4.9415,5.02326c-32.76335,0 -217.85452,0 -234.20931,0c-2.27723,0 -3.8492,-1.69212 -3.8492,-4.39535z" fill="#000000" stroke="#000000" stroke-width="15"/><path d="M122.34922,195.00793c16.35479,0 201.44597,0 234.20931,0c3.19507,0 4.94149,2.54965 4.94149,6.54117c0,9.31937 0,73.10459 0,84.0448c-1.01966,0.12494 -2.04104,-46.38886 -3.06522,-46.35074c-1.89874,0.07068 -3.76522,-0.6586 -5.64746,-0.99145c-5.27473,-0.93276 -13.99037,-2.73577 -19.88651,-3.08895c-6.53447,-0.39141 -13.08297,0.0599 -19.62414,-0.00677c-11.15877,-0.11372 -22.79179,-0.61429 -33.93765,-1.58259c-1.10249,-0.09578 -2.14839,-0.77644 -3.25248,-0.83334c-12.60514,-0.64973 -25.21451,0.97355 -37.79891,1.59876c-3.71698,0.18467 -7.09454,-0.6156 -10.84695,-0.80962c-6.76696,-0.34988 -13.62451,-0.01014 -20.40581,-0.01014c-3.16417,0.04524 -6.22666,-0.81139 -9.4186,-0.81764c-4.6276,-0.00908 -9.28399,0.82387 -13.88235,0.14752c-1.12,-0.16474 -2.03089,-1.37058 -3.13953,-1.6353c-0.79713,-0.19033 -7.04915,-0.14752 -8.09439,-0.14752c-5.74871,0 -11.5602,0.4287 -17.29686,0.0084c-8.84229,-0.64782 -17.87264,-2.95891 -26.75262,-1.58918c-3.38259,0.52177 -6.63059,50.26034 -9.95052,51.26834c0,-10.86386 0,-72.53887 0,-80.02225c0,-3.52008 1.57197,-5.72352 3.8492,-5.72352z" data-paper-data="{&quot;index&quot;:null}" fill="#000000" stroke="#ffffff" stroke-width="7"/><path d="M118.50003,304.17332c0,-5.74682 0,-16.0633 0,-24.40615c3.31992,0.77409 6.56793,1.92405 9.95052,2.32474c8.87999,1.05189 17.91034,-0.7229 26.75262,-1.22039c5.73666,-0.32276 11.54815,0.00645 17.29686,0.00645c1.04525,0 7.29726,0.03287 8.0944,-0.11329c1.10864,-0.20329 2.01953,-1.12931 3.13953,-1.25581c4.59836,-0.5194 9.25475,0.12026 13.88235,0.11329c3.19195,-0.0048 6.25444,-0.66266 9.4186,-0.62791c6.78129,0 13.63885,0.26089 20.4058,-0.00779c3.75241,-0.14899 7.12997,-0.76355 10.84695,-0.62173c12.5844,0.48013 25.19376,1.72672 37.7989,1.22775c1.10408,-0.0437 2.14998,-0.5664 3.25248,-0.63996c11.14586,-0.7436 22.77888,-1.128 33.93766,-1.21533c6.54118,-0.05119 13.08968,0.29538 19.62415,-0.00519c5.89614,-0.27122 14.61178,-1.65583 19.88651,-2.37214c1.88224,-0.25561 3.74872,-0.81566 5.64746,-0.76138c1.02418,0.02928 2.04555,0.09996 3.06522,0.1959c0,8.40148 0,21.5943 0,28.75106c0,3.06527 -1.74642,5.02326 -4.9415,5.02326c-32.76335,0 -217.85452,0 -234.20931,0c-2.27723,0 -3.8492,-1.69212 -3.8492,-4.39535z" fill="#000000" stroke="#ffffff" stroke-width="7"/><path d="M122.34922,51.43136c16.35479,0 201.44596,0 234.20931,0c3.19507,0 4.9415,1.95799 4.9415,5.02326c0,7.15676 0,49.2333 0,57.63478c-1.01966,0.09595 -2.04104,0.79453 -3.06522,0.82381c-1.89874,0.05428 -49.97368,9.88097 -56.5601,9.76986c-2.34923,-0.03963 -180.05476,-10.68941 -183.37468,-9.91532c0,-8.34284 0,-53.19421 0,-58.94103c0,-2.70323 1.57197,-4.39535 3.8492,-4.39535z" data-paper-data="{&quot;index&quot;:null}" fill="#000000" stroke="none" stroke-width="0"/><path d="M118.50003,304.17332c0,-5.74682 0,-24.854 0,-33.19685c3.31992,0.77409 18.39754,-3.59662 20.74678,-3.63625c6.58642,-0.11111 217.28927,0.92488 219.18801,0.97916c1.02418,0.02928 2.04555,-6.80702 3.06522,-6.71108c0,8.40148 0,34.78035 0,41.9371c0,3.06527 -1.74642,5.02326 -4.9415,5.02326c-32.76335,0 -217.85452,0 -234.20931,0c-2.27723,0 -3.8492,-1.69212 -3.8492,-4.39535z" fill="#000000" stroke="none" stroke-width="0"/><path d="M122.34921,172.65298c16.35479,0 201.44596,0 234.20931,0c3.19507,0 4.9415,3.25436 4.9415,8.34912c0,11.89519 0,81.83028 0,95.79431c-1.01966,0.15948 -2.04104,1.32058 -3.06522,1.36925c-1.89874,0.09022 -49.97368,16.42308 -56.5601,16.23841c-2.34923,-0.06587 -180.05476,-17.76678 -183.37468,-16.48018c0,-13.86657 0,-88.41368 0,-97.96542c0,-4.49302 1.57197,-7.30548 3.8492,-7.30548z" data-paper-data="{&quot;index&quot;:null}" fill="#000000" stroke="none" stroke-width="0"/><path d="M230.94471,239.12851c0,-2.23136 0,-16.7205 0,-19.95984c0.67339,0.1234 1.3408,10.7549 2.00927,10.89727c0.95963,0.20439 1.92147,0.39715 2.9064,0.48886c4.38682,0.40843 8.84791,-0.28068 13.2161,-0.47385c2.83398,-0.12532 5.70492,0.0025 8.54485,0.0025c0.51636,0 3.60493,0.01276 3.99873,-0.04399c0.54768,-0.07894 0.99767,-0.43849 1.55096,-0.4876c2.27165,-0.20167 4.57196,0.04669 6.85804,0.04399c1.57686,-0.00187 3.08977,-0.25729 4.6529,-0.2438c3.35004,0 6.73774,0.10129 10.0807,-0.00302c1.85373,-0.05785 3.52229,-0.29647 5.35852,-0.24141c6.21684,0.18642 12.44601,0.67045 18.6731,0.47671c0.54543,-0.01697 1.06211,-0.21992 1.60676,-0.24849c5.50619,-0.28872 11.25303,-0.43797 16.7656,-0.47188c3.23142,-0.01988 6.46645,0.11469 9.69456,-0.00202c2.91276,-0.10531 7.21839,-0.64292 9.82417,-0.92104c0.92985,-0.09925 1.85191,-0.8043 2.78991,-0.78323c0.50596,0.01137 1.01052,-7.76286 1.51425,-7.7256c0,3.26211 0,16.67385 0,19.45265c0,1.19018 -0.86275,1.95042 -2.44116,1.95042c-16.18547,0 -107.62267,0 -115.70212,0c-1.12498,0 -1.90155,-0.65701 -1.90155,-1.70662z" fill="#000000" stroke="#000000" stroke-width="15"/><path d="M350.98955,179.67389c0,2.77881 0,7.90127 0,11.16338c-0.50372,0.03725 -1.0083,0.0647 -1.51425,0.07606c-0.938,0.02107 -1.86006,-0.19637 -2.78991,-0.29563c-2.60577,-0.27812 -6.91141,-0.81575 -9.82417,-0.92105c-3.2281,-0.11671 -6.46313,0.01786 -9.69455,-0.00202c-5.51256,-0.03391 -11.25941,-0.18317 -16.76559,-0.47189c-0.54464,-0.02856 -1.06133,-0.23151 -1.60676,-0.24848c-6.22709,-0.19374 -12.45627,0.29029 -18.6731,0.47671c-1.83623,0.05506 -3.50478,-0.18356 -5.35851,-0.24141c-3.34296,-0.10432 -6.73067,-0.00303 -10.08071,-0.00303c-1.56314,0.0135 -3.07604,-0.24193 -4.65289,-0.2438c-2.28609,-0.0027 -4.5864,0.24567 -6.85804,0.04399c-0.55329,-0.04912 -1.00329,-0.40867 -1.55097,-0.48761c-0.39379,-0.05676 -3.48236,-0.04399 -3.99873,-0.04399c-2.83993,0 -5.71088,0.12783 -8.54485,0.00251c-4.36819,-0.19317 -8.82929,-0.88228 -13.21611,-0.47386c-1.67104,0.15558 -3.27559,0.60209 -4.91567,0.90265c0,-3.23934 0,-7.245 0,-9.47636c0,-1.04961 0.77657,-1.70661 1.90155,-1.70661c0,0 99.51663,0 115.70211,0c0,0 2.44115,0.76026 2.44115,1.95044z" data-paper-data="{&quot;index&quot;:null}" fill="#000000" stroke="#000000" stroke-width="15"/><path d="M133.51503,239.12851c0,-2.23136 0,-16.7205 0,-19.95984c0.67339,0.12341 1.34079,10.7549 2.00927,10.89728c0.95963,0.20439 1.92147,0.39715 2.90639,0.48885c4.38682,0.40842 8.84792,-0.28069 13.2161,-0.47385c2.83397,-0.12532 5.70492,0.0025 8.54485,0.0025c0.51637,0 3.60493,0.01276 3.99873,-0.04399c0.54768,-0.07893 0.99767,-0.43849 1.55097,-0.4876c2.27165,-0.20167 4.57196,0.04669 6.85804,0.04399c1.57686,-0.00186 3.08977,-0.2573 4.6529,-0.2438c3.35004,0 6.73774,0.1013 10.08071,-0.00302c1.85374,-0.05785 3.52228,-0.29647 5.35851,-0.2414c6.21685,0.18642 12.44601,0.67045 18.67309,0.47671c0.54543,-0.01697 1.06212,-0.21992 1.60676,-0.24848c5.50618,-0.28872 11.25303,-0.43798 16.7656,-0.47188c3.23142,-0.01988 6.46645,0.11469 9.69456,-0.00202c2.91277,-0.10531 7.21839,-0.64292 9.82417,-0.92105c0.92985,-0.09925 1.85191,-0.8043 2.78991,-0.78323c0.50596,0.01137 1.01052,-7.76285 1.51426,-7.7256c0,3.2621 0,16.67384 0,19.45265c0,1.19017 -0.86276,1.95042 -2.44116,1.95042c-16.18547,0 -107.62267,0 -115.70212,0c-1.12498,0 -1.90155,-0.65701 -1.90155,-1.70661z" fill="#000000" stroke="#000000" stroke-width="15"/><path d="M135.4166,186.65385c8.07945,0 99.51665,0 115.70212,0c1.5784,0 2.44116,1.74484 2.44116,4.47643c0,6.37767 0,18.13432 0,25.62121c-0.50372,0.08551 -1.0083,0.14848 -1.51426,0.17457c-0.938,0.04837 -1.86006,-0.45071 -2.78991,-0.6785c-2.60578,-0.63833 -6.9114,-1.87221 -9.82417,-2.11391c-3.22811,-0.26786 -6.46314,0.04099 -9.69456,-0.00463c-5.51257,-0.07782 -11.25941,-0.42039 -16.7656,-1.08304c-0.54464,-0.06555 -1.06133,-0.53135 -1.60676,-0.57029c-6.22709,-0.44464 -12.45626,0.66624 -18.67311,1.09411c-1.83623,0.12638 -3.50479,-0.42128 -5.35851,-0.55406c-3.34296,-0.23944 -6.73067,-0.00694 -10.08071,-0.00694c-1.56314,0.03096 -3.07604,-0.55527 -4.6529,-0.55955c-2.28609,-0.00621 -4.5864,0.56381 -6.85804,0.10096c-0.55329,-0.11274 -1.00329,-0.93795 -1.55097,-1.11911c-0.39379,-0.13025 -3.48236,-0.10096 -3.99873,-0.10096c-2.83993,0 -5.71087,0.29338 -8.54485,0.00575c-4.36819,-0.44333 -8.82929,-2.02492 -13.2161,-1.08755c-1.67104,0.35707 -3.27559,1.38185 -4.91567,2.07167c0,-7.43464 0,-16.62806 0,-21.74928c0,-2.40896 0.77657,-3.91687 1.90155,-3.91687z" data-paper-data="{&quot;index&quot;:null}" fill="#000000" stroke="#000000" stroke-width="15"/><path d="M135.4166,203.73805c8.07945,0 99.51665,0 115.70212,0c1.5784,0 2.44116,0.76024 2.44116,1.95042c0,2.77881 0,21.79799 0,25.06009c-0.50372,0.03726 -1.0083,-13.83202 -1.51426,-13.82065c-0.938,0.02108 -1.86006,-0.19638 -2.78991,-0.29563c-2.60578,-0.27813 -6.9114,-0.81574 -9.82417,-0.92105c-3.22811,-0.11671 -6.46314,0.01786 -9.69456,-0.00202c-5.51257,-0.03391 -11.25941,-0.18317 -16.7656,-0.47189c-0.54464,-0.02856 -1.06133,-0.23151 -1.60676,-0.24848c-6.22709,-0.19373 -12.45626,0.29029 -18.67311,0.47671c-1.83623,0.05507 -3.50479,-0.18356 -5.35851,-0.24141c-3.34296,-0.10433 -6.73067,-0.00302 -10.08071,-0.00302c-1.56314,0.01349 -3.07604,-0.24194 -4.6529,-0.2438c-2.28609,-0.00271 -4.5864,0.24566 -6.85804,0.04399c-0.55329,-0.04912 -1.00329,-0.40867 -1.55097,-0.48761c-0.39379,-0.05675 -3.48236,-0.04399 -3.99873,-0.04399c-2.83993,0 -5.71087,0.12783 -8.54485,0.0025c-4.36819,-0.19316 -8.82929,-0.88227 -13.2161,-0.47385c-1.67104,0.15558 -3.27559,14.9864 -4.91567,15.28696c0,-3.23933 0,-21.62931 0,-23.86067c0,-1.0496 0.77657,-1.70661 1.90155,-1.70661z" data-paper-data="{&quot;index&quot;:null}" fill="#000000" stroke="#d9d9d9" stroke-width="5"/><path d="M135.4166,203.73805c8.07945,0 99.51665,0 115.70212,0c1.5784,0 2.44116,0.76024 2.44116,1.95042c0,2.77881 0,19.11617 0,22.37827c-0.50372,0.03726 -1.0083,0.3085 -1.51426,0.31987c-0.938,0.02108 -24.68758,3.83656 -27.94135,3.79341c-1.16054,-0.01539 -88.94914,-4.15045 -90.58922,-3.84989c0,-3.23933 0,-20.6541 0,-22.88546c0,-1.0496 0.77657,-1.70661 1.90155,-1.70661z" data-paper-data="{&quot;index&quot;:null}" fill="#000000" stroke="none" stroke-width="0"/><path d="M133.51503,239.12851c0,-2.23136 0,-6.23701 0,-9.47635c1.64008,0.30056 3.24464,0.74706 4.91567,0.90264c4.38682,0.40842 8.84792,-0.28069 13.2161,-0.47385c2.83397,-0.12532 5.70492,0.0025 8.54485,0.0025c0.51637,0 3.60493,0.01276 3.99873,-0.04399c0.54768,-0.07893 0.99767,-0.43849 1.55097,-0.4876c2.27165,-0.20167 4.57196,0.04669 6.85804,0.04399c1.57686,-0.00186 3.08977,-0.2573 4.6529,-0.2438c3.35004,0 6.73774,0.1013 10.08071,-0.00302c1.85374,-0.05785 3.52228,-0.29647 5.35851,-0.2414c6.21685,0.18642 12.44601,0.67045 18.67309,0.47671c0.54543,-0.01697 1.06212,-0.21992 1.60676,-0.24848c5.50618,-0.28872 11.25303,-0.43798 16.7656,-0.47188c3.23142,-0.01988 6.46645,0.11469 9.69456,-0.00202c2.91277,-0.10531 7.21839,-0.64292 9.82417,-0.92105c0.92985,-0.09925 1.85191,-0.3167 2.78991,-0.29563c0.50596,0.01137 1.01052,0.03881 1.51426,0.07606c0,3.2621 0,8.38457 0,11.16338c0,1.19017 -0.86276,1.95042 -2.44116,1.95042c-16.18547,0 -107.62267,0 -115.70212,0c-1.12498,0 -1.90155,-0.65701 -1.90155,-1.70661z" fill="#000000" stroke="#d9d9d9" stroke-width="5"/><path d="M251.11871,177.72348c1.5784,0 2.44116,0.76024 2.44116,1.95042c0,2.77881 0,7.90128 0,11.16338c-0.50372,0.03726 -1.0083,0.06469 -1.51426,0.07606c-0.938,0.02108 -1.86006,-0.19638 -2.78991,-0.29563c-2.60578,-0.27813 -6.9114,-0.81574 -9.82417,-0.92105c-3.22811,-0.11671 -6.46314,0.01786 -9.69456,-0.00202c-5.51257,-0.03391 -11.25941,-0.18317 -16.7656,-0.47189c-0.54464,-0.02856 -1.06133,-0.23151 -1.60676,-0.24848c-6.22709,-0.19374 -12.45626,0.29029 -18.67309,0.47671c-1.83623,0.05506 -3.50479,-0.18355 -5.35851,-0.2414c-3.34296,-0.10432 -6.73067,-0.00303 -10.08071,-0.00303c-1.56314,0.01349 -3.07604,-0.24194 -4.6529,-0.2438c-2.28609,-0.00271 -4.5864,0.24566 -6.85804,0.04399c-0.55329,-0.04912 -1.00329,-0.40867 -1.55097,-0.4876c-0.39379,-0.05675 -3.48236,-0.04399 -3.99873,-0.04399c-2.83993,0 -5.71088,0.12782 -8.54485,0.0025c-4.36819,-0.19317 -8.82929,-0.88227 -13.2161,-0.47385c-1.67104,0.15558 -3.27559,0.60208 -4.91567,0.90264c0,-3.23933 0,-7.24499 0,-9.47635c0,-1.0496 0.77657,-1.70661 1.90155,-1.70661c0,0 99.51662,0.00001 115.70211,0.00001z" data-paper-data="{&quot;index&quot;:null}" fill="#000000" stroke="#000000" stroke-width="15"/><path d="M251.11871,177.72348c1.5784,0 2.44116,0.76024 2.44116,1.95042c0,2.77881 0,21.79799 0,25.06009c-0.50372,0.03726 -1.0083,-13.83202 -1.51426,-13.82065c-0.938,0.02108 -1.86006,-0.19638 -2.78991,-0.29563c-2.60578,-0.27813 -6.9114,-0.81574 -9.82417,-0.92105c-3.22811,-0.11671 -6.46314,0.01786 -9.69456,-0.00202c-5.51257,-0.03391 -11.25941,-0.18317 -16.7656,-0.47189c-0.54464,-0.02856 -1.06133,-0.23151 -1.60676,-0.24848c-6.22709,-0.19374 -12.45626,0.29029 -18.67309,0.47671c-1.83623,0.05506 -3.50479,-0.18355 -5.35851,-0.2414c-3.34296,-0.10432 -6.73067,-0.00303 -10.08071,-0.00303c-1.56314,0.01349 -3.07604,-0.24194 -4.6529,-0.2438c-2.28609,-0.00271 -4.5864,0.24566 -6.85804,0.04399c-0.55329,-0.04912 -1.00329,-0.40867 -1.55097,-0.4876c-0.39379,-0.05675 -3.48236,-0.04399 -3.99873,-0.04399c-2.83993,0 -5.71088,0.12782 -8.54485,0.0025c-4.36819,-0.19317 -8.82929,-0.88227 -13.2161,-0.47385c-1.67104,0.15558 -3.27559,14.9864 -4.91567,15.28696c0,-3.23933 0,-21.62931 0,-23.86067c0,-1.0496 0.77657,-1.70661 1.90155,-1.70661c0,0 99.51662,0.00001 115.70211,0.00001z" data-paper-data="{&quot;index&quot;:null}" fill="#000000" stroke="#d9d9d9" stroke-width="5"/><path d="M232.84627,186.65385c8.07945,0 99.51665,0 115.70212,0c1.5784,0 2.44115,1.74485 2.44115,4.47643c0,6.37768 0,18.13432 0,25.6212c-0.50372,0.08551 -1.0083,0.14848 -1.51425,0.17458c-0.938,0.04837 -1.86006,-0.45071 -2.78991,-0.67849c-2.60577,-0.63833 -6.91141,-1.87221 -9.82417,-2.11391c-3.2281,-0.26785 -6.46314,0.04099 -9.69455,-0.00463c-5.51256,-0.07782 -11.25941,-0.42039 -16.76559,-1.08304c-0.54464,-0.06554 -1.06133,-0.53135 -1.60676,-0.5703c-6.22709,-0.44464 -12.45626,0.66625 -18.6731,1.09411c-1.83623,0.12638 -3.50479,-0.42128 -5.35852,-0.55405c-3.34296,-0.23944 -6.73066,-0.00695 -10.08071,-0.00695c-1.56314,0.03096 -3.07604,-0.55527 -4.6529,-0.55955c-2.28609,-0.00621 -4.5864,0.56381 -6.85804,0.10095c-0.55329,-0.11273 -1.00328,-0.93795 -1.55096,-1.11911c-0.39379,-0.13025 -3.48236,-0.10096 -3.99873,-0.10096c-2.83993,0 -5.71087,0.29339 -8.54485,0.00575c-4.36819,-0.44333 -8.82929,-2.02492 -13.21611,-1.08754c-1.67104,0.35707 -3.27559,1.38185 -4.91567,2.07167c0,-7.43464 0,-16.62806 0,-21.74928c0,-2.40895 0.77658,-3.91687 1.90155,-3.91687z" data-paper-data="{&quot;index&quot;:null}" fill="#000000" stroke="#000000" stroke-width="15"/><path d="M232.84627,203.73805c8.07945,0 99.51665,0 115.70212,0c1.5784,0 2.44115,0.76024 2.44115,1.95042c0,2.7788 0,21.798 0,25.06009c-0.50372,0.03726 -1.0083,-13.83202 -1.51425,-13.82065c-0.938,0.02107 -1.86006,-0.19638 -2.78991,-0.29563c-2.60577,-0.27812 -6.91141,-0.81574 -9.82417,-0.92105c-3.2281,-0.11671 -6.46314,0.01786 -9.69455,-0.00202c-5.51256,-0.03391 -11.25941,-0.18317 -16.76559,-0.47189c-0.54464,-0.02856 -1.06133,-0.23151 -1.60676,-0.24848c-6.22709,-0.19374 -12.45626,0.29028 -18.6731,0.47671c-1.83623,0.05507 -3.50479,-0.18356 -5.35852,-0.2414c-3.34296,-0.10433 -6.73066,-0.00302 -10.08071,-0.00302c-1.56314,0.01349 -3.07604,-0.24194 -4.6529,-0.2438c-2.28609,-0.0027 -4.5864,0.24565 -6.85804,0.04399c-0.55329,-0.04912 -1.00328,-0.40867 -1.55096,-0.48761c-0.39379,-0.05675 -3.48236,-0.04399 -3.99873,-0.04399c-2.83993,0 -5.71087,0.12783 -8.54485,0.00251c-4.36819,-0.19317 -8.82929,-0.88227 -13.21611,-0.47385c-1.67104,0.15558 -3.27559,14.9864 -4.91567,15.28696c0,-3.23933 0,-21.62931 0,-23.86067c0,-1.04961 0.77658,-1.70662 1.90155,-1.70662z" data-paper-data="{&quot;index&quot;:null}" fill="#000000" stroke="#d9d9d9" stroke-width="5"/><path d="M232.84627,203.73805c8.07945,0 99.51665,0 115.70212,0c1.5784,0 2.44115,0.76024 2.44115,1.95042c0,2.7788 0,19.11617 0,22.37827c-0.50372,0.03726 -1.0083,0.30849 -1.51425,0.31986c-0.938,0.02107 -24.68757,3.83656 -27.94134,3.79342c-1.16054,-0.01539 -88.94915,-4.15045 -90.58923,-3.84989c0,-3.23933 0,-20.6541 0,-22.88546c0,-1.04961 0.77658,-1.70662 1.90155,-1.70662z" data-paper-data="{&quot;index&quot;:null}" fill="#000000" stroke="none" stroke-width="0"/><path d="M230.94471,239.12851c0,-2.23136 0,-6.23701 0,-9.47635c1.64008,0.30056 3.24463,0.74707 4.91567,0.90265c4.38682,0.40843 8.84792,-0.28068 13.21611,-0.47385c2.83398,-0.12532 5.70492,0.0025 8.54485,0.0025c0.51636,0 3.60494,0.01276 3.99873,-0.04399c0.54768,-0.07894 0.99767,-0.43849 1.55096,-0.4876c2.27165,-0.20167 4.57196,0.04669 6.85804,0.04399c1.57686,-0.00187 3.08977,-0.25729 4.6529,-0.2438c3.35004,0 6.73774,0.10129 10.0807,-0.00302c1.85373,-0.05785 3.52229,-0.29647 5.35852,-0.24141c6.21684,0.18642 12.44601,0.67045 18.67309,0.47671c0.54543,-0.01697 1.06212,-0.21992 1.60676,-0.24849c5.50619,-0.28872 11.25303,-0.43797 16.7656,-0.47188c3.23142,-0.01988 6.46645,0.11469 9.69456,-0.00202c2.91276,-0.10531 7.21839,-0.64292 9.82417,-0.92104c0.92985,-0.09925 1.85191,-0.3167 2.78991,-0.29563c0.50596,0.01137 1.01052,0.03881 1.51425,0.07606c0,3.26211 0,8.38458 0,11.16338c0,1.19018 -0.86275,1.95042 -2.44116,1.95042c-16.18547,0 -107.62267,0 -115.70212,0c-1.12498,0 -1.90155,-0.65701 -1.90155,-1.70661z" fill="#000000" stroke="#d9d9d9" stroke-width="5"/><path d="M350.98955,179.67389c0,2.77881 0,21.79799 0,25.06009c-0.50372,0.03725 -1.0083,-13.83202 -1.51425,-13.82065c-0.938,0.02107 -1.86006,-0.19637 -2.78991,-0.29563c-2.60577,-0.27812 -6.91141,-0.81575 -9.82417,-0.92105c-3.2281,-0.11671 -6.46313,0.01786 -9.69455,-0.00202c-5.51256,-0.03391 -11.25941,-0.18317 -16.76559,-0.47189c-0.54464,-0.02856 -1.06133,-0.23151 -1.60676,-0.24848c-6.22709,-0.19374 -12.45627,0.29029 -18.6731,0.47671c-1.83623,0.05506 -3.50478,-0.18356 -5.35851,-0.24141c-3.34296,-0.10432 -6.73067,-0.00303 -10.08071,-0.00303c-1.56314,0.0135 -3.07604,-0.24193 -4.65289,-0.2438c-2.28609,-0.0027 -4.5864,0.24567 -6.85804,0.04399c-0.55329,-0.04912 -1.00329,-0.40867 -1.55097,-0.48761c-0.39379,-0.05676 -3.48236,-0.04399 -3.99873,-0.04399c-2.83993,0 -5.71088,0.12783 -8.54485,0.00251c-4.36819,-0.19317 -8.82929,-0.88228 -13.21611,-0.47386c-1.67104,0.15558 -3.27559,14.9864 -4.91567,15.28696c0,-3.23934 0,-21.62931 0,-23.86067c0,-1.04961 0.77657,-1.70661 1.90155,-1.70661c0,0 99.51663,0 115.70211,0c0,0 2.44115,0.76026 2.44115,1.95044z" data-paper-data="{&quot;index&quot;:null}" fill="#000000" stroke="#d9d9d9" stroke-width="5"/><path d="M232.84627,177.72347c8.07945,0 99.51665,0 115.70212,0c1.5784,0 2.44116,0.76024 2.44116,1.95042c0,2.77881 0,19.11616 0,22.37827c-0.50372,0.03725 -1.0083,0.30849 -1.51425,0.31987c-0.938,0.02107 -24.68758,3.83655 -27.94135,3.79341c-1.16054,-0.01539 -88.94914,-4.15045 -90.58922,-3.84989c0,-3.23934 0,-20.6541 0,-22.88546c0,-1.04961 0.77658,-1.70661 1.90155,-1.70661z" data-paper-data="{&quot;index&quot;:null}" fill="#000000" stroke="none" stroke-width="0"/><path d="M230.94471,239.12851c0,-2.23136 0,-9.65024 0,-12.88958c1.64008,0.30056 9.0886,-1.39649 10.24915,-1.41188c3.25377,-0.04314 107.34342,0.35911 108.28142,0.38018c0.50596,0.01137 1.01052,-2.64301 1.51425,-2.60576c0,3.26211 0,13.50441 0,16.28322c0,1.19017 -0.86275,1.95042 -2.44116,1.95042c-16.18547,0 -107.62267,0 -115.70212,0c-1.12498,0 -1.90155,-0.65701 -1.90155,-1.70662z" fill="#000000" stroke="none" stroke-width="0"/><path d="M232.84627,195.58423c8.07945,0 99.51665,0 115.70212,0c1.5784,0 2.44116,0.97407 2.44116,2.499c0,3.56041 0,24.49298 0,28.67263c-0.50372,0.04774 -1.0083,0.39527 -1.51425,0.40984c-0.938,0.027 -24.68758,4.91566 -27.94135,4.86039c-1.16054,-0.01971 -88.94914,-5.31786 -90.58922,-4.93276c0,-4.15046 0,-26.4635 0,-29.32247c0,-1.34483 0.77658,-2.18663 1.90155,-2.18663z" data-paper-data="{&quot;index&quot;:null}" fill="#000000" stroke="none" stroke-width="0"/><path d="M135.4166,177.72348c8.07945,0 99.51665,0 115.70212,0c1.5784,0 2.44116,0.76024 2.44116,1.95042c0,2.77881 0,19.11617 0,22.37827c-0.50372,0.03726 -1.0083,0.3085 -1.51426,0.31987c-0.938,0.02108 -24.68758,3.83656 -27.94135,3.79341c-1.16054,-0.01539 -88.94914,-4.15045 -90.58922,-3.84989c0,-3.23933 0,-20.6541 0,-22.88546c0,-1.0496 0.77657,-1.70661 1.90155,-1.70661z" data-paper-data="{&quot;index&quot;:null}" fill="#000000" stroke="none" stroke-width="0"/><path d="M133.51503,239.12851c0,-2.23136 0,-9.65024 0,-12.88958c1.64008,0.30056 9.0886,-1.39649 10.24915,-1.41187c3.25377,-0.04314 107.34342,0.35911 108.28142,0.38019c0.50596,0.01137 1.01052,-2.64301 1.51426,-2.60576c0,3.2621 0,13.50442 0,16.28322c0,1.19017 -0.86276,1.95042 -2.44116,1.95042c-16.18547,0 -107.62267,0 -115.70212,0c-1.12498,0 -1.90155,-0.65701 -1.90155,-1.70661z" fill="#000000" stroke="none" stroke-width="0"/><path d="M135.4166,195.58423c8.07945,0 99.51665,0 115.70212,0c1.5784,0 2.44116,0.76024 2.44116,1.95042c0,2.77881 0,19.11617 0,22.37827c-0.50372,0.03726 -1.0083,0.3085 -1.51426,0.31987c-0.938,0.02108 -24.68758,3.83656 -27.94135,3.79341c-1.16054,-0.01539 -88.94914,-4.15045 -90.58922,-3.84989c0,-3.23933 0,-20.6541 0,-22.88546c0,-1.0496 0.77657,-1.70661 1.90155,-1.70661z" data-paper-data="{&quot;index&quot;:null}" fill="#000000" stroke="none" stroke-width="0"/><path d="M337.14496,225.1095v-4.5h4.45311v4.5z" fill="#000000" stroke="#000000" stroke-width="15"/><path d="M213.73024,227.6095v-7h21.62938v7z" fill="#000000" stroke="#000000" stroke-width="15"/><path d="M118.50003,180.9793v-79h243v79h-5.25c0,0 30.88515,-18.6722 -136.5,-14c-117.03833,3.26688 -93.5,14 -93.5,14z" fill="#000000" stroke="none" stroke-width="0"/><path d="M230.94471,162.1285c0,-2.23136 0,-16.7205 0,-19.95984c0.67339,0.1234 1.3408,10.7549 2.00927,10.89727c0.95963,0.20439 1.92147,0.39715 2.9064,0.48886c4.38682,0.40843 8.84791,-0.28068 13.2161,-0.47385c2.83398,-0.12532 5.70492,0.0025 8.54485,0.0025c0.51636,0 3.60493,0.01276 3.99873,-0.04399c0.54768,-0.07894 0.99767,-0.43849 1.55096,-0.4876c2.27165,-0.20167 4.57196,0.04669 6.85804,0.04399c1.57686,-0.00187 3.08977,-0.25729 4.6529,-0.2438c3.35004,0 6.73774,0.10129 10.0807,-0.00302c1.85373,-0.05785 3.52229,-0.29647 5.35852,-0.24141c6.21684,0.18642 12.44601,0.67045 18.6731,0.47671c0.54543,-0.01697 1.06211,-0.21992 1.60676,-0.24849c5.50619,-0.28872 11.25303,-0.43797 16.7656,-0.47188c3.23142,-0.01988 6.46645,0.11469 9.69456,-0.00202c2.91276,-0.10531 7.21839,-0.64292 9.82417,-0.92104c0.92985,-0.09925 1.85191,-0.8043 2.78991,-0.78323c0.50596,0.01137 1.01052,-7.76286 1.51425,-7.7256c0,3.26211 0,16.67385 0,19.45265c0,1.19018 -0.86275,1.95042 -2.44116,1.95042c-16.18547,0 -107.62267,0 -115.70212,0c-1.12498,0 -1.90155,-0.65701 -1.90155,-1.70662z" fill="#000000" stroke="#000000" stroke-width="5"/><path d="M350.98955,102.67389c0,2.77881 0,7.90127 0,11.16338c-0.50372,0.03725 -1.0083,0.0647 -1.51425,0.07606c-0.938,0.02107 -1.86006,-0.19637 -2.78991,-0.29563c-2.60577,-0.27812 -6.91141,-0.81575 -9.82417,-0.92105c-3.2281,-0.11671 -6.46313,0.01786 -9.69455,-0.00202c-5.51256,-0.03391 -11.25941,-0.18317 -16.76559,-0.47189c-0.54464,-0.02856 -1.06133,-0.23151 -1.60676,-0.24848c-6.22709,-0.19374 -12.45627,0.29029 -18.6731,0.47671c-1.83623,0.05506 -3.50478,-0.18356 -5.35851,-0.24141c-3.34296,-0.10432 -6.73067,-0.00303 -10.08071,-0.00303c-1.56314,0.0135 -3.07604,-0.24193 -4.65289,-0.2438c-2.28609,-0.0027 -4.5864,0.24567 -6.85804,0.04399c-0.55329,-0.04912 -1.00329,-0.40867 -1.55097,-0.48761c-0.39379,-0.05676 -3.48236,-0.04399 -3.99873,-0.04399c-2.83993,0 -5.71088,0.12783 -8.54485,0.00251c-4.36819,-0.19317 -8.82929,-0.88228 -13.21611,-0.47386c-1.67104,0.15558 -3.27559,0.60209 -4.91567,0.90265c0,-3.23934 0,-7.245 0,-9.47636c0,-1.04961 0.77657,-1.70661 1.90155,-1.70661c0,0 99.51663,0 115.70211,0c0,0 2.44115,0.76026 2.44115,1.95044z" data-paper-data="{&quot;index&quot;:null}" fill="#000000" stroke="#000000" stroke-width="5"/><path d="M133.51503,162.1285c0,-2.23136 0,-16.7205 0,-19.95984c0.67339,0.12341 1.34079,10.7549 2.00927,10.89728c0.95963,0.20439 1.92147,0.39715 2.90639,0.48885c4.38682,0.40842 8.84792,-0.28069 13.2161,-0.47385c2.83397,-0.12532 5.70492,0.0025 8.54485,0.0025c0.51637,0 3.60493,0.01276 3.99873,-0.04399c0.54768,-0.07893 0.99767,-0.43849 1.55097,-0.4876c2.27165,-0.20167 4.57196,0.04669 6.85804,0.04399c1.57686,-0.00186 3.08977,-0.2573 4.6529,-0.2438c3.35004,0 6.73774,0.1013 10.08071,-0.00302c1.85374,-0.05785 3.52228,-0.29647 5.35851,-0.2414c6.21685,0.18642 12.44601,0.67045 18.67309,0.47671c0.54543,-0.01697 1.06212,-0.21992 1.60676,-0.24848c5.50618,-0.28872 11.25303,-0.43798 16.7656,-0.47188c3.23142,-0.01988 6.46645,0.11469 9.69456,-0.00202c2.91277,-0.10531 7.21839,-0.64292 9.82417,-0.92105c0.92985,-0.09925 1.85191,-0.8043 2.78991,-0.78323c0.50596,0.01137 1.01052,-7.76285 1.51426,-7.7256c0,3.2621 0,16.67384 0,19.45265c0,1.19017 -0.86276,1.95042 -2.44116,1.95042c-16.18547,0 -107.62267,0 -115.70212,0c-1.12498,0 -1.90155,-0.65701 -1.90155,-1.70661z" fill="#000000" stroke="#000000" stroke-width="5"/><path d="M135.4166,109.65385c8.07945,0 99.51665,0 115.70212,0c1.5784,0 2.44116,1.74484 2.44116,4.47643c0,6.37767 0,18.13432 0,25.62121c-0.50372,0.08551 -1.0083,0.14848 -1.51426,0.17457c-0.938,0.04837 -1.86006,-0.45071 -2.78991,-0.6785c-2.60578,-0.63833 -6.9114,-1.87221 -9.82417,-2.11391c-3.22811,-0.26786 -6.46314,0.04099 -9.69456,-0.00463c-5.51257,-0.07782 -11.25941,-0.42039 -16.7656,-1.08304c-0.54464,-0.06555 -1.06133,-0.53135 -1.60676,-0.57029c-6.22709,-0.44464 -12.45626,0.66624 -18.67311,1.09411c-1.83623,0.12638 -3.50479,-0.42128 -5.35851,-0.55406c-3.34296,-0.23944 -6.73067,-0.00694 -10.08071,-0.00694c-1.56314,0.03096 -3.07604,-0.55527 -4.6529,-0.55955c-2.28609,-0.00621 -4.5864,0.56381 -6.85804,0.10096c-0.55329,-0.11274 -1.00329,-0.93795 -1.55097,-1.11911c-0.39379,-0.13025 -3.48236,-0.10096 -3.99873,-0.10096c-2.83993,0 -5.71087,0.29338 -8.54485,0.00575c-4.36819,-0.44333 -8.82929,-2.02492 -13.2161,-1.08755c-1.67104,0.35707 -3.27559,1.38185 -4.91567,2.07167c0,-7.43464 0,-16.62806 0,-21.74928c0,-2.40896 0.77657,-3.91687 1.90155,-3.91687z" data-paper-data="{&quot;index&quot;:null}" fill="#000000" stroke="#000000" stroke-width="5"/><path d="M135.4166,126.73804c8.07945,0 99.51665,0 115.70212,0c1.5784,0 2.44116,0.76024 2.44116,1.95042c0,2.77881 0,21.79799 0,25.06009c-0.50372,0.03726 -1.0083,-13.83202 -1.51426,-13.82065c-0.938,0.02108 -1.86006,-0.19638 -2.78991,-0.29563c-2.60578,-0.27813 -6.9114,-0.81574 -9.82417,-0.92105c-3.22811,-0.11671 -6.46314,0.01786 -9.69456,-0.00202c-5.51257,-0.03391 -11.25941,-0.18317 -16.7656,-0.47189c-0.54464,-0.02856 -1.06133,-0.23151 -1.60676,-0.24848c-6.22709,-0.19373 -12.45626,0.29029 -18.67311,0.47671c-1.83623,0.05507 -3.50479,-0.18356 -5.35851,-0.24141c-3.34296,-0.10433 -6.73067,-0.00302 -10.08071,-0.00302c-1.56314,0.01349 -3.07604,-0.24194 -4.6529,-0.2438c-2.28609,-0.00271 -4.5864,0.24566 -6.85804,0.04399c-0.55329,-0.04912 -1.00329,-0.40867 -1.55097,-0.48761c-0.39379,-0.05675 -3.48236,-0.04399 -3.99873,-0.04399c-2.83993,0 -5.71087,0.12783 -8.54485,0.0025c-4.36819,-0.19316 -8.82929,-0.88227 -13.2161,-0.47385c-1.67104,0.15558 -3.27559,14.9864 -4.91567,15.28696c0,-3.23933 0,-21.62931 0,-23.86067c0,-1.0496 0.77657,-1.70661 1.90155,-1.70661z" data-paper-data="{&quot;index&quot;:null}" fill="#000000" stroke="#d9d9d9" stroke-width="5"/><path d="M135.4166,126.73804c8.07945,0 99.51665,0 115.70212,0c1.5784,0 2.44116,0.76024 2.44116,1.95042c0,2.77881 0,19.11617 0,22.37827c-0.50372,0.03726 -1.0083,0.3085 -1.51426,0.31987c-0.938,0.02108 -24.68758,3.83656 -27.94135,3.79341c-1.16054,-0.01539 -88.94914,-4.15045 -90.58922,-3.84989c0,-3.23933 0,-20.6541 0,-22.88546c0,-1.0496 0.77657,-1.70661 1.90155,-1.70661z" data-paper-data="{&quot;index&quot;:null}" fill="#000000" stroke="none" stroke-width="5"/><path d="M133.51503,162.1285c0,-2.23136 0,-6.23701 0,-9.47635c1.64008,0.30056 3.24464,0.74706 4.91567,0.90264c4.38682,0.40842 8.84792,-0.28069 13.2161,-0.47385c2.83397,-0.12532 5.70492,0.0025 8.54485,0.0025c0.51637,0 3.60493,0.01276 3.99873,-0.04399c0.54768,-0.07893 0.99767,-0.43849 1.55097,-0.4876c2.27165,-0.20167 4.57196,0.04669 6.85804,0.04399c1.57686,-0.00186 3.08977,-0.2573 4.6529,-0.2438c3.35004,0 6.73774,0.1013 10.08071,-0.00302c1.85374,-0.05785 3.52228,-0.29647 5.35851,-0.2414c6.21685,0.18642 12.44601,0.67045 18.67309,0.47671c0.54543,-0.01697 1.06212,-0.21992 1.60676,-0.24848c5.50618,-0.28872 11.25303,-0.43798 16.7656,-0.47188c3.23142,-0.01988 6.46645,0.11469 9.69456,-0.00202c2.91277,-0.10531 7.21839,-0.64292 9.82417,-0.92105c0.92985,-0.09925 1.85191,-0.3167 2.78991,-0.29563c0.50596,0.01137 1.01052,0.03881 1.51426,0.07606c0,3.2621 0,8.38457 0,11.16338c0,1.19017 -0.86276,1.95042 -2.44116,1.95042c-16.18547,0 -107.62267,0 -115.70212,0c-1.12498,0 -1.90155,-0.65701 -1.90155,-1.70661z" fill="#000000" stroke="#d9d9d9" stroke-width="5"/><path d="M251.11871,100.72348c1.5784,0 2.44116,0.76024 2.44116,1.95042c0,2.77881 0,7.90128 0,11.16338c-0.50372,0.03726 -1.0083,0.06469 -1.51426,0.07606c-0.938,0.02108 -1.86006,-0.19638 -2.78991,-0.29563c-2.60578,-0.27813 -6.9114,-0.81574 -9.82417,-0.92105c-3.22811,-0.11671 -6.46314,0.01786 -9.69456,-0.00202c-5.51257,-0.03391 -11.25941,-0.18317 -16.7656,-0.47189c-0.54464,-0.02856 -1.06133,-0.23151 -1.60676,-0.24848c-6.22709,-0.19374 -12.45626,0.29029 -18.67309,0.47671c-1.83623,0.05506 -3.50479,-0.18355 -5.35851,-0.2414c-3.34296,-0.10432 -6.73067,-0.00303 -10.08071,-0.00303c-1.56314,0.01349 -3.07604,-0.24194 -4.6529,-0.2438c-2.28609,-0.00271 -4.5864,0.24566 -6.85804,0.04399c-0.55329,-0.04912 -1.00329,-0.40867 -1.55097,-0.4876c-0.39379,-0.05675 -3.48236,-0.04399 -3.99873,-0.04399c-2.83993,0 -5.71088,0.12782 -8.54485,0.0025c-4.36819,-0.19317 -8.82929,-0.88227 -13.2161,-0.47385c-1.67104,0.15558 -3.27559,0.60208 -4.91567,0.90264c0,-3.23933 0,-7.24499 0,-9.47635c0,-1.0496 0.77657,-1.70661 1.90155,-1.70661c0,0 99.51662,0.00001 115.70211,0.00001z" data-paper-data="{&quot;index&quot;:null}" fill="#000000" stroke="#000000" stroke-width="5"/><path d="M251.11871,100.72348c1.5784,0 2.44116,0.76024 2.44116,1.95042c0,2.77881 0,21.79799 0,25.06009c-0.50372,0.03726 -1.0083,-13.83202 -1.51426,-13.82065c-0.938,0.02108 -1.86006,-0.19638 -2.78991,-0.29563c-2.60578,-0.27813 -6.9114,-0.81574 -9.82417,-0.92105c-3.22811,-0.11671 -6.46314,0.01786 -9.69456,-0.00202c-5.51257,-0.03391 -11.25941,-0.18317 -16.7656,-0.47189c-0.54464,-0.02856 -1.06133,-0.23151 -1.60676,-0.24848c-6.22709,-0.19374 -12.45626,0.29029 -18.67309,0.47671c-1.83623,0.05506 -3.50479,-0.18355 -5.35851,-0.2414c-3.34296,-0.10432 -6.73067,-0.00303 -10.08071,-0.00303c-1.56314,0.01349 -3.07604,-0.24194 -4.6529,-0.2438c-2.28609,-0.00271 -4.5864,0.24566 -6.85804,0.04399c-0.55329,-0.04912 -1.00329,-0.40867 -1.55097,-0.4876c-0.39379,-0.05675 -3.48236,-0.04399 -3.99873,-0.04399c-2.83993,0 -5.71088,0.12782 -8.54485,0.0025c-4.36819,-0.19317 -8.82929,-0.88227 -13.2161,-0.47385c-1.67104,0.15558 -3.27559,14.9864 -4.91567,15.28696c0,-3.23933 0,-21.62931 0,-23.86067c0,-1.0496 0.77657,-1.70661 1.90155,-1.70661c0,0 99.51662,0.00001 115.70211,0.00001z" data-paper-data="{&quot;index&quot;:null}" fill="#000000" stroke="#d9d9d9" stroke-width="5"/><path d="M232.84627,109.65385c8.07945,0 99.51665,0 115.70212,0c1.5784,0 2.44115,1.74485 2.44115,4.47643c0,6.37768 0,18.13432 0,25.6212c-0.50372,0.08551 -1.0083,0.14848 -1.51425,0.17458c-0.938,0.04837 -1.86006,-0.45071 -2.78991,-0.67849c-2.60577,-0.63833 -6.91141,-1.87221 -9.82417,-2.11391c-3.2281,-0.26785 -6.46314,0.04099 -9.69455,-0.00463c-5.51256,-0.07782 -11.25941,-0.42039 -16.76559,-1.08304c-0.54464,-0.06554 -1.06133,-0.53135 -1.60676,-0.5703c-6.22709,-0.44464 -12.45626,0.66625 -18.6731,1.09411c-1.83623,0.12638 -3.50479,-0.42128 -5.35852,-0.55405c-3.34296,-0.23944 -6.73066,-0.00695 -10.08071,-0.00695c-1.56314,0.03096 -3.07604,-0.55527 -4.6529,-0.55955c-2.28609,-0.00621 -4.5864,0.56381 -6.85804,0.10095c-0.55329,-0.11273 -1.00328,-0.93795 -1.55096,-1.11911c-0.39379,-0.13025 -3.48236,-0.10096 -3.99873,-0.10096c-2.83993,0 -5.71087,0.29339 -8.54485,0.00575c-4.36819,-0.44333 -8.82929,-2.02492 -13.21611,-1.08754c-1.67104,0.35707 -3.27559,1.38185 -4.91567,2.07167c0,-7.43464 0,-16.62806 0,-21.74928c0,-2.40895 0.77658,-3.91687 1.90155,-3.91687z" data-paper-data="{&quot;index&quot;:null}" fill="#000000" stroke="#000000" stroke-width="5"/><path d="M232.84627,126.73804c8.07945,0 99.51665,0 115.70212,0c1.5784,0 2.44115,0.76024 2.44115,1.95042c0,2.7788 0,21.798 0,25.06009c-0.50372,0.03726 -1.0083,-13.83202 -1.51425,-13.82065c-0.938,0.02107 -1.86006,-0.19638 -2.78991,-0.29563c-2.60577,-0.27812 -6.91141,-0.81574 -9.82417,-0.92105c-3.2281,-0.11671 -6.46314,0.01786 -9.69455,-0.00202c-5.51256,-0.03391 -11.25941,-0.18317 -16.76559,-0.47189c-0.54464,-0.02856 -1.06133,-0.23151 -1.60676,-0.24848c-6.22709,-0.19374 -12.45626,0.29028 -18.6731,0.47671c-1.83623,0.05507 -3.50479,-0.18356 -5.35852,-0.2414c-3.34296,-0.10433 -6.73066,-0.00302 -10.08071,-0.00302c-1.56314,0.01349 -3.07604,-0.24194 -4.6529,-0.2438c-2.28609,-0.0027 -4.5864,0.24565 -6.85804,0.04399c-0.55329,-0.04912 -1.00328,-0.40867 -1.55096,-0.48761c-0.39379,-0.05675 -3.48236,-0.04399 -3.99873,-0.04399c-2.83993,0 -5.71087,0.12783 -8.54485,0.00251c-4.36819,-0.19317 -8.82929,-0.88227 -13.21611,-0.47385c-1.67104,0.15558 -3.27559,14.9864 -4.91567,15.28696c0,-3.23933 0,-21.62931 0,-23.86067c0,-1.04961 0.77658,-1.70662 1.90155,-1.70662z" data-paper-data="{&quot;index&quot;:null}" fill="#000000" stroke="#d9d9d9" stroke-width="5"/><path d="M232.84627,126.73804c8.07945,0 99.51665,0 115.70212,0c1.5784,0 2.44115,0.76024 2.44115,1.95042c0,2.7788 0,19.11617 0,22.37827c-0.50372,0.03726 -1.0083,0.30849 -1.51425,0.31986c-0.938,0.02107 -24.68757,3.83656 -27.94134,3.79342c-1.16054,-0.01539 -88.94915,-4.15045 -90.58923,-3.84989c0,-3.23933 0,-20.6541 0,-22.88546c0,-1.04961 0.77658,-1.70662 1.90155,-1.70662z" data-paper-data="{&quot;index&quot;:null}" fill="#000000" stroke="none" stroke-width="5"/><path d="M230.94471,162.1285c0,-2.23136 0,-6.23701 0,-9.47635c1.64008,0.30056 3.24463,0.74707 4.91567,0.90265c4.38682,0.40843 8.84792,-0.28068 13.21611,-0.47385c2.83398,-0.12532 5.70492,0.0025 8.54485,0.0025c0.51636,0 3.60494,0.01276 3.99873,-0.04399c0.54768,-0.07894 0.99767,-0.43849 1.55096,-0.4876c2.27165,-0.20167 4.57196,0.04669 6.85804,0.04399c1.57686,-0.00187 3.08977,-0.25729 4.6529,-0.2438c3.35004,0 6.73774,0.10129 10.0807,-0.00302c1.85373,-0.05785 3.52229,-0.29647 5.35852,-0.24141c6.21684,0.18642 12.44601,0.67045 18.67309,0.47671c0.54543,-0.01697 1.06212,-0.21992 1.60676,-0.24849c5.50619,-0.28872 11.25303,-0.43797 16.7656,-0.47188c3.23142,-0.01988 6.46645,0.11469 9.69456,-0.00202c2.91276,-0.10531 7.21839,-0.64292 9.82417,-0.92104c0.92985,-0.09925 1.85191,-0.3167 2.78991,-0.29563c0.50596,0.01137 1.01052,0.03881 1.51425,0.07606c0,3.26211 0,8.38458 0,11.16338c0,1.19018 -0.86275,1.95042 -2.44116,1.95042c-16.18547,0 -107.62267,0 -115.70212,0c-1.12498,0 -1.90155,-0.65701 -1.90155,-1.70661z" fill="#000000" stroke="#d9d9d9" stroke-width="5"/><path d="M350.98955,102.67389c0,2.77881 0,21.79799 0,25.06009c-0.50372,0.03725 -1.0083,-13.83202 -1.51425,-13.82065c-0.938,0.02107 -1.86006,-0.19637 -2.78991,-0.29563c-2.60577,-0.27812 -6.91141,-0.81575 -9.82417,-0.92105c-3.2281,-0.11671 -6.46313,0.01786 -9.69455,-0.00202c-5.51256,-0.03391 -11.25941,-0.18317 -16.76559,-0.47189c-0.54464,-0.02856 -1.06133,-0.23151 -1.60676,-0.24848c-6.22709,-0.19374 -12.45627,0.29029 -18.6731,0.47671c-1.83623,0.05506 -3.50478,-0.18356 -5.35851,-0.24141c-3.34296,-0.10432 -6.73067,-0.00303 -10.08071,-0.00303c-1.56314,0.0135 -3.07604,-0.24193 -4.65289,-0.2438c-2.28609,-0.0027 -4.5864,0.24567 -6.85804,0.04399c-0.55329,-0.04912 -1.00329,-0.40867 -1.55097,-0.48761c-0.39379,-0.05676 -3.48236,-0.04399 -3.99873,-0.04399c-2.83993,0 -5.71088,0.12783 -8.54485,0.00251c-4.36819,-0.19317 -8.82929,-0.88228 -13.21611,-0.47386c-1.67104,0.15558 -3.27559,14.9864 -4.91567,15.28696c0,-3.23934 0,-21.62931 0,-23.86067c0,-1.04961 0.77657,-1.70661 1.90155,-1.70661c0,0 99.51663,0 115.70211,0c0,0 2.44115,0.76026 2.44115,1.95044z" data-paper-data="{&quot;index&quot;:null}" fill="#000000" stroke="#d9d9d9" stroke-width="5"/><path d="M232.84627,100.72347c8.07945,0 99.51665,0 115.70212,0c1.5784,0 2.44116,0.76024 2.44116,1.95042c0,2.77881 0,19.11616 0,22.37827c-0.50372,0.03725 -1.0083,0.30849 -1.51425,0.31987c-0.938,0.02107 -24.68758,3.83655 -27.94135,3.79341c-1.16054,-0.01539 -88.94914,-4.15045 -90.58922,-3.84989c0,-3.23934 0,-20.6541 0,-22.88546c0,-1.04961 0.77658,-1.70661 1.90155,-1.70661z" data-paper-data="{&quot;index&quot;:null}" fill="#000000" stroke="none" stroke-width="5"/><path d="M230.94471,162.1285c0,-2.23136 0,-9.65024 0,-12.88958c1.64008,0.30056 9.0886,-1.39649 10.24915,-1.41188c3.25377,-0.04314 107.34342,0.35911 108.28142,0.38018c0.50596,0.01137 1.01052,-2.64301 1.51425,-2.60576c0,3.26211 0,13.50441 0,16.28322c0,1.19017 -0.86275,1.95042 -2.44116,1.95042c-16.18547,0 -107.62267,0 -115.70212,0c-1.12498,0 -1.90155,-0.65701 -1.90155,-1.70662z" fill="#000000" stroke="none" stroke-width="5"/><path d="M232.84627,118.58423c8.07945,0 99.51665,0 115.70212,0c1.5784,0 2.44116,0.97407 2.44116,2.499c0,3.56041 0,24.49298 0,28.67263c-0.50372,0.04774 -1.0083,0.39527 -1.51425,0.40984c-0.938,0.027 -24.68758,4.91566 -27.94135,4.86039c-1.16054,-0.01971 -88.94914,-5.31786 -90.58922,-4.93276c0,-4.15046 0,-26.4635 0,-29.32247c0,-1.34483 0.77658,-2.18663 1.90155,-2.18663z" data-paper-data="{&quot;index&quot;:null}" fill="#000000" stroke="none" stroke-width="5"/><path d="M135.4166,100.72348c8.07945,0 99.51665,0 115.70212,0c1.5784,0 2.44116,0.76024 2.44116,1.95042c0,2.77881 0,19.11617 0,22.37827c-0.50372,0.03726 -1.0083,0.3085 -1.51426,0.31987c-0.938,0.02108 -24.68758,3.83656 -27.94135,3.79341c-1.16054,-0.01539 -88.94914,-4.15045 -90.58922,-3.84989c0,-3.23933 0,-20.6541 0,-22.88546c0,-1.0496 0.77657,-1.70661 1.90155,-1.70661z" data-paper-data="{&quot;index&quot;:null}" fill="#000000" stroke="none" stroke-width="5"/><path d="M133.51503,162.1285c0,-2.23136 0,-9.65024 0,-12.88958c1.64008,0.30056 9.0886,-1.39649 10.24915,-1.41187c3.25377,-0.04314 107.34342,0.35911 108.28142,0.38019c0.50596,0.01137 1.01052,-2.64301 1.51426,-2.60576c0,3.2621 0,13.50442 0,16.28322c0,1.19017 -0.86276,1.95042 -2.44116,1.95042c-16.18547,0 -107.62267,0 -115.70212,0c-1.12498,0 -1.90155,-0.65701 -1.90155,-1.70661z" fill="#000000" stroke="none" stroke-width="5"/><path d="M135.4166,118.58423c8.07945,0 99.51665,0 115.70212,0c1.5784,0 2.44116,0.76024 2.44116,1.95042c0,2.77881 0,19.11617 0,22.37827c-0.50372,0.03726 -1.0083,0.3085 -1.51426,0.31987c-0.938,0.02108 -24.68758,3.83656 -27.94135,3.79341c-1.16054,-0.01539 -88.94914,-4.15045 -90.58922,-3.84989c0,-3.23933 0,-20.6541 0,-22.88546c0,-1.0496 0.77657,-1.70661 1.90155,-1.70661z" data-paper-data="{&quot;index&quot;:null}" fill="#000000" stroke="none" stroke-width="5"/><path d="M337.14496,148.1095v-4.5h4.45311v4.5z" fill="#000000" stroke="#000000" stroke-width="5"/><path d="M213.73024,150.6095v-7h21.62938v7z" fill="#000000" stroke="#000000" stroke-width="5"/><text transform="translate(217.5,81.16666) scale(0.5,0.5)" font-size="40" xml:space="preserve" fill="#ffffff" fill-rule="nonzero" stroke="none" stroke-width="1" stroke-linecap="butt" stroke-linejoin="miter" stroke-miterlimit="10" stroke-dasharray="" stroke-dashoffset="0" font-family="&quot;Microsoft YaHei&quot;, &quot;微软雅黑&quot;, STXihei, &quot;华文细黑&quot;" font-weight="normal" text-anchor="start" style="mix-blend-mode: normal"><tspan x="0" dy="0">设置</tspan></text><text transform="translate(218.5,119.16666) scale(0.5,0.5)" font-size="40" xml:space="preserve" fill="#d9d9d9" fill-rule="nonzero" stroke="none" stroke-width="1" stroke-linecap="butt" stroke-linejoin="miter" stroke-miterlimit="10" stroke-dasharray="" stroke-dashoffset="0" font-family="&quot;Microsoft YaHei&quot;, &quot;微软雅黑&quot;, STXihei, &quot;华文细黑&quot;" font-weight="normal" text-anchor="start" style="mix-blend-mode: normal"><tspan x="0" dy="0">控制</tspan></text><text transform="translate(220.5,196.66666) scale(0.5,0.5)" font-size="40" xml:space="preserve" fill="#d9d9d9" fill-rule="nonzero" stroke="none" stroke-width="1" stroke-linecap="butt" stroke-linejoin="miter" stroke-miterlimit="10" stroke-dasharray="" stroke-dashoffset="0" font-family="&quot;Microsoft YaHei&quot;, &quot;微软雅黑&quot;, STXihei, &quot;华文细黑&quot;" font-weight="normal" text-anchor="start" style="mix-blend-mode: normal"><tspan x="0" dy="0">声音</tspan></text></g></g></svg>