<svg version="1.1" xmlns="http://www.w3.org/2000/svg" xmlns:xlink="http://www.w3.org/1999/xlink" width="329.60677" height="105.73308" viewBox="0,0,329.60677,105.73308"><defs><linearGradient x1="126.69666" y1="8.50732" x2="126.69666" y2="96.50735" gradientUnits="userSpaceOnUse" id="color-1"><stop offset="0" stop-color="#34445f"/><stop offset="1" stop-color="#34445f"/></linearGradient><linearGradient x1="126.71233" y1="9.502" x2="126.71233" y2="95.05292" gradientUnits="userSpaceOnUse" id="color-2"><stop offset="0" stop-color="#34445f"/><stop offset="1" stop-color="#3f5273"/></linearGradient><linearGradient x1="126.71233" y1="9.50197" x2="126.71233" y2="95.05292" gradientUnits="userSpaceOnUse" id="color-3"><stop offset="0" stop-color="#957b31"/><stop offset="1" stop-color="#957b31" stop-opacity="0"/></linearGradient><linearGradient x1="119.26964" y1="27.36491" x2="119.26964" y2="32.80572" gradientUnits="userSpaceOnUse" id="color-4"><stop offset="0" stop-color="#45667d"/><stop offset="1" stop-color="#658a92"/></linearGradient><linearGradient x1="126.71233" y1="9.50197" x2="126.71233" y2="95.05288" gradientUnits="userSpaceOnUse" id="color-5"><stop offset="0" stop-color="#3f5273" stop-opacity="0"/><stop offset="1" stop-color="#3f5273" stop-opacity="0"/></linearGradient></defs><g transform="translate(-75.19666,-1.00734)"><g data-paper-data="{&quot;isPaintingLayer&quot;:true}" fill-rule="nonzero" stroke-linejoin="miter" stroke-miterlimit="10" stroke-dasharray="" stroke-dashoffset="0" style="mix-blend-mode: normal"><path d="M209.3743,24.3492c1.78987,0 3.15173,0.3891 4.08557,1.16731c0.93385,0.76848 1.57586,1.79473 1.92606,3.07877c0.35019,1.27431 0.52529,2.69453 0.52529,4.26067v9.57192c0,0.64202 -0.214,1.1819 -0.64202,1.61964c-0.41828,0.43774 -0.9533,0.65661 -1.60505,0.65661c-0.64202,0 -1.17703,-0.21887 -1.60505,-0.65661c-0.41828,-0.43774 -0.62743,-0.97762 -0.62743,-1.61964v-9.57192c0,-0.81711 -0.10214,-1.55641 -0.30642,-2.21788c-0.19455,-0.66148 -0.55447,-1.19162 -1.07976,-1.59046c-0.52529,-0.39883 -1.27431,-0.59824 -2.24707,-0.59824c-0.94357,0 -1.75096,0.19941 -2.42216,0.59824c-0.6712,0.39883 -1.17703,0.92898 -1.5175,1.59046c-0.33074,0.66148 -0.49611,1.40077 -0.49611,2.21788v9.57192c0,0.64202 -0.214,1.1819 -0.64202,1.61964c-0.41828,0.43774 -0.9533,0.65661 -1.60505,0.65661c-0.65174,0 -1.19162,-0.21887 -1.61964,-0.65661c-0.41828,-0.43774 -0.62743,-0.97762 -0.62743,-1.61964v-23.0835c0,-0.65174 0.20914,-1.19162 0.62743,-1.61964c0.42801,-0.43774 0.96789,-0.65661 1.61964,-0.65661c0.65174,0 1.18676,0.21887 1.60505,0.65661c0.42801,0.42801 0.64202,0.96789 0.64202,1.61964v9.2655l-0.56906,-0.11673c0.22374,-0.42801 0.53501,-0.88035 0.93385,-1.35699c0.39883,-0.48638 0.88521,-0.93871 1.45913,-1.35699c0.57393,-0.42801 1.20622,-0.77334 1.89687,-1.03599c0.70038,-0.26264 1.464,-0.39397 2.29084,-0.39397zM239.96005,34.72364c0,2.04279 -0.4572,3.84239 -1.37159,5.3988c-0.90466,1.55641 -2.12547,2.77235 -3.66243,3.64783c-1.52723,0.87548 -3.23441,1.31322 -5.12156,1.31322c-1.89687,0 -3.61379,-0.43774 -5.15074,-1.31322c-1.52723,-0.87548 -2.74317,-2.09143 -3.64783,-3.64783c-0.90466,-1.55641 -1.35699,-3.35601 -1.35699,-5.3988c0,-2.03306 0.45233,-3.8278 1.35699,-5.3842c0.90466,-1.55641 2.12061,-2.77722 3.64783,-3.66243c1.53696,-0.88521 3.25387,-1.32781 5.15074,-1.32781c1.88715,0 3.59433,0.44261 5.12156,1.32781c1.53696,0.88521 2.75776,2.10602 3.66243,3.66243c0.91439,1.55641 1.37159,3.35114 1.37159,5.3842zM235.48051,34.72364c0,-1.26458 -0.25778,-2.3638 -0.77334,-3.29764c-0.50583,-0.93385 -1.19162,-1.66341 -2.05738,-2.1887c-0.85602,-0.52529 -1.80446,-0.78793 -2.84531,-0.78793c-1.05058,0 -2.00388,0.26264 -2.8599,0.78793c-0.85602,0.52529 -1.54182,1.25486 -2.05738,2.1887c-0.50583,0.93385 -0.75875,2.03306 -0.75875,3.29764c0,1.24513 0.25292,2.33461 0.75875,3.26846c0.51556,0.93385 1.20136,1.66341 2.05738,2.1887c0.85602,0.52529 1.80933,0.78793 2.8599,0.78793c1.04085,0 1.98929,-0.26264 2.84531,-0.78793c0.86575,-0.52529 1.55155,-1.25486 2.05738,-2.1887c0.51556,-0.93385 0.77334,-2.02333 0.77334,-3.26846zM242.54036,41.61075c-0.25292,-0.35019 -0.36478,-0.79766 -0.3356,-1.3424c0.02918,-0.55447 0.35506,-1.03112 0.97762,-1.42995c0.39883,-0.25292 0.82198,-0.35992 1.26945,-0.32101c0.44747,0.03891 0.88035,0.27237 1.29863,0.70038c0.71984,0.71984 1.47859,1.27917 2.27625,1.678c0.79766,0.39883 1.79473,0.59824 2.99122,0.59824c0.37937,-0.02918 0.7928,-0.08755 1.24026,-0.1751c0.44747,-0.08755 0.83657,-0.28696 1.16731,-0.59824c0.34047,-0.31128 0.5107,-0.78793 0.5107,-1.42995c0,-0.55447 -0.18969,-0.99221 -0.56906,-1.31322c-0.36965,-0.32101 -0.86089,-0.59338 -1.47373,-0.81711c-0.60311,-0.22374 -1.27917,-0.43774 -2.0282,-0.64202c-0.77821,-0.22374 -1.571,-0.47179 -2.37839,-0.74416c-0.80739,-0.27237 -1.54668,-0.62743 -2.21788,-1.06517c-0.6712,-0.43774 -1.22081,-1.01653 -1.64882,-1.73637c-0.41828,-0.71984 -0.62743,-1.62936 -0.62743,-2.72858c0,-1.24513 0.34533,-2.30057 1.03599,-3.16632c0.70038,-0.87548 1.60505,-1.54668 2.71399,-2.0136c1.10894,-0.47665 2.27138,-0.71498 3.48733,-0.71498c0.77821,0 1.59046,0.09241 2.43675,0.27724c0.8463,0.18482 1.65369,0.48638 2.42216,0.90466c0.77821,0.40856 1.42509,0.94844 1.94065,1.61964c0.27237,0.36965 0.43287,0.81711 0.48151,1.3424c0.05837,0.52529 -0.1751,0.99708 -0.70038,1.41536c-0.36965,0.30155 -0.80739,0.43287 -1.31322,0.39397c-0.49611,-0.03891 -0.90466,-0.20428 -1.22567,-0.49611c-0.42801,-0.55447 -0.99708,-0.99221 -1.70719,-1.31322c-0.71011,-0.32101 -1.52236,-0.48151 -2.43675,-0.48151c-0.37937,0 -0.78793,0.04377 -1.22567,0.13132c-0.42801,0.08755 -0.80739,0.27237 -1.13812,0.55447c-0.32101,0.2821 -0.48151,0.73443 -0.48151,1.35699c0,0.57393 0.18482,1.03112 0.55447,1.37159c0.37937,0.33074 0.88521,0.60311 1.5175,0.81711c0.64202,0.214 1.32295,0.41828 2.04279,0.61284c0.74902,0.20428 1.50777,0.44261 2.27625,0.71498c0.76848,0.27237 1.47373,0.63229 2.11574,1.07976c0.65174,0.44747 1.17703,1.02626 1.57586,1.73637c0.39883,0.71011 0.59824,1.61477 0.59824,2.71399c0,1.27431 -0.37451,2.35893 -1.12353,3.25387c-0.73929,0.89494 -1.67314,1.57586 -2.80154,2.04279c-1.11867,0.4572 -2.26166,0.68579 -3.42896,0.68579c-1.46886,0 -2.93772,-0.25292 -4.40658,-0.75875c-1.46886,-0.51556 -2.68967,-1.42023 -3.66243,-2.71399zM261.93108,25.09335h8.84238c0.60311,0 1.10408,0.19941 1.50291,0.59824c0.39883,0.39883 0.59824,0.89494 0.59824,1.48832c0,0.57393 -0.19941,1.05544 -0.59824,1.44454c-0.39883,0.3891 -0.8998,0.58365 -1.50291,0.58365h-8.84238c-0.60311,0 -1.10408,-0.19941 -1.50291,-0.59824c-0.39883,-0.39883 -0.59824,-0.8998 -0.59824,-1.50291c0,-0.57393 0.19941,-1.05058 0.59824,-1.42995c0.39883,-0.3891 0.8998,-0.58365 1.50291,-0.58365zM265.92911,20.42413c0.64202,0 1.16731,0.21887 1.57586,0.65661c0.4183,0.43774 0.62746,0.97762 0.62746,1.61964v16.61953c0,0.35019 0.06809,0.63715 0.20428,0.86089c0.13619,0.22374 0.32101,0.3891 0.55447,0.49611c0.24319,0.09727 0.50097,0.14591 0.77334,0.14591c0.29183,0 0.5642,-0.0535 0.81711,-0.1605c0.25292,-0.11673 0.53988,-0.1751 0.86089,-0.1751c0.35019,0 0.66634,0.1605 0.94844,0.48151c0.29183,0.32101 0.43774,0.76848 0.43774,1.3424c0,0.70038 -0.38424,1.27431 -1.15272,1.72178c-0.75875,0.44747 -1.571,0.6712 -2.43675,0.6712c-0.52529,0 -1.10409,-0.04377 -1.7364,-0.13132c-0.63229,-0.08755 -1.23054,-0.29669 -1.79473,-0.62743c-0.5642,-0.34047 -1.03112,-0.85602 -1.40077,-1.54668c-0.36965,-0.70038 -0.55447,-1.66341 -0.55447,-2.88909v-16.80922c0,-0.64202 0.214,-1.1819 0.64202,-1.61964c0.43774,-0.43774 0.98249,-0.65661 1.63423,-0.65661z" fill="#ffffff" stroke="#000000" stroke-width="6.5" stroke-linecap="square"/><path d="M209.3743,24.34919c1.78987,0 3.15173,0.3891 4.08557,1.16731c0.93385,0.76848 1.57586,1.79473 1.92606,3.07877c0.35019,1.27431 0.52529,2.69453 0.52529,4.26067v9.57192c0,0.64202 -0.214,1.1819 -0.64202,1.61964c-0.41828,0.43774 -0.9533,0.65661 -1.60505,0.65661c-0.64202,0 -1.17703,-0.21887 -1.60505,-0.65661c-0.41828,-0.43774 -0.62743,-0.97762 -0.62743,-1.61964v-9.57192c0,-0.81711 -0.10214,-1.55641 -0.30642,-2.21788c-0.19455,-0.66148 -0.55447,-1.19162 -1.07976,-1.59046c-0.52529,-0.39883 -1.27431,-0.59824 -2.24707,-0.59824c-0.94357,0 -1.75096,0.19941 -2.42216,0.59824c-0.6712,0.39883 -1.17703,0.92898 -1.5175,1.59046c-0.33074,0.66148 -0.49611,1.40077 -0.49611,2.21788v9.57192c0,0.64202 -0.214,1.1819 -0.64202,1.61964c-0.41828,0.43774 -0.9533,0.65661 -1.60505,0.65661c-0.65174,0 -1.19162,-0.21887 -1.61964,-0.65661c-0.41828,-0.43774 -0.62743,-0.97762 -0.62743,-1.61964v-23.0835c0,-0.65174 0.20914,-1.19162 0.62743,-1.61964c0.42801,-0.43774 0.96789,-0.65661 1.61964,-0.65661c0.65174,0 1.18676,0.21887 1.60505,0.65661c0.42801,0.42801 0.64202,0.96789 0.64202,1.61964v9.2655l-0.56906,-0.11673c0.22374,-0.42801 0.53501,-0.88035 0.93385,-1.35699c0.39883,-0.48638 0.88521,-0.93871 1.45913,-1.35699c0.57393,-0.42801 1.20622,-0.77334 1.89687,-1.03599c0.70038,-0.26264 1.464,-0.39397 2.29084,-0.39397zM239.96005,34.72363c0,2.04279 -0.4572,3.84239 -1.37159,5.3988c-0.90466,1.55641 -2.12547,2.77235 -3.66243,3.64783c-1.52723,0.87548 -3.23441,1.31322 -5.12156,1.31322c-1.89687,0 -3.61379,-0.43774 -5.15074,-1.31322c-1.52723,-0.87548 -2.74317,-2.09143 -3.64783,-3.64783c-0.90466,-1.55641 -1.35699,-3.35601 -1.35699,-5.3988c0,-2.03306 0.45233,-3.8278 1.35699,-5.3842c0.90466,-1.55641 2.12061,-2.77722 3.64783,-3.66243c1.53696,-0.88521 3.25387,-1.32781 5.15074,-1.32781c1.88715,0 3.59433,0.44261 5.12156,1.32781c1.53696,0.88521 2.75776,2.10602 3.66243,3.66243c0.91439,1.55641 1.37159,3.35114 1.37159,5.3842zM235.48051,34.72363c0,-1.26458 -0.25778,-2.3638 -0.77334,-3.29764c-0.50583,-0.93385 -1.19162,-1.66341 -2.05738,-2.1887c-0.85602,-0.52529 -1.80446,-0.78793 -2.84531,-0.78793c-1.05058,0 -2.00388,0.26264 -2.8599,0.78793c-0.85602,0.52529 -1.54182,1.25486 -2.05738,2.1887c-0.50583,0.93385 -0.75875,2.03306 -0.75875,3.29764c0,1.24513 0.25292,2.33461 0.75875,3.26846c0.51556,0.93385 1.20136,1.66341 2.05738,2.1887c0.85602,0.52529 1.80933,0.78793 2.8599,0.78793c1.04085,0 1.98929,-0.26264 2.84531,-0.78793c0.86575,-0.52529 1.55155,-1.25486 2.05738,-2.1887c0.51556,-0.93385 0.77334,-2.02333 0.77334,-3.26846zM242.54036,41.61074c-0.25292,-0.35019 -0.36478,-0.79766 -0.3356,-1.3424c0.02918,-0.55447 0.35506,-1.03112 0.97762,-1.42995c0.39883,-0.25292 0.82198,-0.35992 1.26945,-0.32101c0.44747,0.03891 0.88035,0.27237 1.29863,0.70038c0.71984,0.71984 1.47859,1.27917 2.27625,1.678c0.79766,0.39883 1.79473,0.59824 2.99122,0.59824c0.37937,-0.02918 0.7928,-0.08755 1.24026,-0.1751c0.44747,-0.08755 0.83657,-0.28696 1.16731,-0.59824c0.34047,-0.31128 0.5107,-0.78793 0.5107,-1.42995c0,-0.55447 -0.18969,-0.99221 -0.56906,-1.31322c-0.36965,-0.32101 -0.86089,-0.59338 -1.47373,-0.81711c-0.60311,-0.22374 -1.27917,-0.43774 -2.0282,-0.64202c-0.77821,-0.22374 -1.571,-0.47179 -2.37839,-0.74416c-0.80739,-0.27237 -1.54668,-0.62743 -2.21788,-1.06517c-0.6712,-0.43774 -1.22081,-1.01653 -1.64882,-1.73637c-0.41828,-0.71984 -0.62743,-1.62936 -0.62743,-2.72858c0,-1.24513 0.34533,-2.30057 1.03599,-3.16632c0.70038,-0.87548 1.60505,-1.54668 2.71399,-2.0136c1.10894,-0.47665 2.27138,-0.71498 3.48733,-0.71498c0.77821,0 1.59046,0.09241 2.43675,0.27724c0.8463,0.18482 1.65369,0.48638 2.42216,0.90466c0.77821,0.40856 1.42509,0.94844 1.94065,1.61964c0.27237,0.36965 0.43287,0.81711 0.48151,1.3424c0.05837,0.52529 -0.1751,0.99708 -0.70038,1.41536c-0.36965,0.30155 -0.80739,0.43287 -1.31322,0.39397c-0.49611,-0.03891 -0.90466,-0.20428 -1.22567,-0.49611c-0.42801,-0.55447 -0.99708,-0.99221 -1.70719,-1.31322c-0.71011,-0.32101 -1.52236,-0.48151 -2.43675,-0.48151c-0.37937,0 -0.78793,0.04377 -1.22567,0.13132c-0.42801,0.08755 -0.80739,0.27237 -1.13812,0.55447c-0.32101,0.2821 -0.48151,0.73443 -0.48151,1.35699c0,0.57393 0.18482,1.03112 0.55447,1.37159c0.37937,0.33074 0.88521,0.60311 1.5175,0.81711c0.64202,0.214 1.32295,0.41828 2.04279,0.61284c0.74902,0.20428 1.50777,0.44261 2.27625,0.71498c0.76848,0.27237 1.47373,0.63229 2.11574,1.07976c0.65174,0.44747 1.17703,1.02626 1.57586,1.73637c0.39883,0.71011 0.59824,1.61477 0.59824,2.71399c0,1.27431 -0.37451,2.35893 -1.12353,3.25387c-0.73929,0.89494 -1.67314,1.57586 -2.80154,2.04279c-1.11867,0.4572 -2.26166,0.68579 -3.42896,0.68579c-1.46886,0 -2.93772,-0.25292 -4.40658,-0.75875c-1.46886,-0.51556 -2.68967,-1.42023 -3.66243,-2.71399zM261.93108,25.09334h8.84238c0.60311,0 1.10408,0.19941 1.50291,0.59824c0.39883,0.39883 0.59824,0.89494 0.59824,1.48832c0,0.57393 -0.19941,1.05544 -0.59824,1.44454c-0.39883,0.3891 -0.8998,0.58365 -1.50291,0.58365h-8.84238c-0.60311,0 -1.10408,-0.19941 -1.50291,-0.59824c-0.39883,-0.39883 -0.59824,-0.8998 -0.59824,-1.50291c0,-0.57393 0.19941,-1.05058 0.59824,-1.42995c0.39883,-0.3891 0.8998,-0.58365 1.50291,-0.58365zM265.92911,20.42412c0.64202,0 1.16731,0.21887 1.57586,0.65661c0.4183,0.43774 0.62746,0.97762 0.62746,1.61964v16.61953c0,0.35019 0.06809,0.63715 0.20428,0.86089c0.13619,0.22374 0.32101,0.3891 0.55447,0.49611c0.24319,0.09727 0.50097,0.14591 0.77334,0.14591c0.29183,0 0.5642,-0.0535 0.81711,-0.1605c0.25292,-0.11673 0.53988,-0.1751 0.86089,-0.1751c0.35019,0 0.66634,0.1605 0.94844,0.48151c0.29183,0.32101 0.43774,0.76848 0.43774,1.3424c0,0.70038 -0.38424,1.27431 -1.15272,1.72178c-0.75875,0.44747 -1.571,0.6712 -2.43675,0.6712c-0.52529,0 -1.10409,-0.04377 -1.7364,-0.13132c-0.63229,-0.08755 -1.23054,-0.29669 -1.79473,-0.62743c-0.5642,-0.34047 -1.03112,-0.85602 -1.40077,-1.54668c-0.36965,-0.70038 -0.55447,-1.66341 -0.55447,-2.88909v-16.80922c0,-0.64202 0.214,-1.1819 0.64202,-1.61964c0.43774,-0.43774 0.98249,-0.65661 1.63423,-0.65661z" fill="#ffffff" stroke="none" stroke-width="1" stroke-linecap="square"/><path d="M82.69666,52.50734c0,-24.30053 19.69947,-44 44,-44c24.30053,0 44,19.69947 44,44c0,24.30053 -19.69947,44 -44,44c-24.30053,0 -44,-19.69947 -44,-44z" fill="#000000" stroke="#000000" stroke-width="15" stroke-linecap="butt"/><path d="M175.01177,53.50734c0,0 102.58715,0 143.8151,0c31.10305,0 81.85156,0 81.85156,0" fill="none" stroke="#000000" stroke-width="8.25" stroke-linecap="round"/><path d="M175.01177,53.50734c0,0 102.58715,0 143.8151,0c31.10305,0 81.85156,0 81.85156,0" fill="none" stroke="#ffffff" stroke-width="3.25" stroke-linecap="round"/><path d="M202.69668,98.717c0,-6.09093 0,-20.31716 0,-23.11191c0,-0.91205 0.83323,-2.24516 2.04028,-2.24516c3.81375,0 24.93773,0 48.88177,0c30.84112,0 66.36093,0 75.59434,0c1.48164,0 2.28643,1.30927 2.28643,2.64136c0,3.14265 0,16.21313 0,22.3195c0,1.93416 -0.92569,3.16963 -2.61925,3.16963c-17.3663,0 -115.47439,0 -124.14329,0c-1.20705,0 -2.04028,-1.06771 -2.04028,-2.77343z" fill="#000000" stroke="#000000" stroke-width="10.5" stroke-linecap="butt"/><path d="M202.69668,98.717c0,-6.09093 0,-20.31716 0,-23.11191c0,-0.91205 0.83323,-2.24516 2.04028,-2.24516c8.72604,0 108.07418,0 124.4761,0c1.48164,0 2.28643,1.30927 2.28643,2.64136c0,3.14265 0,16.21313 0,22.3195c0,1.93416 -0.92569,3.16963 -2.61925,3.16963c-17.3663,0 -115.47439,0 -124.14329,0c-1.20705,0 -2.04028,-1.06771 -2.04028,-2.77343z" fill="#000000" stroke="#ffffff" stroke-width="5.5" stroke-linecap="butt"/><path d="M202.69668,98.717c0,-6.09093 0,-20.31716 0,-23.11191c0,-0.91205 0.83323,-2.24516 2.04028,-2.24516c8.72604,0 108.07418,0 124.4761,0c1.48164,0 2.28643,1.30927 2.28643,2.64136c0,3.14265 0,16.21313 0,22.3195c0,1.93416 -0.92569,3.16963 -2.61925,3.16963c-17.3663,0 -115.47439,0 -124.14329,0c-1.20705,0 -2.04028,-1.06771 -2.04028,-2.77343z" fill="#000000" stroke="none" stroke-width="0" stroke-linecap="butt"/><path d="M82.69666,52.50734c0,-24.30053 19.69947,-44 44,-44c24.30053,0 44,19.69947 44,44c0,24.30053 -19.69947,44 -44,44c-24.30053,0 -44,-19.69947 -44,-44z" fill="none" stroke="#ffffff" stroke-width="10" stroke-linecap="butt"/><path d="M82.69666,52.50732c0,-24.30053 19.69947,-44 44,-44c24.30053,0 44,19.69947 44,44c0,24.30053 -19.69947,44 -44,44c-24.30053,0 -44,-19.69947 -44,-44z" fill="url(#color-1)" stroke="none" stroke-width="0" stroke-linecap="butt"/><path d="M82.69666,52.50732c0,-24.30053 19.69947,-44 44,-44c24.30053,0 44,19.69947 44,44c0,24.30053 -19.69947,44 -44,44c-24.30053,0 -44,-19.69947 -44,-44z" fill="#000000" stroke="#000000" stroke-width="5" stroke-linecap="butt"/><path d="M82.69666,52.50734c0,-24.30053 19.69947,-44 44,-44c24.30053,0 44,19.69947 44,44c0,24.30053 -19.69947,44 -44,44c-24.30053,0 -44,-19.69947 -44,-44z" fill="none" stroke="#000000" stroke-width="5" stroke-linecap="butt"/><g stroke-linecap="butt"><path d="M83.93688,52.27742c0,-23.62423 19.15122,-42.77544 42.77544,-42.77544c23.62423,0 42.77544,19.15122 42.77544,42.77544c0,23.62423 -19.15122,42.77544 -42.77544,42.77544c-23.62423,0 -42.77544,-19.15122 -42.77544,-42.77544z" fill="url(#color-2)" stroke="none" stroke-width="0"/><path d="M110.00167,13.56679c0,0 8.09136,-4.27997 16.71065,-4.06482c5.66531,0.14142 16.0264,3.10351 16.0264,3.10351l18.14487,63.15384c0,0 -20.48242,19.29354 -34.17126,19.29354c-12.15495,0 -37.41332,-22.21008 -37.41332,-22.21008z" fill="url(#color-3)" stroke="none" stroke-width="0"/><g><path d="M140.79611,59.58653l-4.97143,-34.62857c0,0 4.02368,-0.8042 6.80845,2.93579c1.55079,2.08273 4.16869,9.23155 5.80176,13.95122c0.87054,2.51592 0.78653,4.90211 -1.60757,8.86044c-1.54208,2.54963 -6.03121,8.88112 -6.03121,8.88112z" fill="#cccccc" stroke="#000000" stroke-width="2"/><path d="M104.43944,67.66012c0,0 -4.33202,-38.87683 15.17088,-46.11949c4.00706,-1.48808 11.76815,-2.18707 14.82133,0.53452c11.80706,10.52474 12.48627,46.79865 12.48627,46.79865l-10.94894,-1.61144c0,0 -2.84454,-7.74486 -11.2836,-7.72895c-9.49109,0.0179 -9.3229,8.12672 -9.3229,8.12672z" fill="#7a7a7a" stroke="#000000" stroke-width="2.5"/><path d="M105.94097,67.35471c0,0 -4.02326,-37.82155 14.08958,-44.22912c3.72145,-1.31649 10.92938,-1.93489 13.76494,0.47288c10.96551,9.3112 11.77336,43.7392 11.77336,43.7392c0,0 -6.89233,-0.42063 -7.27053,-1.52266c-0.24759,-0.72147 -0.71751,-5.47587 -4.46992,-8.25343c-0.82667,-0.61191 -2.87382,-1.29264 -4.22381,-1.40079c-2.75237,-0.22049 -7.4745,-0.44715 -10.75739,0.21134c-4.89309,0.98147 -6.43593,10.04388 -6.43593,10.04388z" fill="#cccccc" stroke="none" stroke-width="0"/><path d="M109.35487,35.73885c0,-1.61613 -0.98155,-10.34238 9.61434,-9.65823c2.24457,0.14493 4.66622,0.25659 6.3922,0.32777c1.41418,0.05832 2.24458,0.75053 2.8381,2.01382c0.59352,1.26328 0.77914,5.85861 0.77914,6.52642c0,0.7418 -0.3667,1.59738 -1.49939,1.5656c-2.151,-0.06035 -5.63946,-0.1381 -7.78822,-0.08155c-2.10956,0.05552 -5.61978,0.11076 -7.9307,0.47737c-2.33711,0.37076 -2.40547,-0.52349 -2.40547,-1.1712z" fill="#949494" stroke="#949494" stroke-width="1.5"/><path d="M109.35487,33.73884c0,-1.61612 -0.98155,-10.34238 9.61433,-9.65823c2.24457,0.14493 4.66622,0.25659 6.39219,0.32777c1.41418,0.05832 2.24459,0.75053 2.8381,2.01382c0.59352,1.26329 0.77915,5.85861 0.77915,6.52643c0,0.7418 -0.3667,1.59738 -1.49939,1.56559c-2.15099,-0.06036 -5.63947,-0.1381 -7.78822,-0.08155c-2.10956,0.05552 -5.61978,0.11077 -7.9307,0.47738c-2.33711,0.37076 -2.40546,-0.52349 -2.40546,-1.1712z" fill="#8dc1cd" stroke="#000000" stroke-width="1.5"/><path d="M111.55993,32.80572c0,0 -0.57593,-4.21917 1.40098,-4.77929c1.08894,-0.30853 2.80257,-0.27704 5.60672,-0.40195c1.99779,-0.08899 5.05787,-0.51175 6.53513,-0.04103c1.88994,0.60222 1.95466,3.67252 1.95466,3.67252c0,0 -4.35548,-0.59762 -6.75138,-0.35803c-2.72696,0.27269 -8.74611,1.90778 -8.74611,1.90778z" fill="url(#color-4)" stroke="none" stroke-width="0"/></g><path d="M90.62738,72.52599c7.11663,-2.7837 19.03597,-6.21827 33.85767,-5.81614c16.10985,0.25992 28.73149,4.6104 36.67929,8.35776c0.6851,0.32302 0.07759,2.06955 -1.39549,4.06224c-2.09389,2.83248 -5.93666,6.41744 -10.30186,9.30962c-6.86596,4.54907 -14.80317,6.43515 -24.40067,6.09972c-9.28579,-0.32454 -16.84455,-2.73399 -23.78349,-7.892c-4.86209,-3.6142 -8.42146,-8.58018 -10.41502,-11.3491c-0.84913,-1.17938 -0.85521,-2.53163 -0.24043,-2.7721z" fill="#5b450c" stroke="#413607" stroke-width="2.5"/><path d="M115.47206,66.83761l3.17916,26.77943c0,0 -1.31432,0.0902 -1.87771,-0.02531c-5.69187,-1.167 -10.73675,-3.4107 -15.4907,-6.94451c-1.26504,-0.94036 -3.52591,-3.03309 -3.52591,-3.03309l6.04652,-15.01188c0,0 3.77656,-0.81256 5.81805,-1.08963c2.26851,-0.30788 5.85058,-0.67501 5.85058,-0.67501z" fill="#271a11" stroke="#271a11" stroke-width="2.5"/><path d="M135.36745,67.60422c0,0 3.56851,0.48141 5.82602,0.86162c2.03159,0.34217 5.78026,1.27499 5.78026,1.27499c0,0 5.0432,13.77358 5.77854,15.70024c0.15672,0.41061 -4.04141,3.2666 -5.33585,4.16606c-4.86445,3.38009 -8.47845,3.71143 -14.2047,4.69595c-0.56679,0.09745 -2.5639,-0.26771 -2.5639,-0.26771l4.71963,-26.43116z" data-paper-data="{&quot;index&quot;:null}" fill="#271a11" stroke="#271a11" stroke-width="2.5"/><path d="M83.93689,52.27741c0,-23.62423 19.15122,-42.77544 42.77544,-42.77544c23.62423,0 42.77544,19.15122 42.77544,42.77544c0,23.62423 -19.15122,42.77544 -42.77544,42.77544c-23.62423,0 -42.77544,-19.15122 -42.77544,-42.77544z" fill="url(#color-5)" stroke="#000000" stroke-width="3.5"/></g><text transform="translate(226.85986,93.82301) scale(0.5,0.5)" font-size="40" xml:space="preserve" fill="#ffffff" fill-rule="nonzero" stroke="none" stroke-width="1" stroke-linecap="butt" stroke-linejoin="miter" stroke-miterlimit="10" stroke-dasharray="" stroke-dashoffset="0" font-family="&quot;Microsoft YaHei&quot;, &quot;微软雅黑&quot;, STXihei, &quot;华文细黑&quot;" font-weight="normal" text-anchor="start" style="mix-blend-mode: normal"><tspan x="0" dy="0">创建游戏</tspan></text></g></g></svg>