<svg version="1.1" xmlns="http://www.w3.org/2000/svg" xmlns:xlink="http://www.w3.org/1999/xlink" width="304.3003" height="304.30025" viewBox="0,0,304.3003,304.30025"><g transform="translate(-92.84989,-32.8499)"><g data-paper-data="{&quot;isPaintingLayer&quot;:true}" fill-rule="nonzero" stroke-linecap="butt" stroke-linejoin="miter" stroke-miterlimit="10" stroke-dasharray="" stroke-dashoffset="0" style="mix-blend-mode: normal"><path d="M94.8499,275.23519c0,-59.99896 0,-148.11906 0,-181.81815c0,-26.16557 22.73163,-58.56714 54.69562,-58.56714c60.91162,0 155.35022,0 189.899,0c25.1397,0 55.70568,31.10369 55.70568,56.54696c0,34.37139 0,127.20919 0,187.87876c0,32.57375 -30.56593,55.87453 -55.70568,55.87453c-33.79375,0 -124.88841,0 -185.85858,0c-34.07175,0 -58.73599,-25.26921 -58.73599,-59.91496z" fill="#83a08b" stroke="#83a08b" stroke-width="4"/><g stroke="none"><path d="M144.65465,179.99998c0,-52.65779 42.68755,-95.34531 95.34535,-95.34531c52.65779,0 95.34535,42.68755 95.34535,95.34531c0,52.65779 -42.68755,95.34535 -95.34535,95.34535c-52.65779,0 -95.34535,-42.68755 -95.34535,-95.34535z" fill="#000000" stroke-width="0"/><path d="M175.00331,198.59656l63.49851,-87.88004c0,0 6.83761,-9.57626 17.11865,-12.73912c12.11164,-3.72604 29.19229,-0.85228 35.0654,3.49924c4.31938,3.20029 13.74824,8.50089 16.45546,18.32451c4.82932,17.52416 1.2149,42.04384 1.2149,42.04384l-60.10846,83.64248c0,0 -7.74083,10.93988 -20.47526,14.90983c-6.22099,1.93936 -13.63662,3.90539 -20.34141,3.19391c-6.99569,-0.74235 -13.21759,-4.24928 -16.50139,-6.35152c-5.8244,-3.72879 -17.49301,-13.14439 -20.04698,-27.20301c-2.42231,-13.3338 4.12062,-31.44012 4.12062,-31.44012z" fill="#ffffff" stroke-width="0"/><text transform="translate(183.97011,188.3412) scale(0.72298,0.72295)" font-size="40" xml:space="preserve" fill="#000000" fill-rule="nonzero" stroke="none" stroke-width="1" stroke-linecap="butt" stroke-linejoin="miter" stroke-miterlimit="10" stroke-dasharray="" stroke-dashoffset="0" font-family="Pixel" font-weight="normal" text-anchor="start" style="mix-blend-mode: normal"><tspan x="0" dy="0">Isabella</tspan></text><text transform="translate(182.36695,221.91661) scale(0.28222,0.28222)" font-size="40" xml:space="preserve" fill="#000000" fill-rule="nonzero" stroke="none" stroke-width="1" stroke-linecap="butt" stroke-linejoin="miter" stroke-miterlimit="10" stroke-dasharray="" stroke-dashoffset="0" font-family="&quot;Microsoft YaHei&quot;, &quot;微软雅黑&quot;, STXihei, &quot;华文细黑&quot;" font-weight="normal" text-anchor="start" style="mix-blend-mode: normal"><tspan x="0" dy="0">  洛家</tspan><tspan x="0" dy="46.15px">工作室</tspan></text></g></g></g></svg>