<svg version="1.1" xmlns="http://www.w3.org/2000/svg" xmlns:xlink="http://www.w3.org/1999/xlink" width="63.75375" height="63.75375" viewBox="0,0,63.75375,63.75375"><defs><radialGradient cx="239.99999" cy="180.00001" r="31.87688" gradientUnits="userSpaceOnUse" id="color-1"><stop offset="0" stop-color="#000000"/><stop offset="1" stop-color="#000000" stop-opacity="0"/></radialGradient></defs><g transform="translate(-208.12313,-148.12313)"><g data-paper-data="{&quot;isPaintingLayer&quot;:true}" fill-rule="nonzero" stroke="none" stroke-linecap="butt" stroke-linejoin="miter" stroke-miterlimit="10" stroke-dasharray="" stroke-dashoffset="0" style="mix-blend-mode: normal"><path d="M208.12313,180.00001c0,-17.6051 14.27178,-31.87688 31.87688,-31.87688c17.60512,0 31.87687,14.27178 31.87687,31.87688c0,17.6051 -14.27177,31.87687 -31.87687,31.87687c-17.6051,0 -31.87688,-14.27175 -31.87688,-31.87687z" fill="url(#color-1)" stroke-width="0"/><g><path d="M212.97297,179.99999c0,-14.92662 12.10041,-27.02702 27.02703,-27.02702c14.92662,0 27.02703,12.10041 27.02703,27.02702c0,14.92662 -12.10041,27.02703 -27.02703,27.02703c-14.92662,0 -27.02703,-12.10041 -27.02703,-27.02703z" fill="#000000" stroke-width="0"/><path d="M221.57574,185.27146l17.99958,-24.91088c0,0 1.93822,-2.71453 4.85253,-3.61109c3.43322,-1.0562 8.27498,-0.24159 9.9398,0.99191c1.22439,0.90717 3.89714,2.4097 4.66454,5.19435c1.36894,4.96748 0.34438,11.91794 0.34438,11.91794l-17.03862,23.70968c0,0 -2.19425,3.10107 -5.80401,4.22641c-1.76343,0.54974 -3.8655,1.10704 -5.76607,0.90536c-1.98303,-0.21043 -3.74672,-1.20452 -4.67756,-1.80043c-1.65101,-1.05698 -4.95865,-3.72597 -5.68261,-7.71109c-0.68664,-3.77966 1.16805,-8.91216 1.16805,-8.91216z" fill="#ffffff" stroke-width="0"/><text transform="translate(224.11751,182.36443) scale(0.20494,0.20493)" font-size="40" xml:space="preserve" fill="#000000" fill-rule="nonzero" stroke="none" stroke-width="1" stroke-linecap="butt" stroke-linejoin="miter" stroke-miterlimit="10" stroke-dasharray="" stroke-dashoffset="0" font-family="Pixel" font-weight="normal" text-anchor="start" style="mix-blend-mode: normal"><tspan x="0" dy="0">Isabella</tspan></text><text transform="translate(223.66307,191.88187) scale(0.08,0.08)" font-size="40" xml:space="preserve" fill="#000000" fill-rule="nonzero" stroke="none" stroke-width="1" stroke-linecap="butt" stroke-linejoin="miter" stroke-miterlimit="10" stroke-dasharray="" stroke-dashoffset="0" font-family="&quot;Microsoft YaHei&quot;, &quot;微软雅黑&quot;, STXihei, &quot;华文细黑&quot;" font-weight="normal" text-anchor="start" style="mix-blend-mode: normal"><tspan x="0" dy="0">  洛家</tspan><tspan x="0" dy="46.15px">工作室</tspan></text></g></g></g></svg>