<svg version="1.1" xmlns="http://www.w3.org/2000/svg" xmlns:xlink="http://www.w3.org/1999/xlink" width="465.51824" height="359.75"><defs><linearGradient x1="372.68778" y1="305.68968" x2="372.68778" y2="315.97539" gradientUnits="userSpaceOnUse" id="color-1"><stop offset="0" stop-color="#801a00"/><stop offset="1" stop-color="#701800"/></linearGradient><linearGradient x1="372.68778" y1="283.43968" x2="372.68778" y2="293.72539" gradientUnits="userSpaceOnUse" id="color-2"><stop offset="0" stop-color="#801a00"/><stop offset="1" stop-color="#701800"/></linearGradient></defs><g data-paper-data="{&quot;isPaintingLayer&quot;:true}" fill="none" fill-rule="nonzero" stroke="none" stroke-width="none" stroke-linecap="none" stroke-linejoin="miter" stroke-miterlimit="10" stroke-dasharray="" stroke-dashoffset="0" font-family="none" font-weight="none" font-size="none" text-anchor="none" style="mix-blend-mode: normal"><path d="M293.7514,29.02973l-0.12821,-3.51454l10.51954,-7.28638l2.9529,1.55802z" fill="none" stroke="#e02503" stroke-width="3" stroke-linecap="butt"/><path d="M293.7514,29.02973l-0.12821,-3.51454l10.51954,-7.28638l2.9529,1.55802z" fill="#000000" stroke="#ffffff" stroke-width="1.5" stroke-linecap="butt"/><path d="M265.75046,292.70619c1.76777,-1.76777 3.53553,0 3.53553,0l1.15279,1.16731c1.21325,1.46604 2.30045,3.04435 3.25005,4.69345c0,0 1.24035,2.17061 -0.93026,3.41096c-1.05611,0.60349 -1.89199,0.3995 -2.47194,0.03093c-0.18016,0.01044 -0.29348,0.00173 -0.29348,0.00173c-0.21526,-0.01665 -0.43084,-0.02982 -0.64664,-0.04028c0.36858,0.19376 0.68287,0.47684 0.91408,0.82048c0.94264,0.36249 1.85501,0.77744 2.29849,1.61657c2.36755,4.47984 0.21281,7.85973 -4.93165,7.21432c-2.78289,-0.34913 -3.71359,-2.70198 -4.38032,-5.07192c-4.0841,-1.19602 -9.14418,-3.77998 -4.72951,-9.22795c0.9193,-1.13447 2.87909,-0.51277 4.33397,-0.63718c0.95146,-0.08136 2.1526,-0.05309 3.36647,0.0167l-0.46757,-0.45956c0,0 -1.76777,-1.76777 0,-3.53553z" fill="#3e3e3e" stroke="none" stroke-width="0.5" stroke-linecap="butt"/><path d="M207.85157,288.30729c0.25526,0 0.50158,0.03826 0.73355,0.10935l0.71781,-0.17875c1.22509,0.75169 2.82717,1.09463 3.67526,2.25507c0.47991,0.65666 0.05361,1.61249 0.07237,2.44665c0.55957,0.48826 1.0924,1.03531 1.58853,1.60076c1.67691,0.97417 3.25274,2.14994 4.78822,3.32604c1.21782,0.93279 1.94348,1.78249 2.41507,2.68864l0.00919,-0.00459l2.21358,4.42715c0.18291,0.34741 0.28642,0.74312 0.28642,1.16302c0,0.77033 -0.34841,1.45928 -0.89624,1.91788c0.19978,0.64013 0.29842,1.29179 0.22076,1.95853c-0.77028,6.6134 -4.83502,5.1612 -8.49267,3.23742c-1.27345,-0.66978 -2.19934,-1.85582 -3.29543,-2.78794c-2.94512,-2.50456 -8.99246,-5.851 -10.22902,-9.7915c-0.03562,-0.11351 -0.06793,-0.22765 -0.09724,-0.34237l-0.05099,0.01912l-0.97977,-2.61272c-0.11572,-0.28795 -0.17941,-0.60242 -0.17941,-0.93176c0,-1.38071 1.11929,-2.5 2.5,-2.5c0.46716,0 0.90439,0.12813 1.27847,0.35117l1.41964,0.81122c-0.05796,-0.30399 -0.0867,-0.62667 -0.12566,-0.94281l-1.92693,-1.28462c-0.68925,-0.44514 -1.14551,-1.2201 -1.14551,-2.10163c0,-1.38071 1.11929,-2.5 2.5,-2.5c0.36939,0 0.72006,0.08011 1.0356,0.22391l0.26175,0.11218c0.44636,-0.41536 1.04484,-0.66942 1.70264,-0.66942zM216.36838,305.10945c-0.37214,-0.39735 -0.7403,-0.79851 -1.10591,-1.20212c-0.08635,0.22811 -0.21465,0.46591 -0.3949,0.7117c-0.51212,0.69835 -1.08875,0.97739 -1.62374,1.04382c1.84749,1.64116 3.74619,3.20078 5.5428,4.42055c0.13642,0.09262 -0.02397,-0.33608 -0.09292,-0.48585c-0.51124,-1.1105 -1.04208,-2.2142 -1.6408,-3.28008c-0.22647,-0.40318 -0.45337,-0.80681 -0.68453,-1.20801z" fill="#3e3e3e" stroke="none" stroke-width="0.5" stroke-linecap="butt"/><path d="M120,357.5v-355h240v355zM145.32346,17.7491c-9.92278,1.24035 -8.68243,11.16313 -8.68243,11.16313c0.9963,7.80213 3.38411,15.36286 5.00755,23.05898c0.80503,3.81634 -0.08477,7.80035 -0.08477,11.70067c0,10.33334 0,20.66666 0,31c0,1.15895 -0.02133,8.77208 0.08477,9.29933c1.02083,5.07304 3.08121,9.90749 4,15c0.86367,4.787 -0.10937,10.77184 -0.08477,15.70067c0.01644,3.29298 0.83777,6.53763 1.03407,9.8248c0.3214,5.38216 -0.03407,10.78345 -0.03407,16.1752c0,1.44976 -0.03073,8.85589 0.12912,9.60182c0.66262,3.09207 2.59796,5.86338 3,9c1.0911,8.5126 -0.91499,17.38302 -0.11382,25.95119c0.56203,6.01071 1.49082,11.98459 2,18c0.2133,2.51996 0.16486,5.06186 0.07259,7.6077c-0.64239,-0.10432 -1.33694,-0.16071 -2.08789,-0.16071c-10,0 -10,10 -10,10c0,2.33334 0,5.66666 0,8c0,4.46957 0.57719,9.562 0.04866,14.01463c-1.02769,8.65795 -2.01346,18.39137 -0.97375,27.20721c1.10395,9.36054 2.97301,18.2352 5.26008,27.34485c1.61461,6.4312 3.54675,12.0774 7.16028,17.69614c0.4255,0.68615 0.93172,1.317 1.50539,1.87928c0.09428,9.85791 9.99932,9.85791 9.99932,9.85791c6.66805,-0.02666 12.58808,1.42178 19.17519,1.96593c12.25946,1.01272 24.73539,-0.85755 37,0c3.27668,0.22911 6.5929,0.57803 9.73237,1.5439c3.32766,1.02377 0.08475,-11.36694 3.53728,-10.91808c5.07497,0.65979 13.43597,0.07493 18.55517,0.07493c20.33333,0 40.33333,3 60.66667,3c6.79251,0 14.88079,5.74025 20.33722,0.12783c1.38463,-1.42421 9.57625,-3.53779 9.92119,-6.57266c0.23423,-2.06083 0.42338,-4.17722 0.07493,-6.22183c-0.06811,-0.39965 -1.47251,0.00264 -1.18325,-0.28142c0.52961,-0.52011 1.65723,-0.07664 2.13032,-0.64864c0.8751,-1.05808 0.84238,-2.64166 1.55944,-3.81262c0.49236,-0.80403 1.57551,-1.15816 2,-2c1.06,-2.10221 1.57625,-4.437 2.36437,-6.65549c0,-2.02759 0.7632,-3.98629 1,-6c0.53983,-4.59059 0.12913,-9.94681 0.12913,-14.60182c0,-3.57506 0.61064,-8.66364 -0.07493,-12.22183c-0.50574,-2.62487 -1.13614,-5.26297 -2.22308,-7.70515c-0.47312,-1.06304 -1.77399,-1.56898 -2.35359,-2.57792c-0.69351,-1.20724 -0.77213,-2.69104 -1.38995,-3.93872c-0.98064,-1.98041 -2.2557,-3.80089 -3.38354,-5.70133l-4.72861,-4.76395c-0.11502,-4.66511 -1.18016,-8.01973 -1.17964,-12.75776c0.00203,-18.68627 1.03114,-42.88158 0.33097,-61.55057c-0.50267,-13.40295 0.24312,-22.04727 0.66267,-35.42631c0.31644,-10.09112 -3.04587,-20.02136 -1.74818,-30.03369c1.41637,-10.92807 2.08547,-21.41833 2.08787,-32.32277c-0.0462,-6.79638 1.20784,-13.53566 2.05343,-20.28556c1.45266,-0.53 2.83706,-1.1591 4.07219,-1.94509c5.89676,-3.75249 5.58236,-10.82882 2.72141,-16.74707c0.01439,-3.52563 -0.11877,-7.05559 -0.13943,-10.58135c-0.05142,-8.77231 -1.15677,-17.81519 -7.99103,-23.20663c-1.04493,-0.82433 -4.32652,-1.31103 -7.22395,-1.2634c-9.89092,-3.43394 -21.57654,-0.57646 -31.55643,-2.54988c-6.11643,-1.20947 -16.75758,-3.87085 -22.98179,-1.36477c-4.94823,1.99233 -13.32775,3.45624 -13.72562,9.94376c-0.08788,0 -0.16435,0 -0.22879,0c-15,0 -30,0 -45,0c-5,0 -10,0 -15,0c-1.46669,0 -2.95513,0.39138 -4.39818,0.12912c-5.73459,-1.04215 -11.159,-3.37307 -16.76747,-4.95944c-6.95609,-0.65138 -12.16277,-1.52051 -18.83435,-1.16968c-2.61764,0.13765 -5.37416,-0.16366 -7.82683,0.76121c-2.08927,0.78784 -3.49616,2.77848 -5.24424,4.16773l-0.01653,0.05119c-0.66781,-0.02806 -1.38424,0.00104 -2.15276,0.0971z" fill="#3e3e3e" stroke="#000000" stroke-width="4.5" stroke-linecap="butt"/><path d="M269.55469,308.42188v-262h8.46841c1.96611,1.03299 3.9619,2.03412 6.00402,3.0266c1.01914,0.49531 1.9752,1.25639 2.9222,2.0525c0.97627,1.27311 2.25183,2.30466 3.72151,2.98948c0.57173,0.2664 1.17284,0.48034 1.79713,0.63561c4.78307,2.22322 5.52076,9.71454 9.9371,12.7522c2.12815,1.46379 5.10462,3.70864 8.02802,5.66442c2.22737,1.49013 4.42394,2.81246 6.19101,3.49366c0.06385,0.02461 1.95519,-1.77775 2.01831,-1.75137c0.76846,0.32114 -1.29282,-3.69242 -0.4893,-3.91156c0.98523,-0.2687 1.93452,-0.60961 2.83016,-1.0184c0.21796,0.01419 0.43783,0.02139 0.65937,0.02139c0.42523,0 0.84426,-0.02654 1.25552,-0.07806c0.32681,-0.04094 0.64872,-0.09764 0.96493,-0.16934c2.56993,-0.49864 4.99232,-1.32481 5.80557,-1.52847c3.21758,-0.80577 6.81481,-1.59262 9.88603,-3.00672v242.82807z" fill="#3e3e3e" stroke="none" stroke-width="0" stroke-linecap="butt"/><path d="" fill="#3e3e3e" stroke="none" stroke-width="0" stroke-linecap="butt"/><g fill="none" stroke="#ffffff" stroke-width="3" stroke-linecap="round"><path d="M242.27849,276h-28.11182"/><g><path d="M214.72151,200h28.11182"/><path d="M214.35161,239.66667h13.68602"/></g><path d="M242.83333,124h-28.11182"/><path d="M214.35161,163.66666h13.68602"/><path d="M214.35162,85.66666h13.68602"/></g><g><path d="M358.75921,315.97539v-10.28571h27.85714v10.28571z" fill="url(#color-1)" stroke="#420806" stroke-width="3" stroke-linecap="butt"/><path d="M360.04492,306.97539l19.42857,0.03175" fill="none" stroke="#aa3300" stroke-width="4.5" stroke-linecap="round"/><path d="M359.31476,315.43571v-2.44444h27v2.44444z" fill="#aa3300" stroke="none" stroke-width="0" stroke-linecap="butt"/><path d="M358.75921,315.97539v-10.28571h27.85715v10.28571z" fill="none" stroke="#420806" stroke-width="3" stroke-linecap="butt"/></g><path d="M250.855,23.32897v-18.61084h41.54204v18.61084z" fill="#3e3e3e" stroke="none" stroke-width="0" stroke-linecap="butt"/><g><path d="M358.75921,293.72539v-10.28571h27.85714v10.28571z" fill="url(#color-2)" stroke="#420806" stroke-width="3" stroke-linecap="butt"/><path d="M379.47349,284.75714l-19.42857,-0.03175" fill="none" stroke="#aa3300" stroke-width="4.5" stroke-linecap="round"/><path d="M359.31476,293.18571v-2.44444h27v2.44444z" fill="#aa3300" stroke="none" stroke-width="0" stroke-linecap="butt"/><path d="M358.75921,293.72539v-10.28571h27.85715v10.28571z" fill="none" stroke="#420806" stroke-width="3" stroke-linecap="butt"/></g><path d="M164.28708,322.26975v-19h185.5v19z" fill="#3e3e3e" stroke="none" stroke-width="0" stroke-linecap="butt"/><path d="M168.22707,324.67376c0.0306,-0.00342 0.06123,-0.00698 0.0919,-0.01072c12.30501,-0.12176 24.27133,-1.45464 36.69183,-1.00647c3.0165,0.10884 5.98886,0.78992 9,1c10.13779,0.70727 20.74515,0.42891 30.90947,0.00895c9.81238,-0.40542 20.13944,-1.94196 30.02217,-1.01297c12.4001,1.16563 24.57104,3.9316 37,5c3.15134,0.27089 6.5272,0.16118 9.83297,0.07889c0.01793,1.58513 0.02851,3.17025 -0.13667,4.71859c-0.00738,0.06916 -0.01889,0.13798 -0.03381,0.20649c-2.01363,-0.00554 -4.02744,0.01535 -6.04111,0.01535c-3.33333,0 -6.66667,0 -10,0c-17,0 -34,0 -51,0c-4.48471,0 -9.29216,0.38223 -13.77817,0.07493c-2.07917,-0.14243 -4.55573,-2.12097 -6.12939,-2.58475c-0.68706,-0.20249 -13.19367,-2.37811 -14.26764,-2.4561c-12.26056,-0.89035 -24.76009,1.03147 -37,0c-4.85092,-0.40879 -9.44811,-1.20037 -14.17489,-1.66644c-0.2279,-0.83741 -0.56189,-1.6311 -0.98665,-2.36575z" fill="#3e3e3e" stroke="#000000" stroke-width="4.5" stroke-linecap="butt"/><path d="M138.80469,353.58855v-44.66667h214.5v44.66667z" fill="#3e3e3e" stroke="none" stroke-width="0" stroke-linecap="butt"/><path d="M174.13803,54.90686v-46.48498h101.24247c-0.29576,0.09212 -0.58346,0.19402 -0.86229,0.30629c-5.48711,2.2093 -15.19357,3.76882 -13.55687,12.24921c0.28103,1.45612 0.59235,2.56203 1.00496,3.45613c-1.05489,1.58473 -1.66963,3.48763 -1.66963,5.53411c0,0.1863 0.00509,0.3714 0.01515,0.55519c-1.01437,2.02873 0.74935,4.47352 2.86214,6.46385c0.30117,0.30559 0.62186,0.59189 0.96005,0.85689c1.34528,1.14165 2.68552,2.0573 3.43627,2.53748c5.36589,3.43205 10.72916,6.28376 16.45685,9.06744c1.01914,0.49531 1.9752,1.25639 2.9222,2.0525c0.97627,1.27311 2.25183,2.30466 3.72151,2.98948c0.33821,0.15759 0.6867,0.29682 1.04419,0.41641z" fill="#3e3e3e" stroke="none" stroke-width="0" stroke-linecap="butt"/><path d="" fill="#3e3e3e" stroke="none" stroke-width="0" stroke-linecap="butt"/><path d="M345.8047,8.42188v42.97119c-0.34003,-1.25562 -0.81478,-2.50097 -1.39386,-3.69886c0.01439,-3.52563 -0.11877,-7.05559 -0.13943,-10.58135c-0.05142,-8.77231 -1.15677,-17.81519 -7.99103,-23.20663c-1.04493,-0.82433 -4.32652,-1.31103 -7.22395,-1.2634c-9.89092,-3.43394 -21.57654,-0.57646 -31.55643,-2.54988c-2.36428,-0.46751 -5.40464,-1.15197 -8.60463,-1.67106z" fill="#3e3e3e" stroke="none" stroke-width="0" stroke-linecap="butt"/><path d="M135.80469,335.40686v-300h73v300z" fill="#3e3e3e" stroke="none" stroke-width="0" stroke-linecap="butt"/><path d="M174.60157,272.14063c8.28427,0 15,6.71573 15,15c0,5.6674 -3.14307,10.60071 -7.78118,13.1519c-2.74283,3.55681 -7.04658,5.8481 -11.88549,5.8481c-8.28427,0 -15,-6.71573 -15,-15c0,-5.6674 3.14306,-10.60071 7.78118,-13.1519c2.74283,-3.55681 7.04658,-5.8481 11.88549,-5.8481z" fill="#3e3e3e" stroke="none" stroke-width="0.5" stroke-linecap="butt"/><path d="M316.60157,305.47396c0,-8.28427 6.71573,-15 15,-15c8.28427,0 15,6.71573 15,15c0,8.28427 -6.71573,15 -15,15c-8.28427,0 -15,-6.71573 -15,-15z" fill="#3e3e3e" stroke="none" stroke-width="0.5" stroke-linecap="butt"/><path d="M345.89323,282.97396c6.12867,10.51006 4.17442,36.83333 -13.125,36.83333c-4.7389,0 -8.07046,-1.51334 -10.38892,-3.94311c-4.5447,-2.57739 -7.61108,-7.45904 -7.61108,-13.05689c0,-3.22324 1.01664,-6.20902 2.74676,-8.65419c0.06665,-1.27443 0.15662,-2.50922 0.25324,-3.67914c0,-2.70136 0.71408,-5.23593 1.96378,-7.42525c1.2082,-2.6053 2.99843,-4.86183 5.47108,-5.53012c2.22096,-1.2997 4.80605,-2.04463 7.56514,-2.04463c2.99972,0 5.79378,0.88053 8.13781,2.39723c1.844,0.92501 3.38748,2.35943 4.98719,5.10277z" fill="#3e3e3e" stroke="none" stroke-width="0.5" stroke-linecap="butt"/><path d="M334.26823,308.47396v-55.66667h20v55.66667z" fill="#3e3e3e" stroke="none" stroke-width="0" stroke-linecap="butt"/><path d="" fill="#3e3e3e" stroke="none" stroke-width="0.5" stroke-linecap="butt"/><path d="M145.19593,8.948c2.04536,-2.31978 3.99767,0.00639 6.11762,-0.47404c1.72973,-0.392 2.6962,-0.81109 4.62564,-0.93842c1.88128,-0.12416 4.69626,-1.53466 5.63079,0.62935l0.39396,0.91225c7.85706,-1.14799 22.31293,-2.93855 22.31293,2.38183c0,2.99434 -4.73369,-1.12085 -5.55001,1.67188c-0.18216,0.62317 -1.25935,0.65891 -1.14649,1.31016c1.14983,1.31548 2.0977,2.93169 2.77379,4.75625c0.87233,1.40585 1.5141,3.10865 1.12853,5.62953c0.01533,0.31923 0.0231,0.64117 0.0231,0.96552c0,3.01125 -0.67058,5.81525 -1.82493,8.16481c0.90668,1.46359 1.81445,2.90263 2.89372,3.85718c2.6974,2.38569 4.12932,3.4553 5.37406,6.30094c3.65396,2.49009 6.1529,7.53077 6.1529,13.34374c0,8.28427 -5.07538,15 -11.33619,15c-3.68637,0 -6.96177,-2.32826 -9.03214,-5.93408c-2.23739,-1.50675 -5.78396,-4.97003 -7.34628,-6.40967c-1.19842,-1.10431 -2.14947,-4.87704 -3.39408,-5.30792c-3.06091,-1.05967 -7.10275,-5.00401 -9.65824,-5.34833c-2.19243,-0.29541 -7.04635,-1.10248 -9.04953,-3.26989c-0.63693,0.9879 -1.36906,1.86506 -2.17762,2.60663c0.06565,0.65318 0.09955,1.31964 0.09955,1.99658c0,1.94706 -0.28036,3.80748 -0.79059,5.51443c0.35271,0.57107 0.67425,1.17719 0.96116,1.8138c0.81876,0.83679 1.41903,0.00688 2.26641,0.25605c1.12606,0.33111 3.78169,2.75878 4.425,3.48345c4.21798,4.75131 4.77287,13.0904 5.89456,20.04498c2.98926,2.59286 4.99641,7.00462 5.12307,12.04654c2.75706,2.73623 4.54084,7.09619 4.54084,12.00742l0.00001,-0.00002c0,8.28427 -5.07538,15 -11.33619,15c-5.71765,0 -10.44664,-5.60103 -11.22413,-12.88268c-0.59903,-0.04132 -1.22387,-0.13477 -1.87547,-0.28399c-2.22981,-0.51066 -4.84107,-0.38659 -6.55373,-2.34375c-3.2147,-3.67364 -6.55684,-9.67384 -7.6163,-15.28138c-0.57242,-3.02967 -0.62374,-6.8451 -1.40788,-9.71981c-1.00751,-3.69362 2.33525,0.55035 1.73671,-3.40959l2.00118,-7.5788c0.22431,-2.01972 -4.26699,-5.77339 -3.86235,-7.30234c-1.67633,-2.61495 0.08362,-5.33339 0.08362,-9.03099c0,-4.8785 -3.27822,-11.54638 -0.55247,-14.28582c-0.61664,-1.84989 -0.95903,-3.89579 -0.95903,-6.04751c0,-4.52945 1.51723,-8.59001 3.9159,-11.34038c0.1367,-1.15453 0.37293,-2.26539 0.69671,-3.31671c-0.27276,-0.31398 -0.54795,-0.64826 -0.826,-1.00436c-3.11698,-3.99208 6.09251,2.71798 6.98297,-1.88008c1.58107,-8.16411 5.53038,-6.31443 10.02484,-4.14922c0.31171,-0.77397 0.76599,-1.50244 1.34006,-2.15353z" fill="#3e3e3e" stroke="none" stroke-width="0.5" stroke-linecap="butt"/><path d="M180.37218,67.79227c2.08693,0 3.77873,2.23858 3.77873,5c0,1.9628 -0.85474,3.66145 -2.09858,4.4798c0.07493,0.52668 0.14886,1.07236 0.22235,1.64086c0.43966,3.40123 0.99144,8.87934 -3.41399,8.87934c-5.57943,0 -2.41576,-4.46737 -4.04048,-7.10322c-3.14649,-5.10469 -5.58241,-9.81077 -7.92064,-15.78995c-0.70724,-1.80851 -0.59503,-6.34082 1.04803,-6.93375c1.16629,-0.42088 2.69364,-0.24581 3.7051,-0.33811c0.69297,-1.12011 1.74611,-1.83497 2.92544,-1.83497c0.8279,0 1.59361,0.3523 2.21619,0.94977c0.14695,0.11007 0.28414,0.24034 0.40785,0.39851c1.38412,1.76959 1.24137,4.47213 1.85369,6.61984c0.41707,1.46284 0.78248,2.78082 1.10888,4.03928c0.06867,-0.00492 0.13783,-0.00741 0.20744,-0.00741z" fill="#3e3e3e" stroke="none" stroke-width="0.5" stroke-linecap="butt"/><g stroke-linecap="butt"><path d="M384.10157,337.17396c0,-11.71315 0,-67.93786 0,-75c0,-1.42978 1.20011,-2.53334 2.73333,-2.53334c6.98845,0 58.75511,0 73.2,0c2.36828,0 3.73334,1.39598 3.73334,3.13333c0,7.63416 0,62.19284 0,74.2c0,1.49768 -1.2976,2.33333 -2.93333,2.33333c-7.36188,0 -61.18448,0 -74,0c-1.74821,0 -2.73333,-0.7613 -2.73333,-2.13333z" fill="#596064" stroke="#000000" stroke-width="3.5"/><g stroke="none" stroke-width="0"><path d="M391.92524,304.45044c0,6.88671 -0.18704,16.7579 -0.2057,22.03665c-0.00977,2.76403 -1.01628,4.54238 -1.7944,5.25824c-1.58988,1.46269 -7.25758,6.67696 -7.25758,6.67696v-41.14378c2.995,-0.31468 5.81747,-8.86561 8.93356,-9.149c0.04426,3.0303 0.32412,14.03909 0.32412,16.32092z" fill="#272727"/><path d="M382.66756,261.82345c0,0 5.33583,5.54925 6.96409,7.24265c0.87953,0.91469 1.9903,3.40424 1.94754,5.46261c-0.05543,2.66818 -0.11283,6.62563 -0.08421,10.73138c0.01555,2.23035 0.04307,4.5783 0.07693,6.9694c-2.9564,-0.08474 -5.98699,-0.13179 -8.90435,0.04499z" fill="#272727"/><path d="M455.35502,328.06914c0,-3.03161 -0.21644,-18.09273 -0.3279,-33.46102c3.14493,0.24818 6.2704,0.57445 9.32387,0.99234v42.66082c0,0 -6.09833,-5.61045 -7.61464,-7.00546c-0.64583,-0.59416 -1.38134,-2.0907 -1.38134,-3.18668z" data-paper-data="{&quot;index&quot;:null}" fill="#272727"/><path d="M455.20475,275.38644c0.08062,-2.75563 0.80682,-5.05101 1.40203,-5.67001c1.48046,-1.53967 7.74422,-8.054 7.74422,-8.054v30.73923c-3.14538,-0.26277 -6.27228,-0.47376 -9.38847,-0.6386c0.00299,-6.78328 0.13272,-12.63417 0.24222,-16.37664z" data-paper-data="{&quot;index&quot;:null}" fill="#272727"/><path d="M462.45459,340.18458l-78.33695,-0.14808c0,0 5.76349,-5.31178 7.52868,-6.93863c0.95756,-0.88251 2.86494,-2.04059 4.02602,-2.03826c3.05367,0.00609 8.73055,0.01926 16.3569,0.03449c4.45917,0.00891 10.00664,-0.24319 14.78512,-0.23387c11.31677,0.02206 21.3356,0.30417 24.07476,0.30964c1.39856,0.0028 3.4717,0.93457 4.23426,1.69584c1.58656,1.58388 7.33125,7.31887 7.33125,7.31887z" fill="#787880"/><path d="M451.14101,269.08914c-1.83999,0.06101 -4.82292,0.13118 -8.36165,0.10708c-7.02321,-0.04784 -16.33725,-0.36549 -24.73156,-0.38226c-10.89398,-0.02176 -18.53701,0.08887 -21.45981,0.08303c-1.64092,-0.00329 -4.11634,-1.12661 -4.95282,-1.9905c-1.57407,-1.62561 -6.80406,-7.02696 -6.80406,-7.02696l76.94531,0.14808c0,0 -5.70622,5.92413 -7.19483,7.46958c-0.66989,0.69548 -2.18102,1.55016 -3.44059,1.59193z" data-paper-data="{&quot;index&quot;:null}" fill="#79797f"/><path d="M382.66756,270.63061c0,0 5.33583,5.54924 6.96409,7.24265c0.87953,0.91469 1.9903,3.40424 1.94754,5.46262c-0.05543,2.66818 -0.11283,6.62563 -0.08421,10.73137c0.01555,2.23035 0.04306,4.57829 0.07692,6.96939c-2.9564,-0.08475 -5.98697,-0.1318 -8.90434,0.045z" fill="#272727"/><path d="M455.20475,284.19359c0.08062,-2.75563 0.80682,-5.05101 1.40203,-5.67001c1.48046,-1.53967 7.74422,-8.054 7.74422,-8.054v30.73923c-3.14538,-0.26277 -6.27228,-0.47376 -9.38847,-0.6386c0.00299,-6.78328 0.13272,-12.63417 0.24222,-16.37664z" data-paper-data="{&quot;index&quot;:null}" fill="#272727"/></g><path d="M384.10156,337.17396c0,-11.71315 0,-67.93786 0,-75c0,-1.42977 1.20011,-2.53333 2.73333,-2.53333c6.98846,0 58.7551,0 73.2,0c2.36828,0 3.73333,1.39598 3.73333,3.13333c0,7.63417 0,62.19285 0,74.2c0,1.49768 -1.2976,2.33333 -2.93333,2.33333c-7.36188,0 -61.18449,0 -74,0c-1.74821,0 -2.73333,-0.7613 -2.73333,-2.13333z" fill="none" stroke="#000000" stroke-width="3.5"/><path d="M398.8751,321.07025c0,-11.43484 0,-36.26805 0,-41.46844c0,-2.01671 2.22228,-3.90291 4.5,-3.90291c5.5107,0 29.40633,0 40,0c3.21428,0 4.75,2.36122 4.75,5.12257c0,6.09016 0,30.24548 0,40.49272c0,2.85847 -3.08553,4.63471 -6,4.63471c-6.09771,0 -28.95614,0 -38.75,0c-2.77408,0 -4.5,-1.03238 -4.5,-4.87865z" fill="#9c9c9c" stroke="#000000" stroke-width="2.5"/><path d="M406.58377,315.53215c0.07933,-2.08857 0.675,-3.94401 1.36441,-7.79206c0.36967,-2.0634 0.92139,-12.69417 0.36237,-14.79373c-1.04764,-3.93466 -2.56907,-7.32846 -1.20748,-8.73938c2.28956,-2.37251 8.06265,0.567 14.5055,0.78273c5.48974,0.18381 11.53423,-2.56883 15.58352,-1.8987c3.68162,0.60928 4.63087,3.26949 4.5742,6.41178c-0.06739,3.73721 -1.64118,7.67786 -1.64118,12.49295c0,4.82265 1.75,10.51853 1.75,12.75c0,3.12478 -1.9765,4.97182 -4.92956,4.7089c-2.64592,-0.23557 -7.07583,-1.7089 -10.57044,-1.7089c-5.45974,0 -10.19113,2.25 -12.75,2.25c-2.83377,0 -7.13615,-1.96733 -7.04133,-4.46359z" fill="#cbcbcb" stroke="none" stroke-width="0"/></g><path d="M210,275.10282c0,-19.16811 0,-218.74023 0,-218.74023h60c0,0 0,203.78265 0,220.24023c0,2.07758 -0.02118,5.30881 -0.66752,7.91185c-1.6477,6.63594 -7.35825,18.49707 -27.13815,19.09792c-21.60031,0.65615 -28.78975,-11.8592 -31.11946,-18.8873c-0.90036,-2.71613 -1.07488,-6.72163 -1.07488,-9.62247z" fill="none" stroke="#e02503" stroke-width="7" stroke-linecap="butt"/><path d="M210,275.10282c0,-19.16812 0,-218.74023 0,-218.74023h60c0,0 0,203.78266 0,220.24023c0,2.07757 -0.02118,5.30881 -0.66752,7.91185c-1.6477,6.63594 -7.35825,18.49706 -27.13815,19.09791c-21.60031,0.65615 -28.78974,-11.8592 -31.11945,-18.8873c-0.90036,-2.71613 -1.07488,-6.72163 -1.07488,-9.62247z" fill="none" stroke="#ffffff" stroke-width="3" stroke-linecap="butt"/><g stroke="#ffffff" stroke-width="1.5"><path d="" fill="#e02503" stroke-linecap="round"/><path d="" fill="#000000" stroke-linecap="butt"/></g><path d="M263.80591,42.70796c-1.15834,-0.88034 -2.26987,-2.84325 -3.37582,-3.53456c-2.93288,-1.83329 -5.91896,-2.9704 -6.34977,-6.78827c-0.21033,-1.86393 0.32418,-3.7829 1.26169,-5.34541c0.13537,-0.22562 2.39282,-1.93326 2.37559,-2.09386c-0.67059,-6.24999 -7.60478,-14.86286 2.91107,-17.19972c5.50535,-1.22341 5.72262,8.44312 7.60319,9.57284c0.99886,0.60005 3.92334,-0.5064 5.13893,-0.23627c1.73128,0.38473 6.34871,3.27259 6.9376,3.32337c1.7298,0.14916 5.14508,-0.45096 7.028,0.625c4.47697,2.55827 2.94039,10.08895 -2.5,10.87051c-0.99456,0.14288 -1.62114,-1.36312 -2.61715,-1.49551c-2.85312,-0.37922 -5.758,-0.09528 -8.63463,0c-0.72094,0.02388 1.41143,0.39758 2.01162,0.7977c1.57193,1.04795 3.17656,1.91854 4.21504,3.48743c1.68743,0.73944 3.20615,1.5527 4.36793,2.29201c8.20041,5.21845 12.7221,15.80951 17.73107,24.14361c0.65004,1.08157 2.8143,1.63034 3.79665,2.7937c1.56752,1.85637 2.44812,4.58622 3.54912,6.78824c0.5567,0.45217 1.01427,1.02165 1.33507,1.6708c0.52695,-0.07241 1.03429,-0.12661 1.48975,-0.12902c1.28211,-0.0068 5.78848,-4.64517 7.12043,-5.18798c3.5602,-1.45089 7.89025,-2.87819 11.56778,-3.99969c2.30444,-0.70276 4.05877,-4.35772 5.5429,-6.18434c1.29267,-1.59098 3.19913,-3.39726 5.26626,-4.83136c-0.11922,-1.01025 -0.25569,-2.00993 -0.51657,-2.90581c-1.5299,-5.25375 -6.32143,-6.54671 -7.04138,-11.23909c-0.2822,-0.30338 -0.53443,-0.58365 -0.75191,-0.83269c-3.33795,-3.82223 -6.93791,-7.21861 -10.63086,-10.94395c-2.06722,-2.08535 -3.53402,-3.93752 -4.98753,-6.07869c-0.32223,-0.47468 -2.69522,-0.72316 -3.32621,-0.9837c-1.14364,-0.47221 -2.00347,-2.19851 -3.22332,-2.82976c-1.22397,-0.63339 -5.5353,-0.87557 -5.77672,-2.88669c-1.62408,0.75848 -3.54685,1.28056 -4.19168,1.60108c-3.28992,1.63529 -5.584,6.24282 -9.56583,6.56075c-3.88442,0.31016 -7.39833,-4.39668 -2.53168,-5.61334l0.31313,-0.26839c0.33396,-0.38962 2.76745,-1.23502 2.76332,-1.42619c-0.02352,-1.08763 -0.70276,-2.3245 -0.93759,-3.58121c-1.13768,-0.44425 -1.941,-1.27144 -1.941,-2.4118c0,-2.53333 6.23516,-3.17748 7.46067,-1.98704c2.05214,-0.03996 4.17069,0.30032 5.29661,0.58181c0.67937,0.16984 0.70418,1.58261 1.40417,1.56264c0.64605,-0.01843 1.17658,-0.06006 1.63639,-0.04949c0.69016,-1.39175 2.00946,-2.4162 3.58601,-2.70148c0.19378,-0.06262 0.39871,-0.10103 0.61663,-0.11124c4.52899,-0.21205 7.13677,3.06628 10.40497,4.72431c1.64923,0.8367 3.69785,0.09456 5.54718,0.09456c1.01148,0 2.24991,0.57729 3.24271,0.70116c0.67838,0.08464 2.04709,-0.60991 2.79985,-0.70116c3.41663,-0.41413 6.90988,1.40582 9.03195,3.91934c1.76132,2.08622 5.95493,7.85567 6.15713,10.25107c0.10175,1.20537 0.03393,2.33365 -0.10734,3.42492c2.50944,2.13661 3.22272,7.29708 2.22631,9.26356c1.10105,1.52095 1.94149,3.29406 1.69402,5.00174c0.15544,0.19774 0.30672,0.38781 0.45367,0.56867l0.00947,0.00861c1.09368,0.91719 1.78903,2.29382 1.78903,3.83286c0,0.61451 -0.11086,1.20314 -0.31367,1.74696c0.15287,1.79572 0.17095,3.73532 0.04235,5.3856c0.53532,1.69114 0.32543,3.52924 -1.09956,4.75066c0.248,0.36195 0.44963,0.75817 0.59632,1.1801c2.35901,2.05463 -2.05365,8.22604 -3.61534,8.97624c-3.76511,1.80864 -7.13706,3.59298 -11.20635,2.70253c-0.19737,-0.04319 -0.58371,0.72062 -0.65718,0.81072c-1.40393,1.72168 -3.93646,2.6662 -5.95217,3.42912c-2.02952,0.76815 -5.28241,-0.2332 -6.82418,0.58611c-2.48325,1.31963 -3.78172,4.04188 -5.87301,5.46498c-2.55099,1.73592 -5.53605,0.20828 -7.9737,0.83679c-5.13029,1.32276 -11.9285,-1.00927 -12.68111,-7.20933c-0.17835,-1.46927 0.38068,-3.01375 1.36622,-4.20069c-0.62512,-1.05317 -3.03588,-2.1525 -3.91576,-3.07063c-2.90135,-3.0275 -3.35424,-8.04369 -6.41741,-11.05235c-0.68496,-0.67278 -1.04967,-1.84036 -1.97494,-2.09661c-0.18781,-0.05201 -3.46416,1.31531 -5.63991,0.53826c-1.93763,-0.69201 -4.14074,-2.9454 -5.88085,-4.11159c-4.86273,-3.25889 -9.09585,-2.61053 -10.4977,-8.43469c-0.05311,-0.0382 -0.10575,-0.0771 -0.15789,-0.11673z" fill="#3e3e3e" stroke="none" stroke-width="0.5" stroke-linecap="butt"/><path d="M309.18199,70.97938l-20.69574,-30.08711l-0.24036,-2.42792l-10.09544,-5.83528l-3.33458,0.70396l-0.53019,-2.70762l5.95468,-1.53011l8.8535,3.7648l0.1329,-8.5479l15.49961,-10.63974l8.18046,4.42316l6.9695,1.32228l21.07555,30.96074l-2.16941,5.07056l-23.20142,16.0705z" fill="none" stroke="#e02503" stroke-width="3" stroke-linecap="round"/><path d="M309.18199,70.97938c0,0 -1.83644,-2.66979 -3.41097,-4.95881c-3.5444,-5.15279 -17.28477,-25.1283 -17.28477,-25.1283l-0.24036,-2.42792l-10.09544,-5.83528l-3.33458,0.70396l-0.53019,-2.70762l5.95468,-1.53011l8.8535,3.7648l0.1329,-8.5479l15.49961,-10.63974l8.18046,4.42316l6.9695,1.32228l21.07555,30.96074l-2.16941,5.07056l-23.20142,16.0705z" fill="none" stroke="#ffffff" stroke-width="1.5" stroke-linecap="round"/><text transform="translate(185,337.44094) scale(0.975,0.975)" font-size="40" xml:space="preserve" data-paper-data="{&quot;origPos&quot;:null}" fill="#b4b4b4" fill-rule="nonzero" stroke="none" stroke-width="1" stroke-linecap="butt" stroke-linejoin="miter" stroke-miterlimit="10" stroke-dasharray="" stroke-dashoffset="0" font-family="&quot;Microsoft YaHei&quot;, &quot;微软雅黑&quot;, STXihei, &quot;华文细黑&quot;" font-weight="normal" text-anchor="start" style="mix-blend-mode: normal"><tspan x="0" dy="0">补给站</tspan></text></g></svg>