<svg version="1.1" xmlns="http://www.w3.org/2000/svg" xmlns:xlink="http://www.w3.org/1999/xlink" width="73.27782" height="89.73714" viewBox="0,0,73.27782,89.73714"><g transform="translate(-204.16389,-133.76286)"><g data-paper-data="{&quot;isPaintingLayer&quot;:true}" fill-rule="nonzero" stroke-linecap="butt" stroke-linejoin="miter" stroke-miterlimit="10" stroke-dasharray="" stroke-dashoffset="0" style="mix-blend-mode: normal"><path d="M256.4911,160.59168c0,0 -8.0265,1.06448 -12.02312,-0.23522c-5.17594,-1.68321 -17.06097,-8.37292 -17.06097,-8.37292c0,0 1.1016,-1.84767 6.1668,-4.81629c2.17868,-1.27687 5.6745,-2.43436 8.44139,-3.9107c4.57389,-2.4405 8.26727,-5.0855 8.91549,-5.6679c1.00045,-0.89888 1.55523,-0.28229 1.58502,0.36192c0.03333,0.721 0.25524,1.54903 0.25524,1.54903c0,0 6.71032,-1.31261 12.47664,-1.84965c2.22958,-0.20764 4.31802,-0.29934 5.82288,-0.15437c0.93302,0.08989 2.75763,0.20436 0.39776,1.86859c-1.8757,1.32278 -3.65863,0.42847 -9.7167,4.79291c-1.64197,1.18294 -1.35584,2.3229 -2.79838,3.678c-0.23935,0.22485 2.63903,-2.1433 5.32635,-4.13226c3.23919,-2.39741 -1.38285,2.95488 -4.8304,8.39803c-1.65901,2.61936 -2.958,8.49083 -2.958,8.49083z" fill="#c92200" stroke="#000000" stroke-width="7.5"/><path d="M255.94386,160.59758c0,0 -7.8721,1.04918 -11.79181,-0.23183c-5.07634,-1.65903 -15.33389,-8.24332 -15.33389,-8.24332c0,0 1.3671,-3.16214 10.31938,-7.04751c5.65533,-2.45447 9.43842,-5.42103 11.35289,-7.14966c0.9812,-0.88596 1.52532,-0.27824 1.55452,0.35672c0.03269,0.71063 0.25033,1.52677 0.25033,1.52677c0,0 12.6544,-2.48763 17.94744,-1.9752c0.91508,0.08859 -9.29593,8.07836 -6.66032,6.118c3.17687,-2.36293 -1.35623,2.9124 -4.73745,8.2773c-1.6271,2.58168 -2.90109,8.36876 -2.90109,8.36876z" fill="#c92200" stroke="#000000" stroke-width="7.5"/><path d="M265.41436,188.4742c-1.41771,-4.80797 -7.64272,-25.91933 -7.64272,-25.91933c0,0 1.52138,-7.12868 4.95676,-12.24941c2.72058,-4.05524 6.34501,-6.08283 8.45704,-6.98347c1.0543,-0.4496 1.48661,0.0299 1.12516,1.09246c-0.37538,1.10351 -2.45862,4.48253 -2.50322,11.42985c-0.03118,4.85846 0.60835,9.88632 1.21155,16.03465c0.16473,1.67907 0.41865,-2.97475 1.17782,-6.29069c0.23227,-1.01449 1.01227,-2.32061 1.35285,-2.86348c0.3492,-0.55667 0.20605,0.48874 0.149,1.4284c-0.09163,1.50916 0.64089,4.55188 0.58067,11.69389c0.03556,6.77439 -2.37341,11.11867 -4.51082,13.63607c-1.69443,1.99565 -3.80753,0.8446 -4.35409,-1.00894z" fill="#c92200" stroke="#000000" stroke-width="7.5"/><path d="M213.98679,188.74666c0,0 -7.32214,-7.30682 -5.88631,-27.48379c0.73443,-10.32073 9.88704,-15.10245 11.1435,-16.12115c0.94333,-0.76481 1.22776,0.06148 0.62609,1.29333c-1.00762,2.063 -2.4511,5.01838 -2.96442,6.06936c-0.36231,0.7418 -0.05299,0.6076 1.12099,-0.79112c2.3699,-2.82354 6.54644,-7.28459 10.16622,-8.48844c6.95422,-2.31281 17.07449,-3.61252 17.07449,-3.61252z" fill="#c92200" stroke="#000000" stroke-width="7.5"/><path d="M213.98678,188.74666c0,0 -3.35656,-11.54682 -4.15286,-14.28623c-0.32153,-1.10607 -0.76279,-3.09958 -0.83491,-4.36011c-0.19405,-3.39135 -0.28937,-10.32896 1.65002,-15.34651c1.07914,-2.79188 5.99591,-7.50491 8.59493,-9.6121c0.94333,-0.76481 1.22776,0.06148 0.62609,1.29333c-1.00762,2.063 -2.4511,5.01838 -2.96443,6.06936c-0.36232,0.7418 -0.05299,0.6076 1.121,-0.79113c2.3699,-2.82354 6.54644,-7.28458 10.16622,-8.48844c6.95422,-2.31281 17.07449,-3.61254 17.07449,-3.61254z" fill="#c92200" stroke="#000000" stroke-width="2.5"/><path d="M213.98679,188.74666c0,0 -7.32214,-7.30682 -5.88631,-27.48379c0.73443,-10.32073 9.88704,-15.10245 11.1435,-16.12115c0.94333,-0.76481 1.22776,0.06148 0.62609,1.29333c-1.00762,2.063 -2.4511,5.01838 -2.96442,6.06936c-0.36231,0.7418 -0.05299,0.6076 1.12099,-0.79112c2.3699,-2.82354 6.54644,-7.28459 10.16622,-8.48844c6.95422,-2.31281 17.07449,-3.61252 17.07449,-3.61252z" fill="#c92200" stroke="#ffffff" stroke-width="4"/><path d="M213.98679,188.74666c0,0 -7.32214,-7.30682 -5.88631,-27.48379c0.73443,-10.32073 9.88704,-15.10245 11.1435,-16.12115c0.94333,-0.76481 1.22776,0.06148 0.62609,1.29333c-1.00762,2.063 -2.4511,5.01838 -2.96442,6.06936c-0.36231,0.7418 -0.05299,0.6076 1.12099,-0.79112c2.3699,-2.82354 6.54644,-7.28459 10.16622,-8.48844c6.95422,-2.31281 17.07449,-3.61252 17.07449,-3.61252z" fill="#c92200" stroke="none" stroke-width="0"/><path d="M256.49111,160.59168c0,0 -8.02649,1.06448 -12.02311,-0.23522c-5.17594,-1.68321 -17.06096,-8.37292 -17.06096,-8.37292c0,0 1.1016,-1.84767 6.1668,-4.81629c2.17868,-1.27687 5.67449,-2.43436 8.44138,-3.9107c4.57389,-2.4405 8.26728,-5.0855 8.9155,-5.6679c1.00045,-0.89888 1.55521,-0.28229 1.585,0.36192c0.03333,0.721 0.25526,1.54903 0.25526,1.54903c0,0 6.7103,-1.31261 12.47663,-1.84965c2.22958,-0.20764 4.31802,-0.29934 5.82288,-0.15437c0.93302,0.08989 2.75763,0.20436 0.39776,1.86859c-1.8757,1.32278 -3.65863,0.42847 -9.7167,4.79291c-1.64197,1.18294 -1.35584,2.3229 -2.79838,3.678c-0.23935,0.22485 2.63903,-2.1433 5.32635,-4.13226c3.23919,-2.39741 -1.38283,2.95488 -4.83038,8.39803c-1.65901,2.61936 -2.958,8.49083 -2.958,8.49083z" fill="#c92200" stroke="#ffffff" stroke-width="3.5"/><path d="M255.94388,160.59754c0,0 -7.8721,1.04918 -11.79181,-0.23183c-5.07634,-1.65903 -15.33389,-8.24332 -15.33389,-8.24332c0,0 1.3671,-3.16214 10.31937,-7.04752c5.65533,-2.45447 9.43842,-5.42103 11.35288,-7.14966c0.9812,-0.88596 1.52532,-0.27823 1.55452,0.35672c0.03269,0.71063 0.25033,1.52675 0.25033,1.52675c0,0 12.6544,-2.48763 17.94744,-1.9752c0.91508,0.08859 2.70458,0.20141 0.39011,1.84171c-1.83961,1.30375 -3.58825,0.42231 -9.52975,4.72402c-1.61038,1.16593 -1.32976,2.28951 -2.74454,3.62512c-0.23476,0.22162 2.58826,-2.11249 5.22386,-4.07286c3.17687,-2.36293 5.77128,-2.10231 5.77128,-2.10231c0,0 -7.12751,5.01471 -10.50873,10.37962c-1.6271,2.58168 -2.90108,8.36875 -2.90108,8.36875z" fill="#c92200" stroke="none" stroke-width="0"/><path d="M262.7284,150.30546c2.0222,-3.01425 4.13534,-5.72515 6.16402,-6.86877c0.70062,-0.39495 1.75088,0.11649 2.29303,-0.11471c1.0543,-0.4496 1.74318,-0.0984 1.38173,0.96417c-0.37538,1.10351 -2.58691,4.61083 -2.63151,11.55814c-0.03118,4.85846 0.48006,9.88631 1.08326,16.03464c0.16473,1.67907 0.41866,-2.97475 1.17783,-6.29069c0.23227,-1.01449 1.14055,-3.60348 1.48112,-4.14636c0.28198,-0.4495 1.0794,-0.0217 1.00821,1.53248c-0.01698,0.37054 -0.22012,2.47478 -0.17242,3.43113c0.10634,2.13237 0.32028,5.53724 0.27872,10.46786c0.03858,7.35044 -2.98872,11.79291 -5.38488,14.1549c-1.56288,1.5406 -3.4223,0.2221 -3.95222,-1.62926c-1.40377,-4.90433 -7.68364,-26.84414 -7.68364,-26.84414c0,0 1.52138,-7.12867 4.95676,-12.2494z" fill="#c92200" stroke="#ffffff" stroke-width="3.5"/><path d="M266.55022,192.32636l-8.77858,-29.77149c0,0 1.52138,-7.12868 4.95676,-12.24941c2.72058,-4.05524 6.34501,-6.08283 8.45704,-6.98347c1.0543,-0.4496 1.48661,0.0299 1.12516,1.09246c-0.37538,1.10351 -2.45862,4.48253 -2.50322,11.42985c-0.03118,4.85846 0.60835,9.88632 1.21155,16.03465c0.16473,1.67907 0.41865,-2.97475 1.17782,-6.29069c0.23227,-1.01449 1.01227,-2.32061 1.35284,-2.86348c0.3492,-0.55667 0.20604,0.48874 0.14899,1.4284c-0.09163,1.50916 0.64089,4.55188 0.58067,11.69389c0.06374,12.14476 -7.72902,16.47929 -7.72902,16.47929z" fill="#c92200" stroke="none" stroke-width="0"/><g stroke="#000000" stroke-width="5"><path d="M243.50256,163.51836c0,0 4.4248,-4.00997 5.83544,-5.28836c0.80249,-0.72726 2.15574,-1.11072 2.99474,-0.4725c4.88171,3.71353 15.24779,21.58016 16.16318,28.65778c1.66161,12.84715 -6.64891,19.58495 -6.64891,19.58495z" fill="#373948"/><path d="M208.32737,211.45896c0,0 0.73152,-7.68634 -0.41402,-18.68151c-1.36229,-13.07547 -4.25075,-31.35492 9.19561,-36.4586c35.91332,-13.6312 50.03455,54.32323 50.03455,54.32323z" fill="#36394c"/><path d="M218.05964,211.45896c0,0 0.51906,-6.80428 -0.29377,-16.53766c-0.62813,-7.52192 -10.03698,-19.06274 -7.77462,-27.39877c1.66128,-6.12132 5.45638,-8.43611 8.50501,-10.08503c3.6969,-1.99955 9.9057,-1.98767 11.8568,-1.71686c22.42763,3.1129 29.43841,55.01518 29.43841,55.01518z" fill="#505b5f"/><path d="M213.25367,183.25628c-0.86773,-2.46812 -1.65875,-4.97294 -1.65875,-5.9025c0,-1.20307 1.65772,-2.8303 3.87712,-2.92909c2.67792,-0.11921 6.17359,-0.42422 8.56161,-1.18985c2.90488,-0.93133 7.94639,-3.66282 11.20513,-5.51199c1.83832,-1.04316 3.65801,-0.34945 4.35645,1.50412c0.8927,2.36906 2.03004,5.38742 2.57921,6.84483c0.60948,1.61747 0.52686,4.59234 -0.95237,5.51384c-3.22728,2.01049 -8.94227,5.28734 -12.6382,5.7864c-4.01879,0.54265 -6.80553,0.92428 -8.73792,1.1926c-4.36354,0.6059 -5.53813,-2.31006 -6.59226,-5.30836z" fill="#9a9ea9"/><path d="M213.25367,183.25628c-0.86774,-2.46812 -1.65874,-4.97294 -1.65874,-5.9025c0,-1.20307 1.65772,-2.8303 3.87712,-2.92909c2.67792,-0.11921 6.17358,-0.42422 8.56162,-1.18985c2.90488,-0.93133 7.94639,-3.66284 11.20513,-5.51199c1.83834,-1.04316 3.65798,-0.34943 4.35644,1.50414c0.8927,2.36906 2.03004,5.38741 2.57921,6.84482c0.60948,1.61747 0.52686,4.59233 -0.95237,5.51385c-3.22728,2.01049 -8.94227,5.28733 -12.63819,5.78639c-4.0188,0.54265 -6.80553,0.92428 -8.73793,1.19259c-4.36354,0.6059 -5.53813,-2.31006 -6.59226,-5.30836z" fill="#9a9ea9"/></g><g><path d="M243.50257,163.51836c0,0 4.4248,-4.00997 5.83544,-5.28836c0.80249,-0.72726 2.15574,-1.11072 2.99473,-0.4725c4.88171,3.71353 15.24779,21.58016 16.16318,28.65778c1.66161,12.84715 -6.64891,19.58495 -6.64891,19.58495z" fill="#373948" stroke="none" stroke-width="0"/><path d="M208.32738,211.45896c0,0 0.73154,-7.68634 -0.41402,-18.68151c-1.36229,-13.07547 -4.25074,-31.35492 9.19561,-36.4586c35.91332,-13.6312 50.03455,54.32323 50.03455,54.32323z" fill="#36394c" stroke="none" stroke-width="0"/><path d="M218.05965,211.45895c0,0 0.51907,-6.80428 -0.29376,-16.53766c-0.62813,-7.52192 -10.03698,-19.06275 -7.77463,-27.39877c1.66128,-6.12132 5.45638,-8.43612 8.50501,-10.08503c3.6969,-1.99955 9.90571,-1.98767 11.85681,-1.71685c22.42763,3.1129 29.43841,55.01518 29.43841,55.01518z" fill="#505b5f" stroke="none" stroke-width="0"/><path d="M213.25368,183.25626c-0.86773,-2.46812 -1.65874,-4.97295 -1.65874,-5.9025c0,-1.20307 1.65772,-2.83029 3.87712,-2.92908c2.67792,-0.11921 6.1736,-0.42423 8.56162,-1.18985c2.90488,-0.93133 7.94639,-3.66282 11.20512,-5.51199c1.83832,-1.04316 3.65801,-0.34945 4.35645,1.50412c0.8927,2.36906 2.03004,5.38742 2.57921,6.84483c0.60948,1.61747 0.52686,4.59234 -0.95237,5.51386c-3.22728,2.01049 -8.94227,5.28733 -12.6382,5.78638c-4.01879,0.54265 -6.80553,0.92428 -8.73792,1.1926c-4.36354,0.6059 -5.53813,-2.31006 -6.59226,-5.30836z" fill="#9a9ea9" stroke="#35394b" stroke-width="5"/><path d="M213.25368,183.25626c-0.86774,-2.46812 -1.65873,-4.97295 -1.65873,-5.9025c0,-1.20307 1.65773,-2.83029 3.87712,-2.92908c2.67792,-0.11921 6.17358,-0.42423 8.56161,-1.18985c2.90488,-0.93133 7.94638,-3.66284 11.20513,-5.51199c1.83834,-1.04316 3.65799,-0.34943 4.35644,1.50413c0.8927,2.36906 2.03004,5.38742 2.57922,6.84483c0.60948,1.61747 0.52686,4.59234 -0.95237,5.51384c-3.22728,2.01049 -8.94226,5.28734 -12.63818,5.7864c-4.0188,0.54265 -6.80554,0.92428 -8.73794,1.19259c-4.36354,0.6059 -5.53813,-2.31006 -6.59226,-5.30835z" fill="#9a9ea9" stroke="none" stroke-width="0"/></g><text transform="translate(214.51563,218.25) scale(0.5,0.5)" font-size="40" xml:space="preserve" fill="#000000" fill-rule="nonzero" stroke="#ff0000" stroke-width="1" stroke-linecap="butt" stroke-linejoin="miter" stroke-miterlimit="10" stroke-dasharray="" stroke-dashoffset="0" font-family="&quot;Microsoft YaHei&quot;, &quot;微软雅黑&quot;, STXihei, &quot;华文细黑&quot;" font-weight="normal" text-anchor="start" style="mix-blend-mode: normal"><tspan x="0" dy="0">破坏</tspan></text></g></g></svg>