<svg version="1.1" xmlns="http://www.w3.org/2000/svg" xmlns:xlink="http://www.w3.org/1999/xlink" width="61.62753" height="48.58045"><g transform="translate(-248.73856,-156.64486)"><g data-paper-data="{&quot;isPaintingLayer&quot;:true}" fill="none" fill-rule="nonzero" stroke="none" stroke-width="none" stroke-linecap="butt" stroke-linejoin="miter" stroke-miterlimit="10" stroke-dasharray="" stroke-dashoffset="0" font-family="none" font-weight="none" font-size="none" text-anchor="none" style="mix-blend-mode: normal"><path d="M302.52391,197.65766c-7.06566,-2.46813 -42.12029,-14.7132 -48.92812,-17.09125c-0.83906,-0.2931 -0.88938,-0.5992 -0.13696,-0.86203c6.64042,-2.31959 43.12402,-15.0638 49.54403,-17.3064c0.22985,-0.08029 1.70778,-0.77421 2.06544,-0.56026c0.61472,0.36774 0.10207,1.8193 0.00942,2.13926c-0.61807,2.13456 -4.83712,16.70541 -4.83712,16.70541c0,0 0.19509,0.63215 0.40101,1.29942c0.56304,1.82443 3.20568,10.38756 4.16175,13.48558c0.10211,0.3309 0.75539,2.04473 0.30083,2.52375c-0.50843,0.53579 -2.15754,-0.18579 -2.58028,-0.33346z" fill="none" stroke="#ffffff" stroke-width="8.5"/><path d="M303.76586,198.09149c-4.09392,-1.43008 -38.17338,-13.33449 -48.51107,-16.94558c-0.65191,-0.22771 -1.2094,-0.42244 -1.659,-0.5795c-0.83906,-0.2931 -0.88938,-0.5992 -0.13696,-0.86203c7.28677,-2.54537 46.40703,-16.2106 50.50899,-17.64347c0.68442,-0.23908 1.18186,0.20336 1.18186,0.97686c0,5.86844 -4.90908,17.64462 -4.90908,17.64462c0,0 4.90908,13.17544 4.90908,15.90717c0,1.26388 -0.59122,1.77881 -1.38381,1.50193z" fill="none" stroke="#ffffff" stroke-width="4"/><path d="M292.12634,180.70707l10.09979,-15.52769c0,0 1.9001,1.95912 1.03917,6.15773c-0.65158,3.1776 -2.37645,6.86946 -2.31917,9.07134c0.05508,2.1173 1.79372,4.1087 2.22361,6.57711c0.90223,5.18048 -0.65045,8.70713 -0.65045,8.70713z" fill="#d10404" stroke="none" stroke-width="4"/><path d="M292.46513,180.50852l-37.94809,0.5956l47.87849,-15.95148z" data-paper-data="{&quot;index&quot;:null}" fill="#f20505" stroke="none" stroke-width="4"/><path d="M303.25219,196.55154l-48.90456,-16.63863l37.94809,0.5956z" fill="#e30505" stroke="none" stroke-width="4"/><path d="M302.6298,197.78071l-48.79042,-17.42895l7.99978,-3.35947l39.35028,17.6161z" fill="#7d1d10" stroke="none" stroke-width="4"/><path d="M265.79827,182.44628l-10.77301,-3.36926l48.79043,-17.42898l-1.52725,3.14231z" data-paper-data="{&quot;index&quot;:null}" fill="#7d1d10" stroke="none" stroke-width="4"/><path d="M302.52391,197.65766c-7.06566,-2.46813 -42.12029,-14.7132 -48.92812,-17.09125c-0.83906,-0.2931 -0.88938,-0.5992 -0.13696,-0.86203c6.64042,-2.31959 43.12402,-15.0638 49.54403,-17.3064c0.22985,-0.08029 1.70778,-0.77421 2.06544,-0.56026c0.61472,0.36774 0.10207,1.8193 0.00942,2.13926c-0.61807,2.13456 -4.83712,16.70541 -4.83712,16.70541c0,0 0.19509,0.63215 0.40101,1.29942c0.56304,1.82443 3.20568,10.38756 4.16175,13.48558c0.10211,0.3309 0.75539,2.04473 0.30083,2.52375c-0.50843,0.53579 -2.15754,-0.18579 -2.58028,-0.33346z" fill="none" stroke="#000000" stroke-width="5"/><path d="M248.73856,205.22532v-48.58045h60.75163v48.58045z" fill="none" stroke="none" stroke-width="0"/><path d="M307.52391,203.51711c-7.06566,-2.46813 -42.12029,-14.7132 -48.92812,-17.09125c-0.83906,-0.2931 -0.88938,-0.5992 -0.13696,-0.86203c6.64042,-2.31959 43.12402,-15.0638 49.54403,-17.3064c0.22985,-0.08029 1.70778,-0.77421 2.06544,-0.56026c0.61472,0.36774 0.10207,1.8193 0.00942,2.13926c-0.61807,2.13456 -4.83712,16.70541 -4.83712,16.70541c0,0 0.19509,0.63215 0.40101,1.29942c0.56304,1.82443 3.20568,10.38756 4.16175,13.48558c0.10211,0.3309 0.75539,2.04473 0.30083,2.52375c-0.50843,0.53579 -2.15754,-0.18579 -2.58028,-0.33346z" fill="none" stroke="#000000" stroke-width="0"/></g></g></svg>