<svg version="1.1" xmlns="http://www.w3.org/2000/svg" xmlns:xlink="http://www.w3.org/1999/xlink" width="211.90015" height="26.78865" viewBox="0,0,211.90015,26.78865"><g transform="translate(-42.84275,-218.01673)"><g data-paper-data="{&quot;isPaintingLayer&quot;:true}" fill="#ffffff" fill-rule="nonzero" stroke="none" stroke-width="1" stroke-linejoin="miter" stroke-miterlimit="10" stroke-dasharray="" stroke-dashoffset="0" style="mix-blend-mode: normal"><path d="M168.19397,233.07968c-0.40938,0.25342 -0.8285,0.42399 -1.25737,0.51172c-0.42887,0.07798 -0.71641,0.11696 -0.86261,0.11696c-0.13646,0 -0.24367,-0.01462 -0.32165,-0.04386c-0.06823,-0.03898 -0.13159,-0.08285 -0.19007,-0.13159c-0.05848,-0.08773 -0.12183,-0.24367 -0.19006,-0.46786c-0.05848,-0.22419 -0.08773,-0.41425 -0.08773,-0.5702c0,-0.1657 0.0536,-0.29729 0.16082,-0.39476c0.10722,-0.10722 0.30216,-0.19007 0.58482,-0.24855c0.84799,-0.17544 1.42794,-0.34602 1.73985,-0.51172c0.3119,-0.17544 0.54096,-0.31678 0.68717,-0.424c0.14621,-0.10722 0.28267,-0.19981 0.40938,-0.27779c0.26317,-0.15595 0.53121,-0.23393 0.80413,-0.23393c0.27292,0 0.49223,0.08285 0.65793,0.24855c0.1657,0.1657 0.24855,0.4045 0.24855,0.7164v10.26364c0,0.1657 -0.05361,0.3119 -0.16083,0.43861c-0.09747,0.11696 -0.2193,0.17544 -0.36551,0.17544h-1.35971c-0.14621,0 -0.26805,-0.05848 -0.36551,-0.17544c-0.08773,-0.12671 -0.13159,-0.27292 -0.13159,-0.43861zM204.3267,240.97478c0,-0.32165 0.02436,-0.52634 0.0731,-0.61406c0.05848,-0.13646 0.21444,-0.26804 0.46786,-0.39475c0.25342,-0.12671 0.57995,-0.30704 0.97958,-0.54096c0.39963,-0.23393 0.80901,-0.4971 1.22813,-0.78951c0.42887,-0.30215 0.84799,-0.62868 1.25737,-0.97958c0.40938,-0.3509 0.77489,-0.71641 1.09654,-1.09654c0.72128,-0.83825 1.08192,-1.63262 1.08192,-2.38315c0,-0.63356 -0.22906,-1.11604 -0.68717,-1.44744c-0.37039,-0.25342 -0.74077,-0.38013 -1.11116,-0.38013c-0.37039,0 -0.67255,0.02925 -0.90648,0.08773c-0.23393,0.05848 -0.45324,0.14621 -0.65793,0.26317c-0.46786,0.26317 -0.78951,0.62381 -0.96496,1.08192c-0.14621,0.40938 -0.38988,0.61407 -0.73103,0.61407c-0.06823,0 -0.14133,-0.00487 -0.21931,-0.01462c-0.07798,-0.0195 -0.21444,-0.04387 -0.40938,-0.0731c-0.42887,-0.07798 -0.6433,-0.3119 -0.6433,-0.70179c0,-0.39963 0.06336,-0.74565 0.19007,-1.03806c0.12671,-0.29241 0.30215,-0.55558 0.52634,-0.78951c0.22419,-0.24367 0.48248,-0.45324 0.77489,-0.62868c0.29241,-0.18519 0.59944,-0.34115 0.92109,-0.46786c0.65305,-0.24367 1.22813,-0.36551 1.72523,-0.36551c0.4971,0 0.91135,0.02437 1.24275,0.0731c0.3314,0.04873 0.65305,0.13159 0.96496,0.24855c0.32165,0.10722 0.62869,0.25342 0.9211,0.43861c0.29241,0.18519 0.5507,0.41425 0.77489,0.68716c0.47761,0.58482 0.7164,1.32073 0.7164,2.20771c0,1.35484 -0.60919,2.60734 -1.82757,3.75749c-0.6433,0.60432 -1.25737,1.09167 -1.84219,1.46206l-1.73985,1.0673l5.21954,-0.11696c0.24367,-0.00975 0.39963,0.04873 0.46786,0.17544c0.06823,0.12671 0.10234,0.29241 0.10234,0.4971v0.86262c0,0.22419 -0.05848,0.37526 -0.17544,0.45324c-0.10722,0.06823 -0.26804,0.10234 -0.48248,0.10234h-7.66118c-0.20469,0 -0.37039,-0.03898 -0.4971,-0.11696c-0.11696,-0.08773 -0.17544,-0.24367 -0.17544,-0.46785zM246.01444,241.9836c0.21444,-0.3314 0.44836,-0.43374 0.70179,-0.30703c0.07798,0.03898 0.20469,0.11697 0.38013,0.23393c0.17544,0.11696 0.38013,0.22905 0.61406,0.33627c0.23393,0.10722 0.46786,0.19007 0.70179,0.24855c0.41912,0.11696 0.83337,0.17545 1.24275,0.17545c0.40938,0 0.76515,-0.03898 1.0673,-0.11696c0.3119,-0.07798 0.5897,-0.20469 0.83337,-0.38014c0.55558,-0.38013 0.83337,-0.91622 0.83337,-1.60826c0,-0.63356 -0.28754,-1.12578 -0.86262,-1.47668c-0.54584,-0.32165 -1.25736,-0.48248 -2.1346,-0.48248c-0.39963,0 -0.68717,0.01463 -0.86261,0.04387c-0.23393,0.03898 -0.38501,0.05848 -0.45324,0.05848c-0.06823,0 -0.14133,-0.04386 -0.21931,-0.13159c-0.06823,-0.09747 -0.12184,-0.20469 -0.16082,-0.32165c-0.06823,-0.23393 -0.10235,-0.43861 -0.10235,-0.61406c0,-0.17544 0.02437,-0.32166 0.0731,-0.43862c0.05848,-0.11696 0.18032,-0.19494 0.36551,-0.23392c1.89093,-0.41912 3.08006,-1.03807 3.56742,-1.85682c0.19494,-0.30215 0.29241,-0.61893 0.29241,-0.95033c0,-0.3314 -0.05848,-0.59944 -0.17545,-0.80413c-0.11696,-0.20469 -0.27292,-0.37526 -0.46786,-0.51172c-0.38988,-0.28267 -0.86749,-0.424 -1.43282,-0.424c-0.44836,0 -0.82363,0.08285 -1.12579,0.24855c-0.56533,0.3119 -0.89673,0.68717 -0.99419,1.12579c-0.07798,0.30215 -0.27779,0.45324 -0.59945,0.45324c-0.32165,0 -0.57021,-0.02437 -0.74565,-0.0731c-0.17544,-0.05848 -0.3119,-0.13159 -0.40937,-0.21931c-0.15595,-0.13646 -0.23393,-0.35577 -0.23393,-0.65793c0,-0.30215 0.06336,-0.59457 0.19007,-0.87723c0.12671,-0.28267 0.29729,-0.53608 0.51172,-0.76027c0.22419,-0.22419 0.4776,-0.41913 0.76027,-0.58482c0.28267,-0.17544 0.58482,-0.31677 0.90648,-0.42399c0.63356,-0.22419 1.24762,-0.33628 1.84219,-0.33628c0.60432,0 1.1599,0.0731 1.66675,0.21931c0.51659,0.13646 0.96983,0.3509 1.35971,0.6433c0.88698,0.65305 1.33047,1.54978 1.33047,2.69019c0,0.95521 -0.37038,1.77397 -1.11116,2.45625c-0.51659,0.45811 -1.1599,0.81875 -1.92991,1.08192c1.03319,0 1.88605,0.3119 2.5586,0.93571c0.63356,0.60432 0.95034,1.29149 0.95034,2.0615c0,0.77002 -0.13646,1.41819 -0.40938,1.94454c-0.27292,0.52634 -0.62868,0.9747 -1.0673,1.34509c-0.91622,0.74078 -1.96891,1.11116 -3.15805,1.11116c-1.79345,0 -3.17754,-0.39963 -4.15224,-1.19889c-0.3119,-0.24367 -0.46785,-0.4435 -0.46785,-0.59945c0,-0.14621 0.03898,-0.27779 0.11696,-0.39475z" stroke-linecap="square"/><text transform="translate(43.09276,239.26673) scale(0.5,0.5)" font-size="40" xml:space="preserve" fill="#ffffff" fill-rule="nonzero" stroke="none" stroke-width="1" stroke-linecap="butt" stroke-linejoin="miter" stroke-miterlimit="10" stroke-dasharray="" stroke-dashoffset="0" font-family="&quot;Microsoft YaHei&quot;, &quot;微软雅黑&quot;, STXihei, &quot;华文细黑&quot;" font-weight="normal" text-anchor="start" style="mix-blend-mode: normal"><tspan x="0" dy="0">伪装者</tspan></text></g></g></svg>